SplineFontDB: 3.0
FontName: Laksaman
FullName: Laksaman
FamilyName: Laksaman
Weight: Regular
Copyright: Laksaman, based on TH Sarabun New.\n\nCopyright (c) 2014 Theppitak Karoonboonyanan.\n\nTH Sarabun New:\n\nCopyright (c) 2010-2011 by Software Industry Promotion Agency (Public Organization) (SIPA). All rights reserved.\nCreated by : Suppakit CHALERMLARP.
Version: 004.001
ItalicAngle: 0
UnderlinePosition: -20
UnderlineWidth: 30
Ascent: 800
Descent: 200
InvalidEm: 0
LayerCount: 3
Layer: 0 0 "Back" 1
Layer: 1 0 "Fore" 0
Layer: 2 1 "Quad" 0
XUID: [1021 373 914837695 13816194]
FSType: 0
OS2Version: 4
OS2_WeightWidthSlopeOnly: 0
OS2_UseTypoMetrics: 1
CreationTime: 1308745588
ModificationTime: 1540799631
PfmFamily: 33
TTFWeight: 400
TTFWidth: 5
LineGap: 30
VLineGap: 0
Panose: 2 11 5 0 4 2 0 2 0 3
OS2TypoAscent: 1279
OS2TypoAOffset: 0
OS2TypoDescent: -376
OS2TypoDOffset: 0
OS2TypoLinegap: 60
OS2WinAscent: 1270
OS2WinAOffset: 0
OS2WinDescent: 687
OS2WinDOffset: 0
HheadAscent: 1270
HheadAOffset: 0
HheadDescent: -687
HheadDOffset: 0
OS2SubXSize: 700
OS2SubYSize: 650
OS2SubXOff: 0
OS2SubYOff: 140
OS2SupXSize: 700
OS2SupYSize: 650
OS2SupXOff: 0
OS2SupYOff: 477
OS2StrikeYSize: 30
OS2StrikeYPos: 250
OS2FamilyClass: 2053
OS2Vendor: 'psk '
OS2CodePages: 60010183.80000000
OS2UnicodeRanges: a100006f.5000205a.00000000.00000000
Lookup: 4 0 0 "'frac' Diagonal Fractions in Latin lookup 0" { "'frac' Diagonal Fractions in Latin lookup 0 subtable"  } ['frac' ('latn' <'dflt' > ) ]
Lookup: 4 0 1 "'rlig' Required Ligatures in Latin lookup 18" { "'rlig' Required Ligatures in Latin lookup 18 subtable"  } ['rlig' ('latn' <'dflt' > ) ]
Lookup: 4 0 1 "'rlig' Required Ligatures in Latin lookup 19" { "'rlig' Required Ligatures in Latin lookup 19 subtable"  } ['rlig' ('latn' <'dflt' > ) ]
Lookup: 4 0 1 "'rlig' Required Ligatures in Latin lookup 20" { "'rlig' Required Ligatures in Latin lookup 20 subtable"  } ['rlig' ('latn' <'dflt' > ) ]

StartChar: .notdef
Encoding: 65536 -1 0
Width: 1040
VWidth: 1504
Flags: W
HStem: 0 42<120 921> 1175 42<120 921>
VStem: 75 45<42 1175> 921 45<42 1175>
LayerCount: 3
Fore
SplineSet
966 0 m 1
 75 0 l 1
 75 1217 l 1
 966 1217 l 1
 966 0 l 1
921 42 m 1
 921 1175 l 1
 120 1175 l 1
 120 42 l 1
 921 42 l 1
EndSplineSet
Validated: 1
Layer: 2
SplineSet
966 0 m 1,0,-1
 75 0 l 1,1,-1
 75 1217 l 1,2,-1
 966 1217 l 1,3,-1
 966 0 l 1,0,-1
921 42 m 1,4,-1
 921 1175 l 1,5,-1
 120 1175 l 1,6,-1
 120 42 l 1,7,-1
 921 42 l 1,4,-1
EndSplineSet
EndChar

StartChar: exclam
Encoding: 33 33 2
Width: 221
VWidth: 1504
Flags: W
HStem: -9 104<67.1808 150.097>
VStem: 57 104<1.18085 84.0971> 74 70<403.083 714> 84 48<181 491.917>
LayerCount: 3
Fore
SplineSet
132 181 m 1x90
 84 181 l 1x90
 74 714 l 1
 144 714 l 1xa0
 132 181 l 1x90
108 95 m 259
 136 95 161 70 161 42 c 259
 161 14 136 -9 108 -9 c 259
 80 -9 57 14 57 42 c 259xc0
 57 70 80 95 108 95 c 259
EndSplineSet
Validated: 1
Layer: 2
SplineSet
132 181 m 1,0,-1
 84 181 l 1,1,-1
 74 714 l 1,2,-1
 144 714 l 1,3,-1
 132 181 l 1,0,-1
108 95 m 259,4,5
 129 95 129 95 145 79 c 128,-1,6
 161 63 161 63 161 42 c 128,-1,7
 161 21 161 21 145 6 c 128,-1,8
 129 -9 129 -9 108 -9 c 128,-1,9
 87 -9 87 -9 72 6 c 128,-1,10
 57 21 57 21 57 42 c 128,-1,11
 57 63 57 63 72 79 c 128,-1,12
 87 95 87 95 108 95 c 259,4,5
EndSplineSet
EndChar

StartChar: quotedbl
Encoding: 34 34 3
Width: 312
VWidth: 1504
Flags: W
HStem: 508 243<71 111 202 242>
VStem: 71 40<508 621.4> 202 40<508 621.4>
LayerCount: 3
Fore
SplineSet
242 508 m 1
 202 508 l 1
 187 751 l 1
 257 751 l 1
 242 508 l 1
111 508 m 1
 71 508 l 1
 56 751 l 1
 126 751 l 1
 111 508 l 1
EndSplineSet
Validated: 1
Layer: 2
SplineSet
242 508 m 1,0,-1
 202 508 l 1,1,-1
 187 751 l 1,2,-1
 257 751 l 1,3,-1
 242 508 l 1,0,-1
111 508 m 1,4,-1
 71 508 l 1,5,-1
 56 751 l 1,6,-1
 126 751 l 1,7,-1
 111 508 l 1,4,-1
EndSplineSet
EndChar

StartChar: numbersign
Encoding: 35 35 4
Width: 606
VWidth: 1504
Flags: W
HStem: 206 45<51 135 187 369 423 549> 442 45<51 182 236 415 471 549>
DStem2: 92 6 135 6 0.204927 0.978777<8.81186 204.567 259.268 445.19 500.301 697.4> 325 6 369 6 0.206299 0.978489<9.07717 204.775 259.947 445.188 500.773 697.396>
LayerCount: 3
Fore
SplineSet
549 206 m 1
 411 206 l 1
 369 6 l 1
 325 6 l 1
 369 206 l 1
 179 206 l 1
 135 6 l 1
 92 6 l 1
 135 206 l 1
 51 206 l 1
 51 251 l 1
 143 251 l 1
 182 442 l 1
 51 442 l 1
 51 487 l 1
 191 487 l 1
 233 689 l 1
 278 689 l 1
 236 487 l 1
 423 487 l 1
 466 689 l 1
 513 689 l 1
 471 487 l 1
 549 487 l 1
 549 442 l 1
 462 442 l 1
 423 251 l 1
 549 251 l 1
 549 206 l 1
415 442 m 1
 227 442 l 1
 187 251 l 1
 376 251 l 1
 415 442 l 1
EndSplineSet
Validated: 1
Layer: 2
SplineSet
549 206 m 1,0,-1
 411 206 l 1,1,-1
 369 6 l 1,2,-1
 325 6 l 1,3,-1
 369 206 l 1,4,-1
 179 206 l 1,5,-1
 135 6 l 1,6,-1
 92 6 l 1,7,-1
 135 206 l 1,8,-1
 51 206 l 1,9,-1
 51 251 l 1,10,-1
 143 251 l 1,11,-1
 182 442 l 1,12,-1
 51 442 l 1,13,-1
 51 487 l 1,14,-1
 191 487 l 1,15,-1
 233 689 l 1,16,-1
 278 689 l 1,17,-1
 236 487 l 1,18,-1
 423 487 l 1,19,-1
 466 689 l 1,20,-1
 513 689 l 1,21,-1
 471 487 l 1,22,-1
 549 487 l 1,23,-1
 549 442 l 1,24,-1
 462 442 l 1,25,-1
 423 251 l 1,26,-1
 549 251 l 1,27,-1
 549 206 l 1,0,-1
415 442 m 1,28,-1
 227 442 l 1,29,-1
 187 251 l 1,30,-1
 376 251 l 1,31,-1
 415 442 l 1,28,-1
EndSplineSet
EndChar

StartChar: dollar
Encoding: 36 36 5
Width: 543
VWidth: 1504
Flags: W
HStem: 24 48<150.316 242 295 342.466> 600 21G<400 428.25> 644 48<200.309 254 305 383.269>
VStem: 93 56<471.926 597.068> 242 53<-87 24> 254 51<690.025 806> 406 57<128.743 262.169>
LayerCount: 3
Fore
SplineSet
281 644 m 3xf6
 210 644 149 603 149 534 c 3
 149 460 216 429 290 396 c 0
 387 353 463 306 463 200 c 3
 463 101 383 40 295 24 c 1
 295 -87 l 1
 242 -87 l 1
 242 24 l 1xfa
 178 24 123 42 78 77 c 1
 105 123 l 1
 145 89 195 72 256 72 c 3
 338 72 406 119 406 197 c 3
 406 255 362 303 274 340 c 0
 153 390 93 452 93 526 c 3
 93 621 167 679 254 692 c 1
 254 806 l 1
 305 806 l 1
 305 692 l 1
 354 689 401 674 444 648 c 1
 417 600 l 1
 383 629 338 644 281 644 c 3xf6
EndSplineSet
Validated: 1
Layer: 2
SplineSet
281 644 m 3,0,1
 226 644 226 644 187.5 614 c 128,-1,2
 149 584 149 584 149 534 c 0,3,4
 149 507 149 507 159.5 486.5 c 128,-1,5
 170 466 170 466 193.5 449 c 128,-1,6
 217 432 217 432 235.5 422 c 128,-1,7
 254 412 254 412 290 396 c 0,8,9
 376 358 376 358 419.5 315.5 c 128,-1,10
 463 273 463 273 463 200 c 0,11,12
 463 130 463 130 414.5 83.5 c 128,-1,13
 366 37 366 37 295 24 c 1,14,-1
 295 -87 l 1,15,-1
 242 -87 l 1,16,-1
 242 24 l 1,17,18
 146 24 146 24 78 77 c 1,19,-1
 105 123 l 1,20,21
 165 72 165 72 256 72 c 0,22,23
 320 72 320 72 363 106 c 128,-1,24
 406 140 406 140 406 197 c 0,25,26
 406 284 406 284 274 340 c 0,27,28
 93 415 93 415 93 526 c 0,29,30
 93 594 93 594 139 638 c 128,-1,31
 185 682 185 682 254 692 c 1,32,-1
 254 806 l 1,33,-1
 305 806 l 1,34,-1
 305 692 l 1,35,36
 379 687 379 687 444 648 c 1,37,-1
 417 600 l 1,38,39
 365 644 365 644 281 644 c 3,0,1
EndSplineSet
EndChar

StartChar: percent
Encoding: 37 37 6
Width: 879
VWidth: 1504
Flags: W
HStem: -14 21G<194 256.945> -5 49<603.378 728.77> 289 48<149.23 274.77> 375 48<603.378 728.77> 668 48<149.23 274.77>
VStem: 51 54<389.441 615.307> 319 54<389.22 615.099> 505 55<94.6738 323.744> 773 54<96.1039 322.099>
DStem2: 194 -14 245 -14 0.512765 0.858529<26.151 850.292>
LayerCount: 3
Fore
SplineSet
681 716 m 1xbf80
 245 -14 l 1
 194 -14 l 1
 630 716 l 1
 681 716 l 1xbf80
373 502 m 259
 373 359 319 289 212 289 c 259
 105 289 51 360 51 502 c 259
 51 645 105 716 212 716 c 259
 319 716 373 645 373 502 c 259
319 502 m 259
 319 612 283 668 212 668 c 259
 141 668 105 613 105 502 c 259
 105 392 141 337 212 337 c 259
 283 337 319 392 319 502 c 259
827 209 m 259
 827 66 773 -5 666 -5 c 259x7f80
 559 -5 505 66 505 209 c 259
 505 352 559 423 666 423 c 259
 773 423 827 352 827 209 c 259
773 209 m 259
 773 319 737 375 666 375 c 259
 595 375 560 320 560 209 c 259
 560 99 595 44 666 44 c 259
 737 44 773 99 773 209 c 259
EndSplineSet
Validated: 1
Layer: 2
SplineSet
681 716 m 1,0,-1
 245 -14 l 1,1,-1
 194 -14 l 1,2,-1
 630 716 l 1,3,-1
 681 716 l 1,0,-1
373 502 m 259,4,5
 373 289 373 289 212 289 c 128,-1,6
 51 289 51 289 51 502 c 0,7,8
 51 716 51 716 212 716 c 128,-1,9
 373 716 373 716 373 502 c 259,4,5
319 502 m 259,10,11
 319 668 319 668 212 668 c 128,-1,12
 105 668 105 668 105 502 c 0,13,14
 105 337 105 337 212 337 c 128,-1,15
 319 337 319 337 319 502 c 259,10,11
827 209 m 259,16,17
 827 -5 827 -5 666 -5 c 128,-1,18
 505 -5 505 -5 505 209 c 128,-1,19
 505 423 505 423 666 423 c 128,-1,20
 827 423 827 423 827 209 c 259,16,17
773 209 m 259,21,22
 773 375 773 375 666 375 c 0,23,24
 560 375 560 375 560 209 c 0,25,26
 560 44 560 44 666 44 c 0,27,28
 773 44 773 44 773 209 c 259,21,22
EndSplineSet
EndChar

StartChar: ampersand
Encoding: 38 38 7
Width: 636
VWidth: 1504
Flags: W
HStem: -14 49<171.724 363.58> 0 21G<562.5 647> 696 46<220.933 353.429>
VStem: 29 57<117.15 279.701> 116 55<494.362 643.307> 391 53<527.818 658.045> 566 55<291.925 385>
DStem2: 260 391 211 373 0.678416 -0.734678<0 328.91> 520 120 487 80 0.716075 -0.698023<2.1651 120.999>
LayerCount: 3
Fore
SplineSet
293 742 m 3xbe
 380 742 444 681 444 594 c 3
 444 514 383 446 260 391 c 1
 318 327 393 247 486 152 c 1
 520 198 547 276 566 385 c 1
 621 385 l 1
 597 258 563 169 520 120 c 1
 558 82 600 42 647 0 c 1
 572 0 l 1x7e
 553 18 524 45 487 80 c 1
 413 18 332 -14 245 -14 c 3
 128 -14 29 76 29 193 c 3
 29 288 80 361 181 411 c 1
 138 468 116 519 116 564 c 3
 116 664 190 742 293 742 c 3xbe
287 696 m 3
 218 696 171 638 171 570 c 3
 171 531 192 484 235 429 c 1
 339 479 391 532 391 588 c 3
 391 653 350 696 287 696 c 3
86 200 m 3
 86 102 161 35 259 35 c 3xbe
 334 35 399 62 453 116 c 1
 362 207 281 293 211 373 c 1
 128 329 86 271 86 200 c 3
EndSplineSet
Validated: 1
Layer: 2
SplineSet
293 742 m 3,0,1
 359 742 359 742 401.5 700.5 c 128,-1,2
 444 659 444 659 444 594 c 0,3,4
 444 473 444 473 260 391 c 1,5,6
 359 281 359 281 486 152 c 1,7,8
 538 222 538 222 566 385 c 1,9,-1
 621 385 l 1,10,11
 585 194 585 194 520 120 c 1,12,13
 581 59 581 59 647 0 c 1,14,-1
 572 0 l 1,15,16
 564 8 564 8 535.5 34.5 c 128,-1,17
 507 61 507 61 487 80 c 1,18,19
 375 -14 375 -14 245 -14 c 0,20,21
 156 -14 156 -14 92.5 46 c 128,-1,22
 29 106 29 106 29 193 c 0,23,24
 29 336 29 336 181 411 c 1,25,26
 116 497 116 497 116 564 c 0,27,28
 116 640 116 640 166 691 c 128,-1,29
 216 742 216 742 293 742 c 3,0,1
287 696 m 3,30,31
 236 696 236 696 203.5 659 c 128,-1,32
 171 622 171 622 171 570 c 0,33,34
 171 511 171 511 235 429 c 1,35,36
 391 504 391 504 391 588 c 0,37,38
 391 637 391 637 362.5 666.5 c 128,-1,39
 334 696 334 696 287 696 c 3,30,31
86 200 m 3,40,41
 86 127 86 127 135.5 81 c 128,-1,42
 185 35 185 35 259 35 c 0,43,44
 372 35 372 35 453 116 c 1,45,46
 316 253 316 253 211 373 c 1,47,48
 86 307 86 307 86 200 c 3,40,41
EndSplineSet
EndChar

StartChar: quotesingle
Encoding: 39 39 8
Width: 180
VWidth: 1504
Flags: W
HStem: 508 243<71 111>
VStem: 71 40<508 621.4>
LayerCount: 3
Fore
SplineSet
111 508 m 1
 71 508 l 1
 56 751 l 1
 125 751 l 1
 111 508 l 1
EndSplineSet
Validated: 1
Layer: 2
SplineSet
111 508 m 1,0,-1
 71 508 l 1,1,-1
 56 751 l 1,2,-1
 125 751 l 1,3,-1
 111 508 l 1,0,-1
EndSplineSet
EndChar

StartChar: parenleft
Encoding: 40 40 9
Width: 285
VWidth: 1504
Flags: W
VStem: 30 57<184.783 521.133>
LayerCount: 3
Fore
SplineSet
254 -87 m 1
 197 -87 l 1
 86 34 30 181 30 352 c 3
 30 515 85 664 196 800 c 1
 256 800 l 1
 144 671 87 522 87 352 c 3
 87 193 143 46 254 -87 c 1
EndSplineSet
Validated: 1
Layer: 2
SplineSet
254 -87 m 1,0,-1
 197 -87 l 1,1,2
 30 95 30 95 30 352 c 0,3,4
 30 597 30 597 196 800 c 1,5,-1
 256 800 l 1,6,7
 87 605 87 605 87 352 c 0,8,9
 87 113 87 113 254 -87 c 1,0,-1
EndSplineSet
EndChar

StartChar: parenright
Encoding: 41 41 10
Width: 285
VWidth: 1504
Flags: W
VStem: 197 57<190.874 523.675>
LayerCount: 3
Fore
SplineSet
254 356 m 3
 254 189 198 42 87 -87 c 1
 30 -87 l 1
 141 52 197 200 197 356 c 3
 197 515 141 663 30 800 c 1
 87 800 l 1
 198 675 254 527 254 356 c 3
EndSplineSet
Validated: 1
Layer: 2
SplineSet
254 356 m 3,0,1
 254 107 254 107 87 -87 c 1,2,-1
 30 -87 l 1,3,4
 197 122 197 122 197 356 c 0,5,6
 197 594 197 594 30 800 c 1,7,-1
 87 800 l 1,8,9
 254 612 254 612 254 356 c 3,0,1
EndSplineSet
EndChar

StartChar: asterisk
Encoding: 42 42 11
Width: 428
VWidth: 1504
Flags: W
HStem: 573 20G<27 182 247 402>
LayerCount: 3
Fore
SplineSet
402 535 m 1
 247 549 l 1
 343 420 l 1
 293 388 l 1
 214 537 l 1
 135 388 l 1
 86 420 l 1
 182 549 l 1
 27 535 l 1
 27 593 l 1
 182 582 l 1
 86 710 l 1
 143 743 l 1
 215 605 l 1
 286 743 l 1
 343 710 l 1
 247 582 l 1
 402 593 l 1
 402 535 l 1
EndSplineSet
Validated: 1
Layer: 2
SplineSet
402 535 m 1,0,-1
 247 549 l 1,1,-1
 343 420 l 1,2,-1
 293 388 l 1,3,-1
 214 537 l 1,4,-1
 135 388 l 1,5,-1
 86 420 l 1,6,-1
 182 549 l 1,7,-1
 27 535 l 1,8,-1
 27 593 l 1,9,-1
 182 582 l 1,10,-1
 86 710 l 1,11,-1
 143 743 l 1,12,-1
 215 605 l 1,13,-1
 286 743 l 1,14,-1
 343 710 l 1,15,-1
 247 582 l 1,16,-1
 402 593 l 1,17,-1
 402 535 l 1,0,-1
EndSplineSet
EndChar

StartChar: plus
Encoding: 43 43 12
Width: 618
VWidth: 1504
Flags: W
HStem: 0 21G<283 335> 248 50<57 283 335 561>
VStem: 283 52<0 248 298 537>
LayerCount: 3
Fore
SplineSet
561 248 m 1
 335 248 l 1
 335 0 l 1
 283 0 l 1
 283 248 l 1
 57 248 l 1
 57 298 l 1
 283 298 l 1
 283 537 l 1
 335 537 l 1
 335 298 l 1
 561 298 l 1
 561 248 l 1
EndSplineSet
Validated: 1
Layer: 2
SplineSet
561 248 m 1,0,-1
 335 248 l 1,1,-1
 335 0 l 1,2,-1
 283 0 l 1,3,-1
 283 248 l 1,4,-1
 57 248 l 1,5,-1
 57 298 l 1,6,-1
 283 298 l 1,7,-1
 283 537 l 1,8,-1
 335 537 l 1,9,-1
 335 298 l 1,10,-1
 561 298 l 1,11,-1
 561 248 l 1,0,-1
EndSplineSet
EndChar

StartChar: comma
Encoding: 44 44 13
Width: 243
VWidth: 1504
Flags: W
HStem: -164 266
VStem: 74 111<4.76417 89.3858>
LayerCount: 3
Fore
SplineSet
129 102 m 3
 162 102 185 74 185 41 c 1
 182 -45 130 -133 66 -164 c 1
 45 -141 l 1
 97 -106 126 -62 132 -11 c 1
 101 -11 74 15 74 45 c 259
 74 75 99 102 129 102 c 3
EndSplineSet
Validated: 1
Layer: 2
SplineSet
129 102 m 3,0,1
 153 102 153 102 169 84 c 128,-1,2
 185 66 185 66 185 41 c 0,3,4
 183 -23 183 -23 148.5 -82 c 128,-1,5
 114 -141 114 -141 66 -164 c 1,6,-1
 45 -141 l 1,7,8
 123 -89 123 -89 132 -11 c 1,9,10
 109 -11 109 -11 91.5 6 c 128,-1,11
 74 23 74 23 74 45 c 0,12,13
 74 68 74 68 90.5 85 c 128,-1,14
 107 102 107 102 129 102 c 3,0,1
EndSplineSet
EndChar

StartChar: hyphen
Encoding: 45 45 14
Width: 324
VWidth: 1504
Flags: W
HStem: 248 50<30 293>
VStem: 30 263<248 298>
LayerCount: 3
Fore
SplineSet
293 248 m 1
 30 248 l 1
 30 298 l 1
 293 298 l 1
 293 248 l 1
EndSplineSet
Validated: 1
Layer: 2
SplineSet
293 248 m 1,0,-1
 30 248 l 1,1,-1
 30 298 l 1,2,-1
 293 298 l 1,3,-1
 293 248 l 1,0,-1
EndSplineSet
EndChar

StartChar: period
Encoding: 46 46 15
Width: 243
VWidth: 1504
Flags: W
HStem: -9 104<79.1808 162.097>
VStem: 69 104<1.18085 84.0971>
LayerCount: 3
Fore
SplineSet
120 95 m 259
 148 95 173 70 173 42 c 259
 173 14 148 -9 120 -9 c 259
 92 -9 69 14 69 42 c 259
 69 70 92 95 120 95 c 259
EndSplineSet
Validated: 1
Layer: 2
SplineSet
120 95 m 259,0,1
 141 95 141 95 157 79 c 128,-1,2
 173 63 173 63 173 42 c 128,-1,3
 173 21 173 21 157 6 c 128,-1,4
 141 -9 141 -9 120 -9 c 128,-1,5
 99 -9 99 -9 84 6 c 128,-1,6
 69 21 69 21 69 42 c 128,-1,7
 69 63 69 63 84 79 c 128,-1,8
 99 95 99 95 120 95 c 259,0,1
EndSplineSet
EndChar

StartChar: slash
Encoding: 47 47 16
Width: 406
VWidth: 1504
Flags: W
DStem2: -27 -44 30 -44 0.442644 0.896697<25.2307 874.337>
LayerCount: 3
Fore
SplineSet
418 742 m 1
 30 -44 l 1
 -27 -44 l 1
 356 742 l 1
 418 742 l 1
EndSplineSet
Validated: 1
Layer: 2
SplineSet
418 742 m 1,0,-1
 30 -44 l 1,1,-1
 -27 -44 l 1,2,-1
 356 742 l 1,3,-1
 418 742 l 1,0,-1
EndSplineSet
EndChar

StartChar: zero
Encoding: 48 48 17
Width: 544
VWidth: 1507
Flags: W
HStem: -14 50<211.505 332.065> 678 50<208.012 335.87>
VStem: 47 60<193.477 515.467> 436 60<194.137 522.823>
LayerCount: 3
Back
SplineSet
272 721 m 259
 433 721 496 522 496 341 c 3
 496 175 421 -17 272 -17 c 3
 122 -17 47 173 47 341 c 3
 47 521 112 721 272 721 c 259
272 669 m 3
 147 669 107 489 107 343 c 3
 107 211 157 35 272 35 c 3
 386 35 436 212 436 343 c 3
 436 488 396 669 272 669 c 3
EndSplineSet
Fore
SplineSet
272 728 m 259
 433 728 496 527 496 346 c 3
 496 180 421 -14 272 -14 c 3
 122 -14 47 178 47 346 c 3
 47 526 112 728 272 728 c 259
272 678 m 3
 147 678 107 494 107 348 c 3
 107 216 157 36 272 36 c 3
 386 36 436 217 436 348 c 3
 436 493 396 678 272 678 c 3
EndSplineSet
Validated: 1
Layer: 2
SplineSet
272 728 m 259,0,1
 330 728 330 728 374.5 694.5 c 128,-1,2
 419 661 419 661 444.5 604.5 c 128,-1,3
 470 548 470 548 483 482.5 c 128,-1,4
 496 417 496 417 496 346 c 0,5,6
 496 259 496 259 472 179 c 128,-1,7
 448 99 448 99 395.5 42.5 c 128,-1,8
 343 -14 343 -14 272 -14 c 128,-1,9
 201 -14 201 -14 148 42 c 128,-1,10
 95 98 95 98 71 178 c 128,-1,11
 47 258 47 258 47 346 c 0,12,13
 47 416 47 416 60 482 c 128,-1,14
 73 548 73 548 99 604 c 128,-1,15
 125 660 125 660 170 694 c 128,-1,16
 215 728 215 728 272 728 c 259,0,1
272 678 m 3,17,18
 213 678 213 678 174 624 c 128,-1,19
 135 570 135 570 121 499.5 c 128,-1,20
 107 429 107 429 107 348 c 0,21,22
 107 296 107 296 117 243 c 128,-1,23
 127 190 127 190 146 143 c 128,-1,24
 165 96 165 96 198 66 c 128,-1,25
 231 36 231 36 272 36 c 128,-1,26
 313 36 313 36 345.5 66 c 128,-1,27
 378 96 378 96 397 143.5 c 128,-1,28
 416 191 416 191 426 243.5 c 128,-1,29
 436 296 436 296 436 348 c 0,30,31
 436 406 436 406 427.5 461 c 128,-1,32
 419 516 419 516 401 566.5 c 128,-1,33
 383 617 383 617 349.5 647.5 c 128,-1,34
 316 678 316 678 272 678 c 3,17,18
EndSplineSet
EndChar

StartChar: one
Encoding: 49 49 18
Width: 544
VWidth: 1504
Flags: W
HStem: 0 50<146 259 319 432> 708 20G<263.237 297>
VStem: 259 60<50 636>
DStem2: 113 576 146 538 0.75123 0.66004<0 149.282>
LayerCount: 3
Back
SplineSet
432 0 m 1
 146 0 l 1
 146 54 l 1
 259 54 l 1
 259 627 l 1
 146 529 l 1
 113 567 l 1
 286 719 l 1
 308 719 319 700 319 662 c 2
 319 54 l 1
 432 54 l 1
 432 0 l 1
EndSplineSet
Fore
SplineSet
432 0 m 1
 146 0 l 1
 146 50 l 1
 259 50 l 1
 259 636 l 1
 146 538 l 1
 113 576 l 1
 286 728 l 1
 308 728 319 709 319 671 c 2
 319 50 l 1
 432 50 l 1
 432 0 l 1
EndSplineSet
Validated: 1
Layer: 2
SplineSet
432 0 m 1,0,-1
 146 0 l 1,1,-1
 146 50 l 1,2,-1
 259 50 l 1,3,-1
 259 636 l 1,4,-1
 146 538 l 1,5,-1
 113 576 l 1,6,-1
 286 728 l 1,7,8
 319 728 319 728 319 671 c 2,9,-1
 319 50 l 1,10,-1
 432 50 l 1,11,-1
 432 0 l 1,0,-1
EndSplineSet
EndChar

StartChar: two
Encoding: 50 50 19
Width: 544
VWidth: 1504
Flags: W
HStem: 0 50<120 492> 678 50<205.039 369.148>
VStem: 83 54<550.056 604.354> 426 60<458.604 623.314>
LayerCount: 3
Back
SplineSet
292 719 m 3
 400 719 486 643 486 537 c 3
 486 461 426 365 305 250 c 0
 216 166 156 100 120 59 c 1
 504 59 l 1
 492 0 l 1
 39 0 l 1
 43 25 50 54 60 86 c 1
 103 130 151 177 203 227 c 0
 255 277 313 341 378 418 c 0
 413 459 426 503 426 542 c 259
 426 621 369 663 290 663 c 3
 200 663 149 618 137 528 c 1
 83 543 l 1
 94 652 170 719 292 719 c 3
EndSplineSet
Fore
SplineSet
292 728 m 3
 400 728 486 652 486 546 c 3
 486 460 426 365 305 250 c 0
 216 166 139 90 120 50 c 1
 504 50 l 1
 492 0 l 1
 39 0 l 1
 43 25 50 54 60 86 c 1
 103 130 151 177 203 227 c 0
 255 277 313 341 378 418 c 0
 413 459 426 512 426 551 c 259
 426 630 369 678 290 678 c 3
 200 678 149 627 137 537 c 1
 83 552 l 1
 94 661 170 728 292 728 c 3
EndSplineSet
Validated: 1
Layer: 2
SplineSet
292 728 m 3,0,1
 374 728 374 728 430 676.5 c 128,-1,2
 486 625 486 625 486 546 c 0,3,4
 486 422 486 422 305 250 c 0,5,6
 142 96 142 96 120 50 c 1,7,-1
 504 50 l 1,8,-1
 492 0 l 1,9,-1
 39 0 l 1,10,11
 45 39 45 39 60 86 c 1,12,13
 117 144 117 144 203 227 c 0,14,15
 276 297 276 297 378 418 c 0,16,17
 426 474 426 474 426 551 c 0,18,19
 426 609 426 609 388 643.5 c 128,-1,20
 350 678 350 678 290 678 c 0,21,22
 156 678 156 678 137 537 c 1,23,-1
 83 552 l 1,24,25
 91 634 91 634 146 681 c 128,-1,26
 201 728 201 728 292 728 c 3,0,1
EndSplineSet
EndChar

StartChar: three
Encoding: 51 51 20
Width: 544
VWidth: 1504
Flags: W
HStem: -14 50<111.207 311.485> 389 50<308 371.071> 678 50<190.201 349.571>
VStem: 372 60<546.917 654.906> 433 60<156.037 323.563>
LayerCount: 3
Back
SplineSet
493 242 m 0
 493 166 467 104.333 415 57 c 0
 363 9.66667 296 -15 214 -17 c 0
 148 -19 93.6667 -0.333332 51 39 c 1
 77 86 l 1
 114.333 58 163 44 223 44 c 0
 281 44 330.5 63.5 371.5 102.5 c 0
 412.5 141.5 433 187 433 239 c 0
 433 278.333 421 311 397 337 c 0
 373 363 342.333 376 305 376 c 0
 261.667 376 228.333 364.333 205 341 c 1
 176 390 l 1
 233 434 233 434 290 478 c 1
 347.333 526 376 563.667 376 591 c 0
 376 640.333 342 665 274 665 c 0
 198.667 665 142.333 627.333 105 552 c 1
 63 575 l 1
 79 619 106.667 654 146 680 c 0
 185.333 706 229.333 719 278 719 c 0
 320 719 356.167 707.667 386.5 685 c 0
 416.833 662.333 432 631.667 432 593 c 0
 432 547 390.667 492.667 308 430 c 1
 317 430 l 2
 370.333 430 413 412.167 445 376.5 c 0
 477 340.833 493 296 493 242 c 0
EndSplineSet
Fore
SplineSet
317 439 m 2
 424 439 493 352 493 245 c 3
 493 90 371 -14 214 -14 c 3
 148 -14 94 3 51 42 c 1
 77 78 l 1
 114 50 163 36 223 36 c 3
 334 36 433 133 433 242 c 3
 433 319 381 389 305 389 c 3
 262 389 228 377 205 354 c 1
 176 399 l 1
 290 487 l 2
 349 533 372 573 372 600 c 3
 372 649 342 678 274 678 c 3
 199 678 142 636 105 561 c 1
 63 584 l 1
 92 664 173 728 278 728 c 3
 358 728 432 681 432 602 c 3
 432 556 391 502 308 439 c 1
 317 439 l 2
EndSplineSet
Validated: 1
Layer: 2
SplineSet
317 439 m 2,0,1
 396 439 396 439 444.5 383 c 128,-1,2
 493 327 493 327 493 245 c 0,3,4
 493 130 493 130 413.5 58 c 128,-1,5
 334 -14 334 -14 214 -14 c 0,6,7
 113 -14 113 -14 51 42 c 1,8,-1
 77 78 l 1,9,10
 132 36 132 36 223 36 c 0,11,12
 306 36 306 36 369.5 98 c 128,-1,13
 433 160 433 160 433 242 c 0,14,15
 433 302 433 302 396.5 345.5 c 128,-1,16
 360 389 360 389 305 389 c 0,17,18
 240 389 240 389 205 354 c 1,19,-1
 176 399 l 1,20,-1
 290 487 l 2,21,22
 372 551 372 551 372 600 c 0,23,24
 372 678 372 678 274 678 c 0,25,26
 163 678 163 678 105 561 c 1,27,-1
 63 584 l 1,28,29
 86 646 86 646 144 687 c 128,-1,30
 202 728 202 728 278 728 c 0,31,32
 341 728 341 728 386.5 693.5 c 128,-1,33
 432 659 432 659 432 602 c 0,34,35
 432 533 432 533 308 439 c 1,36,-1
 317 439 l 2,0,1
EndSplineSet
EndChar

StartChar: four
Encoding: 52 52 21
Width: 544
VWidth: 1504
Flags: W
HStem: 0 21G<352 412> 167 50<113 352 412 511> 708 20G<297.5 412>
VStem: 48 65<217 353.578> 352 60<0 167 217 651>
LayerCount: 3
Back
SplineSet
352 223 m 1
 352 657 l 1
 282.667 623 225.667 563.333 181 478 c 0
 137.667 396.667 115 311.667 113 223 c 1
 352 223 l 1
412 223 m 1
 519 223 l 1
 511 167 l 1
 412 167 l 1
 412 0 l 1
 352 0 l 1
 352 167 l 1
 48 167 l 1
 50 316.333 83.8333 442.667 149.5 546 c 0
 215.167 649.333 302.667 712 412 734 c 1
 412 223 l 1
EndSplineSet
Fore
SplineSet
352 217 m 1
 352 651 l 1
 224 588 113 401 113 217 c 1
 352 217 l 1
412 217 m 1
 519 217 l 1
 511 167 l 1
 412 167 l 1
 412 0 l 1
 352 0 l 1
 352 167 l 1
 48 167 l 1
 48 449 183 682 412 728 c 1
 412 217 l 1
EndSplineSet
Validated: 1
Layer: 2
SplineSet
352 217 m 1,0,-1
 352 651 l 1,1,2
 254 603 254 603 183.5 478 c 128,-1,3
 113 353 113 353 113 217 c 1,4,-1
 352 217 l 1,0,-1
412 217 m 1,5,-1
 519 217 l 1,6,-1
 511 167 l 1,7,-1
 412 167 l 1,8,-1
 412 0 l 1,9,-1
 352 0 l 1,10,-1
 352 167 l 1,11,-1
 48 167 l 1,12,13
 48 383 48 383 146 538.5 c 128,-1,14
 244 694 244 694 412 728 c 1,15,-1
 412 217 l 1,5,-1
EndSplineSet
EndChar

StartChar: five
Encoding: 53 53 22
Width: 544
VWidth: 1504
Flags: W
HStem: -14 50<104.194 301.747> 409 50<180.296 336.198> 666 50<193 445>
VStem: 418 60<152.69 331.851>
DStem2: 113 356 179 444 0.0609973 0.998138<91.862 314.303>
LayerCount: 3
Back
SplineSet
478 247 m 0
 478 169.667 452 107.167 400 59.5 c 0
 348 11.8333 281 -12 199 -12 c 0
 129.667 -12 75.3333 6.66667 36 44 c 1
 62 90 l 1
 76 80.6667 91 72.3333 107 65 c 0
 135 51.6667 169.667 45 211 45 c 0
 265 45 312.833 62.5 354.5 97.5 c 0
 396.167 132.5 417 181.667 417 245 c 0
 417 299 399 339.667 363 367 c 1
 333 391 293.667 403 245 403 c 0
 203 403 169.333 386.333 144 353 c 1
 113 350 l 1
 135 714 l 1
 456 714 l 1
 445 657 l 1
 193 657 l 1
 179 445 l 1
 205 455 233 460 263 460 c 0
 321 460 370.667 442 412 406 c 0
 456 366 478 313 478 247 c 0
EndSplineSet
Fore
SplineSet
418 245 m 3
 418 346 348 409 245 409 c 3
 203 409 169 392 144 359 c 1
 113 356 l 1
 135 716 l 1
 456 716 l 1
 445 666 l 1
 193 666 l 1
 179 444 l 1
 205 454 233 459 263 459 c 3
 388 459 478 371 478 247 c 3
 478 90 358 -14 199 -14 c 3
 130 -14 75 5 36 42 c 1
 62 81 l 1
 101 55 145 36 211 36 c 3
 324 36 418 127 418 245 c 3
EndSplineSet
Validated: 1
Layer: 2
SplineSet
418 245 m 3,0,1
 418 320 418 320 370.5 364.5 c 128,-1,2
 323 409 323 409 245 409 c 0,3,4
 182 409 182 409 144 359 c 1,5,-1
 113 356 l 1,6,-1
 135 716 l 1,7,-1
 456 716 l 1,8,-1
 445 666 l 1,9,-1
 193 666 l 1,10,-1
 179 444 l 1,11,12
 218 459 218 459 263 459 c 0,13,14
 357 459 357 459 417.5 399.5 c 128,-1,15
 478 340 478 340 478 247 c 0,16,17
 478 131 478 131 399 58.5 c 128,-1,18
 320 -14 320 -14 199 -14 c 0,19,20
 95 -14 95 -14 36 42 c 1,21,-1
 62 81 l 1,22,23
 130 36 130 36 211 36 c 0,24,25
 296 36 296 36 357 96.5 c 128,-1,26
 418 157 418 157 418 245 c 3,0,1
EndSplineSet
EndChar

StartChar: six
Encoding: 54 54 23
Width: 544
VWidth: 1504
Flags: W
HStem: -14 50<200.537 346.431> 398 50<198.375 346.982> 684 44<388.191 436.795>
VStem: 57 60<128.521 307.449> 424 60<122.241 314.741>
LayerCount: 3
Back
SplineSet
484 218 m 0
 484 152.667 465.833 98 429.5 54 c 0
 393.167 10 343.333 -12 280 -12 c 0
 208.667 -12 152.333 15 111 69 c 0
 75 117 57 177.667 57 251 c 0
 57 366.333 92.6667 469.333 164 560 c 0
 235.333 650.667 326 706.667 436 728 c 1
 441 684 l 1
 373.667 664.665 312.333 629.332 257 578 c 0
 195 520 152.333 450.667 129 370 c 1
 133 385.333 147.667 401.333 173 418 c 1
 205 438 242 448 284 448 c 0
 343.333 448 391.5 425.5 428.5 380.5 c 0
 465.5 335.5 484 281.333 484 218 c 0
424 218 m 0
 424 268 410.5 310.667 383.5 346 c 0
 356.5 381.333 319.333 399 272 399 c 0
 228.667 399 192 381.333 162 346 c 0
 132 310.667 117 268 117 218 c 0
 117 168.667 132.167 126.5 162.5 91.5 c 0
 192.833 56.5 229.333 39 272 39 c 0
 320 39 357.333 56.5 384 91.5 c 0
 410.667 126.5 424 168.667 424 218 c 0
EndSplineSet
Fore
SplineSet
280 -14 m 3
 139 -14 57 103 57 251 c 3
 57 491 229 688 436 728 c 1
 441 684 l 1
 294 642 171 517 129 370 c 1
 143 416 224 448 284 448 c 3
 404 448 484 339 484 218 c 3
 484 90 408 -14 280 -14 c 3
424 218 m 3
 424 316 369 398 272 398 c 3
 181 398 117 311 117 218 c 3
 117 126 182 36 272 36 c 3
 368 36 424 122 424 218 c 3
EndSplineSet
Validated: 1
Layer: 2
SplineSet
280 -14 m 3,0,1
 177 -14 177 -14 117 61 c 128,-1,2
 57 136 57 136 57 251 c 0,3,4
 57 428 57 428 167 562.5 c 128,-1,5
 277 697 277 697 436 728 c 1,6,-1
 441 684 l 1,7,8
 331 653 331 653 246 567 c 128,-1,9
 161 481 161 481 129 370 c 1,10,11
 139 403 139 403 187.5 425.5 c 128,-1,12
 236 448 236 448 284 448 c 0,13,14
 371 448 371 448 427.5 380 c 128,-1,15
 484 312 484 312 484 218 c 0,16,17
 484 119 484 119 428.5 52.5 c 128,-1,18
 373 -14 373 -14 280 -14 c 3,0,1
424 218 m 3,19,20
 424 295 424 295 383 346.5 c 128,-1,21
 342 398 342 398 272 398 c 0,22,23
 206 398 206 398 161.5 344 c 128,-1,24
 117 290 117 290 117 218 c 0,25,26
 117 147 117 147 161.5 91.5 c 128,-1,27
 206 36 206 36 272 36 c 0,28,29
 341 36 341 36 382.5 89.5 c 128,-1,30
 424 143 424 143 424 218 c 3,19,20
EndSplineSet
EndChar

StartChar: seven
Encoding: 55 55 24
Width: 544
VWidth: 1504
Flags: W
HStem: 0 21G<198 258> 666 50<72 412>
VStem: 198 60<0 221.735>
LayerCount: 3
Back
SplineSet
260 0 m 1
 197 0 l 1
 197 151.333 227 296.333 287 435 c 0
 301 467 325.167 511.833 359.5 569.5 c 0
 393.833 627.168 411.333 656.335 412 657 c 1
 50 657 l 1
 72 714 l 1
 495 714 l 1
 483 654 l 1
 415.667 566 361.667 470.667 321 368 c 0
 280.333 265.333 260 142.667 260 0 c 1
EndSplineSet
Fore
SplineSet
258 0 m 1
 198 0 l 1
 198 151 226 296 287 435 c 0
 326 524 376 606 412 666 c 1
 50 666 l 1
 72 716 l 1
 495 716 l 1
 483 663 l 1
 416 575 362 471 321 368 c 0
 280 265 258 143 258 0 c 1
EndSplineSet
Validated: 1
Layer: 2
SplineSet
258 0 m 1,0,-1
 198 0 l 1,1,2
 198 232 198 232 287 435 c 0,3,4
 324 519 324 519 412 666 c 1,5,-1
 50 666 l 1,6,-1
 72 716 l 1,7,-1
 495 716 l 1,8,-1
 483 663 l 1,9,10
 390 540 390 540 321 368 c 0,11,12
 258 210 258 210 258 0 c 1,0,-1
EndSplineSet
EndChar

StartChar: eight
Encoding: 56 56 25
Width: 544
VWidth: 1504
Flags: W
HStem: -14 50<184.715 357.986> 678 50<193.023 350.09>
VStem: 50 60<108.912 270.467> 72 60<482.391 618.768> 411 60<482.306 618.336> 433 60<108.912 270.027>
LayerCount: 3
Back
SplineSet
433 188 m 0xe4
 433 227.333 419.5 264.667 392.5 300 c 0
 365.5 335.334 325 354.667 271 358 c 1
 217.667 354.667 177.5 335.333 150.5 300 c 0
 123.5 264.667 110 227.333 110 188 c 0
 110 142.667 125.333 106.833 156 80.5 c 0
 186.667 54.1667 225.333 41 272 41 c 0
 318 41 356.333 54.1667 387 80.5 c 0
 417.667 106.833 433 142.667 433 188 c 0xe4
411 543 m 0xd8
 411 578.333 398.333 607.5 373 630.5 c 0
 347.667 653.5 314 665 272 665 c 0
 228.667 665 194.5 653.5 169.5 630.5 c 0
 144.5 607.5 132 578.333 132 543 c 0
 132 481 178.333 438.333 271 415 c 1
 364.333 438.333 411 481 411 543 c 0xd8
493 193 m 0xc4
 493 129 473 78.8333 433 42.5 c 0
 393 6.16667 339 -12 271 -12 c 0
 203.667 -12 150 6 110 42 c 0
 70 78 50 128.333 50 193 c 0xe4
 50 242.333 64.1667 284.667 92.5 320 c 0
 120.833 355.334 157.333 377.667 202 387 c 1
 164.667 398.334 133.667 418.167 109 446.5 c 0
 84.3333 474.834 72 505.667 72 539 c 0
 72 592.333 90.6667 636 128 670 c 0
 165.333 704 213.333 721 272 721 c 0
 330 721 377.667 703.833 415 669.5 c 0
 452.333 635.167 471 591.667 471 539 c 0xd8
 471 505.667 458.667 474.667 434 446 c 0
 409.333 417.333 378.333 397.666 341 387 c 1
 385 377.667 421.333 355.333 450 320 c 0
 478.667 284.667 493 242.333 493 193 c 0xc4
EndSplineSet
Fore
SplineSet
272 36 m 3xe4
 363 36 433 96 433 187 c 3
 433 278 365 353 271 358 c 1
 177 353 110 279 110 187 c 3
 110 96 180 36 272 36 c 3xe4
272 678 m 3
 192 678 132 623 132 547 c 3
 132 485 178 438 271 415 c 1
 364 438 411 485 411 547 c 3xd8
 411 622 350 678 272 678 c 3
341 387 m 1
 426 369 493 293 493 192 c 3
 493 61 403 -14 271 -14 c 3
 139 -14 50 61 50 192 c 3xe4
 50 294 117 369 202 387 c 1
 139 406 72 467 72 543 c 3
 72 653 160 728 272 728 c 3
 383 728 471 652 471 543 c 3
 471 467 404 405 341 387 c 1
EndSplineSet
Validated: 1
Layer: 2
SplineSet
272 36 m 3,0,1
 341 36 341 36 387 78 c 128,-1,2
 433 120 433 120 433 187 c 0,3,4
 433 256 433 256 387 305 c 128,-1,5
 341 354 341 354 271 358 c 1,6,7
 201 354 201 354 155.5 305.5 c 128,-1,8
 110 257 110 257 110 187 c 0,9,10
 110 120 110 120 156 78 c 128,-1,11
 202 36 202 36 272 36 c 3,0,1
272 678 m 3,12,13
 212 678 212 678 172 641 c 128,-1,14
 132 604 132 604 132 547 c 0,15,16
 132 449 132 449 271 415 c 1,17,18
 411 450 411 450 411 547 c 0,19,20
 411 603 411 603 371 640.5 c 128,-1,21
 331 678 331 678 272 678 c 3,12,13
341 387 m 1,22,23
 406 373 406 373 449.5 319.5 c 128,-1,24
 493 266 493 266 493 192 c 0,25,26
 493 95 493 95 432.5 40.5 c 128,-1,27
 372 -14 372 -14 271 -14 c 128,-1,28
 170 -14 170 -14 110 40.5 c 128,-1,29
 50 95 50 95 50 192 c 0,30,31
 50 267 50 267 93 320 c 128,-1,32
 136 373 136 373 202 387 c 1,33,34
 151 402 151 402 111.5 445.5 c 128,-1,35
 72 489 72 489 72 543 c 0,36,37
 72 624 72 624 129.5 676 c 128,-1,38
 187 728 187 728 272 728 c 0,39,40
 356 728 356 728 413.5 676 c 128,-1,41
 471 624 471 624 471 543 c 0,42,43
 471 489 471 489 431.5 445.5 c 128,-1,44
 392 402 392 402 341 387 c 1,22,23
EndSplineSet
EndChar

StartChar: nine
Encoding: 57 57 26
Width: 544
VWidth: 1504
Flags: W
HStem: -14 44<104.364 153.009> 266 50<194.273 341.397> 678 50<194.802 340.909>
VStem: 57 60<403.117 593.099> 424 60<406.674 584.73>
LayerCount: 3
Back
SplineSet
262 728 m 3
 403 728 484 611 484 464 c 3
 484 213 313 26 105 -14 c 1
 101 30 l 1
 248 72 370 198 412 344 c 1
 400 297 318 266 257 266 c 3
 136 266 57 375 57 497 c 3
 57 625 134 728 262 728 c 3
269 316 m 3
 360 316 424 405 424 498 c 3
 424 591 359 678 269 678 c 3
 172 678 117 595 117 498 c 3
 117 402 174 316 269 316 c 3
484 459 m 0
 484 343.667 448.5 240.667 377.5 150 c 0
 306.5 59.3333 215.667 3.33333 105 -18 c 1
 101 26 l 1
 168.333 45.3333 229.333 80.6667 284 132 c 0
 346 190 388.667 259.333 412 340 c 1
 408 324.667 393.667 308.667 369 292 c 1
 337 272 299.667 262 257 262 c 0
 197.667 262 149.5 284.5 112.5 329.5 c 0
 75.5 374.5 57 428.667 57 492 c 0
 57 557.333 75.3333 612 112 656 c 0
 148.667 700 198.667 722 262 722 c 0
 333.333 722 389.333 695 430 641 c 0
 466 593 484 532.333 484 459 c 0
424 492 m 0
 424 541.333 409 583.5 379 618.5 c 0
 349 653.5 312.333 671 269 671 c 0
 221 671 183.667 653.5 157 618.5 c 0
 130.333 583.5 117 541.333 117 492 c 0
 117 442 130.667 399.333 158 364 c 0
 185.333 328.667 222.333 311 269 311 c 0
 312.333 311 349 328.667 379 364 c 0
 409 399.333 424 442 424 492 c 0
EndSplineSet
Fore
SplineSet
262 728 m 3
 403 728 484 611 484 464 c 3
 484 213 313 26 105 -14 c 1
 101 30 l 1
 248 72 370 198 412 344 c 1
 398 297 318 266 257 266 c 3
 136 266 57 375 57 497 c 3
 57 625 134 728 262 728 c 3
269 316 m 3
 360 316 424 405 424 498 c 3
 424 591 359 678 269 678 c 3
 172 678 117 595 117 498 c 3
 117 402 174 316 269 316 c 3
EndSplineSet
Validated: 1
Layer: 2
SplineSet
262 728 m 3,0,1
 365 728 365 728 424.5 653 c 128,-1,2
 484 578 484 578 484 464 c 0,3,4
 484 281 484 281 375 149 c 128,-1,5
 266 17 266 17 105 -14 c 1,6,-1
 101 30 l 1,7,8
 211 61 211 61 295.5 147.5 c 128,-1,9
 380 234 380 234 412 344 c 1,10,11
 402 311 402 311 354 288.5 c 128,-1,12
 306 266 306 266 257 266 c 0,13,14
 169 266 169 266 113 334 c 128,-1,15
 57 402 57 402 57 497 c 0,16,17
 57 596 57 596 112.5 662 c 128,-1,18
 168 728 168 728 262 728 c 3,0,1
269 316 m 3,19,20
 335 316 335 316 379.5 371 c 128,-1,21
 424 426 424 426 424 498 c 128,-1,22
 424 570 424 570 379.5 624 c 128,-1,23
 335 678 335 678 269 678 c 0,24,25
 199 678 199 678 158 626 c 128,-1,26
 117 574 117 574 117 498 c 0,27,28
 117 423 117 423 158.5 369.5 c 128,-1,29
 200 316 200 316 269 316 c 3,19,20
EndSplineSet
EndChar

StartChar: colon
Encoding: 58 58 27
Width: 243
VWidth: 1504
Flags: W
HStem: -9 104<79.1808 162.097> 375 103<79.1808 162.097>
VStem: 69 104<1.18085 84.0971 385.181 467.458>
LayerCount: 3
Fore
SplineSet
120 95 m 259
 148 95 173 70 173 42 c 259
 173 14 148 -9 120 -9 c 259
 92 -9 69 14 69 42 c 259
 69 70 92 95 120 95 c 259
120 478 m 259
 148 478 173 454 173 426 c 259
 173 398 148 375 120 375 c 259
 92 375 69 398 69 426 c 259
 69 454 92 478 120 478 c 259
EndSplineSet
Validated: 1
Layer: 2
SplineSet
120 95 m 259,0,1
 141 95 141 95 157 79 c 128,-1,2
 173 63 173 63 173 42 c 128,-1,3
 173 21 173 21 157 6 c 128,-1,4
 141 -9 141 -9 120 -9 c 128,-1,5
 99 -9 99 -9 84 6 c 128,-1,6
 69 21 69 21 69 42 c 128,-1,7
 69 63 69 63 84 79 c 128,-1,8
 99 95 99 95 120 95 c 259,0,1
120 478 m 259,9,10
 141 478 141 478 157 462.5 c 128,-1,11
 173 447 173 447 173 426 c 128,-1,12
 173 405 173 405 157 390 c 128,-1,13
 141 375 141 375 120 375 c 128,-1,14
 99 375 99 375 84 390 c 128,-1,15
 69 405 69 405 69 426 c 128,-1,16
 69 447 69 447 84 462.5 c 128,-1,17
 99 478 99 478 120 478 c 259,9,10
EndSplineSet
EndChar

StartChar: semicolon
Encoding: 59 59 28
Width: 243
VWidth: 1504
Flags: W
HStem: 375 103<79.1808 162.097>
VStem: 69 104<385.181 467.458> 74 111<4.76417 89.3858>
LayerCount: 3
Fore
SplineSet
129 102 m 3xa0
 162 102 185 74 185 41 c 3
 185 -45 130 -133 66 -164 c 1
 45 -141 l 1
 97 -106 126 -62 132 -11 c 1
 101 -11 74 15 74 45 c 259
 74 75 99 102 129 102 c 3xa0
120 478 m 259
 148 478 173 454 173 426 c 259
 173 398 148 375 120 375 c 259
 92 375 69 398 69 426 c 259xc0
 69 454 92 478 120 478 c 259
EndSplineSet
Validated: 1
Layer: 2
SplineSet
129 102 m 3,0,1
 153 102 153 102 169 84 c 128,-1,2
 185 66 185 66 185 41 c 0,3,4
 185 -22 185 -22 150 -81 c 128,-1,5
 115 -140 115 -140 66 -164 c 1,6,-1
 45 -141 l 1,7,8
 123 -89 123 -89 132 -11 c 1,9,10
 109 -11 109 -11 91.5 6 c 128,-1,11
 74 23 74 23 74 45 c 0,12,13
 74 68 74 68 90.5 85 c 128,-1,14
 107 102 107 102 129 102 c 3,0,1
120 478 m 259,15,16
 141 478 141 478 157 462.5 c 128,-1,17
 173 447 173 447 173 426 c 128,-1,18
 173 405 173 405 157 390 c 128,-1,19
 141 375 141 375 120 375 c 128,-1,20
 99 375 99 375 84 390 c 128,-1,21
 69 405 69 405 69 426 c 128,-1,22
 69 447 69 447 84 462.5 c 128,-1,23
 99 478 99 478 120 478 c 259,15,16
EndSplineSet
EndChar

StartChar: less
Encoding: 60 60 29
Width: 618
VWidth: 1504
Flags: W
HStem: -3 21G<514.396 551>
DStem2: 66 302 126 281 0.87755 0.479486<42.5838 525.824> 126 281 66 262 0.87755 -0.479486<0 481.802>
LayerCount: 3
Fore
SplineSet
551 54 m 1
 551 -3 l 1
 66 262 l 1
 66 302 l 1
 551 567 l 1
 551 511 l 1
 126 281 l 1
 551 54 l 1
EndSplineSet
Validated: 1
Layer: 2
SplineSet
551 54 m 1,0,-1
 551 -3 l 1,1,-1
 66 262 l 1,2,-1
 66 302 l 1,3,-1
 551 567 l 1,4,-1
 551 511 l 1,5,-1
 126 281 l 1,6,-1
 551 54 l 1,0,-1
EndSplineSet
EndChar

StartChar: equal
Encoding: 61 61 30
Width: 618
VWidth: 1504
Flags: W
HStem: 153 50<83 535> 349 50<83 535>
LayerCount: 3
Fore
SplineSet
535 399 m 1
 535 349 l 1
 83 349 l 1
 83 399 l 1
 535 399 l 1
535 203 m 1
 535 153 l 1
 83 153 l 1
 83 203 l 1
 535 203 l 1
EndSplineSet
Validated: 1
Layer: 2
SplineSet
535 399 m 1,0,-1
 535 349 l 1,1,-1
 83 349 l 1,2,-1
 83 399 l 1,3,-1
 535 399 l 1,0,-1
535 203 m 1,4,-1
 535 153 l 1,5,-1
 83 153 l 1,6,-1
 83 203 l 1,7,-1
 535 203 l 1,4,-1
EndSplineSet
EndChar

StartChar: greater
Encoding: 62 62 31
Width: 618
VWidth: 1504
Flags: W
HStem: -3 21G<66 102.604>
DStem2: 66 567 66 511 0.87755 -0.479486<26.8512 508.255> 66 54 66 -3 0.87755 0.479486<0 481.883>
LayerCount: 3
Fore
SplineSet
551 302 m 1
 551 262 l 1
 66 -3 l 1
 66 54 l 1
 490 283 l 1
 66 511 l 1
 66 567 l 1
 551 302 l 1
EndSplineSet
Validated: 1
Layer: 2
SplineSet
551 302 m 1,0,-1
 551 262 l 1,1,-1
 66 -3 l 1,2,-1
 66 54 l 1,3,-1
 490 283 l 1,4,-1
 66 511 l 1,5,-1
 66 567 l 1,6,-1
 551 302 l 1,0,-1
EndSplineSet
EndChar

StartChar: question
Encoding: 63 63 32
Width: 425
VWidth: 1504
Flags: W
HStem: -14 104<138.181 221.097> 678 50<95.2189 269.17>
VStem: 128 104<-3.81915 79.0971> 146 60<185.682 315.3> 312 60<495.427 636.563>
LayerCount: 3
Back
SplineSet
208 185 m 1
 156 185 l 1
 150.666 200.333 148.332 218 149 238 c 0
 149 291.333 176.333 348.5 231 409.5 c 128
 285.667 470.5 313 522.667 313 566 c 0
 313 638 272 674 190 674 c 0
 142.667 674 102.333 661 69 635 c 1
 47 680 l 1
 95 711.333 146 727 200 727 c 0
 257.333 727 301 710.333 331 677 c 0
 358.333 647.667 372 611.667 372 569 c 0
 372 515.667 340.333 455.333 277 388 c 0
 227.667 336 203 284.333 203 233 c 0
 203 215 204.667 199 208 185 c 1
232 42 m 256
 232 28 226.667 16 216 6 c 128
 205.333 -4 193 -9 179 -9 c 256
 165 -9 153 -4 143 6 c 128
 133 16 128 28 128 42 c 256
 128 56 133 68.3333 143 79 c 128
 153 89.6667 165 95 179 95 c 256
 193 95 205.333 89.6667 216 79 c 128
 226.667 68.3333 232 56 232 42 c 256
EndSplineSet
Fore
SplineSet
200 728 m 3xd8
 300 728 372 667 372 570 c 3
 372 517 343 455 280 388 c 0
 231 336 206 284 206 233 c 3
 206 215 208 199 211 185 c 1
 153 185 l 1
 148 200 146 218 146 238 c 3
 146 291 173 349 228 410 c 0
 283 471 312 524 312 567 c 3
 312 633 272 678 190 678 c 3
 143 678 102 665 69 639 c 1
 47 681 l 1
 95 712 146 728 200 728 c 3xd8
179 90 m 259
 207 90 232 65 232 37 c 259
 232 9 207 -14 179 -14 c 259
 151 -14 128 9 128 37 c 259xe8
 128 65 151 90 179 90 c 259
EndSplineSet
Validated: 1
Layer: 2
SplineSet
200 728 m 3,0,1
 276 728 276 728 324 685 c 128,-1,2
 372 642 372 642 372 570 c 0,3,4
 372 486 372 486 280 388 c 0,5,6
 206 309 206 309 206 233 c 0,7,8
 206 208 206 208 211 185 c 1,9,-1
 153 185 l 1,10,11
 146 206 146 206 146 238 c 0,12,13
 146 319 146 319 228 410 c 0,14,15
 312 503 312 503 312 567 c 0,16,17
 312 618 312 618 281 648 c 128,-1,18
 250 678 250 678 190 678 c 0,19,20
 118 678 118 678 69 639 c 1,21,-1
 47 681 l 1,22,23
 120 728 120 728 200 728 c 3,0,1
179 90 m 259,24,25
 200 90 200 90 216 74 c 128,-1,26
 232 58 232 58 232 37 c 128,-1,27
 232 16 232 16 216 1 c 128,-1,28
 200 -14 200 -14 179 -14 c 128,-1,29
 158 -14 158 -14 143 1 c 128,-1,30
 128 16 128 16 128 37 c 128,-1,31
 128 58 128 58 143 74 c 128,-1,32
 158 90 158 90 179 90 c 259,24,25
EndSplineSet
EndChar

StartChar: at
Encoding: 64 64 33
Width: 806
VWidth: 1504
Flags: W
HStem: -149 50<271.498 507.704> 2 50<276.025 433.195> 247 50<340.029 498> 424 50<287.298 455.496> 549 50<303.975 544.015>
VStem: 35 54<86.5958 324.728> 199 54<76.1831 188.775> 498 54<113.931 247 297 379.426> 713 54<169.061 375.957>
LayerCount: 3
Back
SplineSet
767 265 m 0
 767 197 746 138.833 704 90.5 c 128
 662 42.1667 616.333 16.6667 567 14 c 2
 520 11 l 1
 505 78 l 1
 465 26.6667 412 1.33333 346 2 c 0
 334 2 324.333 2.33333 317 3 c 0
 285 8.33333 257.833 22.5 235.5 45.5 c 128
 213.167 68.5 202 95 202 125 c 0
 202 237 302 293 502 293 c 1
 502 301 l 2
 502 386.333 461.667 429 381 429 c 0
 337 429 299.333 417 268 393 c 1
 251 430 l 1
 290.334 459.333 334.667 474 384 474 c 0
 498 474 555 410.333 555 283 c 2
 555 122 l 2
 555 100 557 79.3333 561 60 c 1
 600.333 62 636 82.6667 668 122 c 128
 700 161.333 716 207.333 716 260 c 0
 716 343.333 690 412.333 638 467 c 128
 586 521.667 515.333 549 426 549 c 0
 332 549 253.667 518 191 456 c 0
 125 390 92 304.667 92 200 c 0
 92 114 119.5 42.6667 174.5 -14 c 128
 229.5 -70.6667 297.667 -99 379 -99 c 0
 448.333 -99 507 -84 555 -54 c 1
 576 -98 l 1
 516 -130 449 -146 375 -146 c 0
 281 -146 200.833 -113.833 134.5 -49.5 c 128
 68.1667 14.8333 35 96.6667 35 196 c 0
 35 305.333 70 397.333 140 472 c 0
 214 552 311.667 592.333 433 593 c 0
 533 593 613.667 561.833 675 499.5 c 128
 736.333 437.167 767 359 767 265 c 0
502 158 m 2
 502 250 l 1
 338.667 248 257 209.333 257 134 c 0
 257 74 287.667 44 349 44 c 0
 421 44 471 75.3333 499 138 c 0
 501 142 502 148.667 502 158 c 2
EndSplineSet
Fore
SplineSet
767 265 m 3
 767 143 674 21 564 14 c 2
 517 11 l 1
 502 78 l 1
 462 27 409 2 343 2 c 3
 267 2 199 51 199 125 c 3
 199 240 298 297 498 297 c 1
 498 378 462 424 378 424 c 3
 334 424 296 412 265 388 c 1
 248 430 l 1
 287 459 332 474 381 474 c 3
 495 474 552 410 552 283 c 2
 552 122 l 2
 552 100 554 79 558 60 c 1
 644 64 713 165 713 260 c 3
 713 430 599 549 426 549 c 3
 229 549 89 398 89 200 c 3
 89 32 214 -99 379 -99 c 3
 448 -99 507 -84 555 -54 c 1
 576 -98 l 1
 516 -130 449 -149 375 -149 c 3
 183 -149 35 2 35 196 c 3
 35 424 205 599 433 599 c 3
 628 599 767 457 767 265 c 3
498 166 m 2
 498 247 l 1
 335 245 253 206 253 135 c 3
 253 82 284 52 345 52 c 3
 417 52 467 83 495 146 c 0
 497 150 498 157 498 166 c 2
EndSplineSet
Validated: 1
Layer: 2
SplineSet
767 265 m 3,0,1
 767 172 767 172 706 95.5 c 128,-1,2
 645 19 645 19 564 14 c 2,3,-1
 517 11 l 1,4,-1
 502 78 l 1,5,6
 442 2 442 2 343 2 c 0,7,8
 284 2 284 2 241.5 36.5 c 128,-1,9
 199 71 199 71 199 125 c 0,10,11
 199 297 199 297 498 297 c 1,12,13
 498 424 498 424 378 424 c 0,14,15
 312 424 312 424 265 388 c 1,16,-1
 248 430 l 1,17,18
 307 474 307 474 381 474 c 0,19,20
 552 474 552 474 552 283 c 2,21,-1
 552 122 l 2,22,23
 552 88 552 88 558 60 c 1,24,25
 621 63 621 63 667 125 c 128,-1,26
 713 187 713 187 713 260 c 0,27,28
 713 388 713 388 634 468.5 c 128,-1,29
 555 549 555 549 426 549 c 0,30,31
 279 549 279 549 184 449.5 c 128,-1,32
 89 350 89 350 89 200 c 0,33,34
 89 74 89 74 172.5 -12.5 c 128,-1,35
 256 -99 256 -99 379 -99 c 0,36,37
 483 -99 483 -99 555 -54 c 1,38,-1
 576 -98 l 1,39,40
 480 -149 480 -149 375 -149 c 0,41,42
 231 -149 231 -149 133 -49.5 c 128,-1,43
 35 50 35 50 35 196 c 0,44,45
 35 368 35 368 148.5 483.5 c 128,-1,46
 262 599 262 599 433 599 c 0,47,48
 579 599 579 599 673 504.5 c 128,-1,49
 767 410 767 410 767 265 c 3,0,1
498 166 m 2,50,-1
 498 247 l 1,51,52
 253 244 253 244 253 135 c 0,53,54
 253 52 253 52 345 52 c 0,55,56
 453 52 453 52 495 146 c 0,57,58
 498 152 498 152 498 166 c 2,50,-1
EndSplineSet
EndChar

StartChar: A
Encoding: 65 65 34
Width: 601
VWidth: 1504
Flags: W
HStem: 0 21G<0 72.0435 529.783 602> 230 50<164 436> 708 20G<263.555 338.445>
DStem2: 0 0 65 0 0.348865 0.937173<22.6762 266.484 319.622 319.622>
LayerCount: 3
Fore
SplineSet
602 0 m 1
 537 0 l 1
 454 230 l 1
 146 230 l 1
 65 0 l 1
 0 0 l 1
 271 728 l 1
 331 728 l 1
 602 0 l 1
436 280 m 1
 301 662 l 1
 164 280 l 1
 436 280 l 1
EndSplineSet
Validated: 1
Layer: 2
SplineSet
602 0 m 1,0,-1
 537 0 l 1,1,-1
 454 230 l 1,2,-1
 146 230 l 1,3,-1
 65 0 l 1,4,-1
 0 0 l 1,5,-1
 271 728 l 1,6,-1
 331 728 l 1,7,-1
 602 0 l 1,0,-1
436 280 m 1,8,-1
 301 662 l 1,9,-1
 164 280 l 1,10,-1
 436 280 l 1,8,-1
EndSplineSet
EndChar

StartChar: B
Encoding: 66 66 35
Width: 568
VWidth: 1504
Flags: W
HStem: -14 50<142.148 356.906> 354 50<141 354.541> 678 50<142.205 357.78>
VStem: 81 60<40.8538 354 404 672.276> 432 60<471.853 617.462> 460 60<120.959 275.925>
LayerCount: 3
Back
SplineSet
520 200 m 0xf4
 520 60.6667 419.333 -8.99999 218 -9 c 0
 174 -9 128.333 -4 81 6 c 1
 81 705 l 1
 131 718.333 181.333 725 232 725 c 0
 405.333 725 492 665 492 545 c 0xf8
 492 509 481.167 476.167 459.5 446.5 c 0
 437.833 416.833 409 395.333 373 382 c 1
 409 372.667 442.5 352.333 473.5 321 c 0
 504.5 289.667 520 249.333 520 200 c 0xf4
433 543 m 0
 433 631 366 675 232 675 c 0
 200.667 675 170 671.667 140 665 c 1
 140 403 l 1
 262 403 l 2
 315.333 403 358 417 390 445 c 0
 418.667 471 433 503.667 433 543 c 0
463 199 m 0xf4
 463 252.333 442.167 291.667 400.5 317 c 0
 358.833 342.333 306.666 355 244 355 c 2
 140 355 l 1
 140 48 l 1
 167.333 42 197.333 39 230 39 c 0
 294 39 346.667 50.6667 388 74 c 0
 438 102 463 143.667 463 199 c 0xf4
EndSplineSet
Fore
SplineSet
492 547 m 3xf8
 492 466 436 405 373 382 c 1
 447 363 520 294 520 198 c 3xf4
 520 59 419 -14 218 -14 c 3
 174 -14 128 -10 81 0 c 1
 81 708 l 1
 131 721 181 728 232 728 c 3
 405 728 492 667 492 547 c 3xf8
262 404 m 2
 355 404 432 455 432 545 c 3xf8
 432 633 366 678 232 678 c 3
 201 678 171 675 141 668 c 1
 141 404 l 1
 262 404 l 2
230 36 m 3
 353 36 460 84 460 197 c 3xf4
 460 309 360 354 244 354 c 2
 141 354 l 1
 141 45 l 1
 168 39 197 36 230 36 c 3
EndSplineSet
Validated: 1
Layer: 2
SplineSet
492 547 m 3,0,1
 492 489 492 489 457.5 444.5 c 128,-1,2
 423 400 423 400 373 382 c 1,3,4
 433 367 433 367 476.5 316.5 c 128,-1,5
 520 266 520 266 520 198 c 0,6,7
 520 -14 520 -14 218 -14 c 0,8,9
 147 -14 147 -14 81 0 c 1,10,-1
 81 708 l 1,11,12
 158 728 158 728 232 728 c 0,13,14
 492 728 492 728 492 547 c 3,0,1
262 404 m 2,15,16
 335 404 335 404 383.5 442 c 128,-1,17
 432 480 432 480 432 545 c 0,18,19
 432 678 432 678 232 678 c 0,20,21
 184 678 184 678 141 668 c 1,22,-1
 141 404 l 1,23,-1
 262 404 l 2,15,16
230 36 m 3,24,25
 330 36 330 36 395 76.5 c 128,-1,26
 460 117 460 117 460 197 c 0,27,28
 460 276 460 276 399 315 c 128,-1,29
 338 354 338 354 244 354 c 2,30,-1
 141 354 l 1,31,-1
 141 45 l 1,32,33
 182 36 182 36 230 36 c 3,24,25
EndSplineSet
EndChar

StartChar: C
Encoding: 67 67 36
Width: 610
VWidth: 1504
Flags: W
HStem: -14 50<276.626 502.623> 678 50<276.626 502.623>
VStem: 35 60<233.788 479.636>
LayerCount: 3
Back
SplineSet
552 75 m 1
 570 27 l 1
 516.666 1.66667 451.666 -11 375 -11 c 0
 277.667 -11 196.667 24 132 94 c 0
 67.3333 164 35 252.667 35 360 c 256
 35 467.334 67.3333 555.334 132 624 c 0
 196.667 692.667 277.667 727 375 727 c 0
 452.334 727 517.334 714.333 570 689 c 1
 552 641 l 1
 498 664.333 440 675.667 378 675 c 0
 300.667 675 235 646.667 181 590 c 0
 123.667 530 95 452.667 95 358 c 256
 95 264 123.667 186.667 181 126 c 0
 235 68.6666 300.667 40.3333 378 41 c 0
 440 40.3333 498 51.6667 552 75 c 1
EndSplineSet
Fore
SplineSet
552 76 m 1
 570 24 l 1
 517 -1 452 -14 375 -14 c 3
 174 -14 35 155 35 360 c 259
 35 565 174 728 375 728 c 3
 452 728 517 715 570 690 c 1
 552 638 l 1
 498 661 440 678 378 678 c 3
 210 678 95 530 95 358 c 259
 95 187 210 36 378 36 c 3
 440 36 498 53 552 76 c 1
EndSplineSet
Validated: 1
Layer: 2
SplineSet
552 76 m 1,0,-1
 570 24 l 1,1,2
 489 -14 489 -14 375 -14 c 0,3,4
 227 -14 227 -14 131 94.5 c 128,-1,5
 35 203 35 203 35 360 c 0,6,7
 35 516 35 516 130.5 622 c 128,-1,8
 226 728 226 728 375 728 c 0,9,10
 489 728 489 728 570 690 c 1,11,-1
 552 638 l 1,12,13
 458 678 458 678 378 678 c 0,14,15
 255 678 255 678 175 584 c 128,-1,16
 95 490 95 490 95 358 c 128,-1,17
 95 226 95 226 175 131 c 128,-1,18
 255 36 255 36 378 36 c 0,19,20
 458 36 458 36 552 76 c 1,0,-1
EndSplineSet
EndChar

StartChar: D
Encoding: 68 68 37
Width: 648
VWidth: 1504
Flags: W
HStem: -14 50<142.236 387.824> 678 50<143.23 395.133>
VStem: 81 60<42.6467 668.481> 545 60<225.361 505.568>
LayerCount: 3
Back
SplineSet
605 373 m 0
 605 120.333 491.667 -6 265 -6 c 0
 235 -6 173.667 -1.33333 81 8 c 1
 81 705 l 1
 173 717 244.333 723.333 295 724 c 0
 386.333 724 460.333 693.333 517 632 c 1
 575.667 567.333 605 481 605 373 c 0
546 373 m 0
 546 468.333 521 543 471 597 c 0
 425 647 364.667 672 290 672 c 0
 258.667 672 208.667 668 140 660 c 1
 140 54 l 1
 190 48 237.667 45 283 45 c 0
 364.333 45 428.5 73.8333 475.5 131.5 c 0
 522.5 189.167 546 269.667 546 373 c 0
EndSplineSet
Fore
SplineSet
605 373 m 3
 605 120 492 -14 265 -14 c 3
 235 -14 174 -9 81 0 c 1
 81 709 l 1
 173 721 244 728 295 728 c 3
 491 728 605 573 605 373 c 3
283 36 m 3
 461 36 545 186 545 373 c 3
 545 544 456 678 290 678 c 3
 259 678 210 674 141 666 c 1
 141 45 l 1
 191 39 238 36 283 36 c 3
EndSplineSet
Validated: 1
Layer: 2
SplineSet
605 373 m 3,0,1
 605 182 605 182 519.5 84 c 128,-1,2
 434 -14 434 -14 265 -14 c 0,3,4
 226 -14 226 -14 81 0 c 1,5,-1
 81 709 l 1,6,7
 227 728 227 728 295 728 c 0,8,9
 438 728 438 728 521.5 627.5 c 128,-1,10
 605 527 605 527 605 373 c 3,0,1
283 36 m 3,11,12
 411 36 411 36 478 130.5 c 128,-1,13
 545 225 545 225 545 373 c 0,14,15
 545 506 545 506 477.5 592 c 128,-1,16
 410 678 410 678 290 678 c 0,17,18
 244 678 244 678 141 666 c 1,19,-1
 141 45 l 1,20,21
 216 36 216 36 283 36 c 3,11,12
EndSplineSet
EndChar

StartChar: E
Encoding: 69 69 38
Width: 527
VWidth: 1504
Flags: W
HStem: 0 50<141 471> 353 50<141 435> 666 50<141 471>
VStem: 81 60<50 353 403 666>
LayerCount: 3
Back
SplineSet
471 0 m 1
 81 0 l 1
 81 716 l 1
 471 716 l 1
 471 666 l 1
 140 666 l 5
 140 403 l 5
 435 403 l 1
 435 353 l 1
 140 353 l 5
 140 50 l 5
 471 50 l 1
 471 0 l 1
EndSplineSet
Fore
SplineSet
471 0 m 1
 81 0 l 1
 81 716 l 1
 471 716 l 1
 471 666 l 1
 141 666 l 1
 141 403 l 1
 435 403 l 1
 435 353 l 1
 141 353 l 1
 141 50 l 1
 471 50 l 1
 471 0 l 1
EndSplineSet
Validated: 1
Layer: 2
SplineSet
471 0 m 1,0,-1
 81 0 l 1,1,-1
 81 716 l 1,2,-1
 471 716 l 1,3,-1
 471 666 l 1,4,-1
 141 666 l 1,5,-1
 141 403 l 1,6,-1
 435 403 l 1,7,-1
 435 353 l 1,8,-1
 141 353 l 1,9,-1
 141 50 l 1,10,-1
 471 50 l 1,11,-1
 471 0 l 1,0,-1
EndSplineSet
EndChar

StartChar: F
Encoding: 70 70 39
Width: 527
VWidth: 1504
Flags: W
HStem: 0 21G<81 141> 344 50<141 463> 666 50<141 486>
VStem: 81 60<0 344 394 666>
LayerCount: 3
Back
SplineSet
463 344 m 1
 140 344 l 1
 140 0 l 1
 81 0 l 1
 81 716 l 1
 486 716 l 1
 486 666 l 1
 140 666 l 1
 140 394 l 1
 463 394 l 1
 463 344 l 1
EndSplineSet
Fore
SplineSet
463 344 m 1
 141 344 l 1
 141 0 l 1
 81 0 l 1
 81 716 l 1
 486 716 l 1
 486 666 l 1
 141 666 l 1
 141 394 l 1
 463 394 l 1
 463 344 l 1
EndSplineSet
Validated: 1
Layer: 2
SplineSet
463 344 m 1,0,-1
 141 344 l 1,1,-1
 141 0 l 1,2,-1
 81 0 l 1,3,-1
 81 716 l 1,4,-1
 486 716 l 1,5,-1
 486 666 l 1,6,-1
 141 666 l 1,7,-1
 141 394 l 1,8,-1
 463 394 l 1,9,-1
 463 344 l 1,0,-1
EndSplineSet
EndChar

StartChar: G
Encoding: 71 71 40
Width: 639
VWidth: 1504
Flags: W
HStem: -14 50<245.162 479.26> 309 50<337 516> 678 50<263.695 497.86>
VStem: 35 60<212.978 487.603> 516 60<64.2324 309>
LayerCount: 3
Back
SplineSet
576 358 m 1
 576 15 l 1
 568 21 557.667 24 545 24 c 1
 456 8 l 0
 396.667 -2.66667 357 -8 337 -8 c 0
 245.667 -8 172.5 25.5 117.5 92.5 c 0
 62.5 159.5 35 248.667 35 360 c 0
 35 466 63.3333 552 120 618 c 1
 179.333 688 260.333 723.333 363 724 c 0
 436.333 724 500.333 711.667 555 687 c 1
 537 639 l 1
 477 662.333 418 674 360 674 c 0
 284.667 674 221.667 644.333 171 585 c 0
 120.333 525.666 95 450 95 358 c 0
 95 260 116.833 182.667 160.5 126 c 0
 204.167 69.3333 266 41 346 41 c 0
 409.333 41 467 53.3333 519 78 c 1
 519 310 l 1
 337 310 l 1
 337 358 l 1
 576 358 l 1
EndSplineSet
Fore
SplineSet
337 -14 m 3
 141 -14 35 156 35 360 c 3
 35 569 158 728 363 728 c 3
 436 728 500 716 555 691 c 1
 537 643 l 1
 477 666 418 678 360 678 c 3
 198 678 95 527 95 358 c 3
 95 178 174 36 346 36 c 3
 409 36 464 48 516 73 c 1
 516 309 l 1
 337 309 l 1
 337 359 l 1
 576 359 l 1
 576 9 l 1
 568 15 558 18 545 18 c 1
 456 2 l 2
 397 -9 357 -14 337 -14 c 3
EndSplineSet
Validated: 1
Layer: 2
SplineSet
337 -14 m 3,0,1
 195 -14 195 -14 115 93 c 128,-1,2
 35 200 35 200 35 360 c 0,3,4
 35 521 35 521 124 624.5 c 128,-1,5
 213 728 213 728 363 728 c 0,6,7
 474 728 474 728 555 691 c 1,8,-1
 537 643 l 1,9,10
 446 678 446 678 360 678 c 0,11,12
 242 678 242 678 168.5 584 c 128,-1,13
 95 490 95 490 95 358 c 0,14,15
 95 215 95 215 158.5 125.5 c 128,-1,16
 222 36 222 36 346 36 c 0,17,18
 439 36 439 36 516 73 c 1,19,-1
 516 309 l 1,20,-1
 337 309 l 1,21,-1
 337 359 l 1,22,-1
 576 359 l 1,23,-1
 576 9 l 1,24,25
 564 18 564 18 545 18 c 2,26,-1
 456 2 l 2,27,28
 370 -14 370 -14 337 -14 c 3,0,1
EndSplineSet
EndChar

StartChar: H
Encoding: 72 72 41
Width: 663
VWidth: 1504
Flags: W
HStem: 0 21G<81 141 522 582> 356 50<141 522> 696 20G<81 141 522 582>
VStem: 81 60<0 356 406 716> 522 60<0 356 406 716>
LayerCount: 3
Back
SplineSet
582 0 m 1
 523 0 l 1
 523 356 l 1
 140 356 l 1
 140 0 l 1
 81 0 l 1
 81 716 l 1
 140 716 l 1
 140 406 l 1
 523 406 l 1
 523 716 l 1
 582 716 l 1
 582 0 l 1
EndSplineSet
Fore
SplineSet
582 0 m 1
 522 0 l 1
 522 356 l 1
 141 356 l 1
 141 0 l 1
 81 0 l 1
 81 716 l 1
 141 716 l 1
 141 406 l 1
 522 406 l 1
 522 716 l 1
 582 716 l 1
 582 0 l 1
EndSplineSet
Validated: 1
Layer: 2
SplineSet
582 0 m 1,0,-1
 522 0 l 1,1,-1
 522 356 l 1,2,-1
 141 356 l 1,3,-1
 141 0 l 1,4,-1
 81 0 l 1,5,-1
 81 716 l 1,6,-1
 141 716 l 1,7,-1
 141 406 l 1,8,-1
 522 406 l 1,9,-1
 522 716 l 1,10,-1
 582 716 l 1,11,-1
 582 0 l 1,0,-1
EndSplineSet
EndChar

StartChar: I
Encoding: 73 73 42
Width: 221
VWidth: 1504
Flags: W
HStem: 0 21G<81 141> 696 20G<81 141>
VStem: 81 60<0 716>
LayerCount: 3
Back
SplineSet
140 0 m 5
 81 0 l 1
 81 716 l 1
 140 716 l 5
 140 0 l 5
EndSplineSet
Fore
SplineSet
141 0 m 1
 81 0 l 1
 81 716 l 1
 141 716 l 1
 141 0 l 1
EndSplineSet
Validated: 1
Layer: 2
SplineSet
141 0 m 1,0,-1
 81 0 l 1,1,-1
 81 716 l 1,2,-1
 141 716 l 1,3,-1
 141 0 l 1,0,-1
EndSplineSet
EndChar

StartChar: J
Encoding: 74 74 43
Width: 397
VWidth: 1504
Flags: W
HStem: -14 50<8.04783 193.046> 696 20G<256 316>
VStem: 256 60<109.542 716>
LayerCount: 3
Back
SplineSet
316 235 m 2
 316 69.6667 245.667 -13.3333 105 -14 c 4
 65.6667 -14 30 -6.33333 -2 9 c 1
 14 56 l 1
 37.3333 44 67.6667 38 105 38 c 0
 157 38 195.333 53.1667 220 83.5 c 0
 244.667 113.833 257 169.333 257 250 c 2
 257 716 l 1
 316 716 l 1
 316 235 l 2
EndSplineSet
Fore
SplineSet
316 235 m 2
 316 70 246 -14 105 -14 c 3
 66 -14 30 -6 -2 9 c 1
 14 54 l 1
 37 42 68 36 105 36 c 3
 226 36 256 110 256 250 c 2
 256 716 l 1
 316 716 l 1
 316 235 l 2
EndSplineSet
Validated: 1
Layer: 2
SplineSet
316 235 m 2,0,1
 316 -14 316 -14 105 -14 c 0,2,3
 47 -14 47 -14 -2 9 c 1,4,-1
 14 54 l 1,5,6
 48 36 48 36 105 36 c 0,7,8
 192 36 192 36 224 87 c 128,-1,9
 256 138 256 138 256 250 c 2,10,-1
 256 716 l 1,11,-1
 316 716 l 1,12,-1
 316 235 l 2,0,1
EndSplineSet
EndChar

StartChar: K
Encoding: 75 75 44
Width: 565
VWidth: 1504
Flags: W
HStem: 0 7G<81 141 518.618 583.182> 696 20G<81 141 477 556>
VStem: 81 60<0 296 372 716>
DStem2: 141 372 141 296 0.709667 0.704537<0 55.3489 110.508 503.457> 258 411 218 373 0.633551 -0.773701<4.05857 504.316>
LayerCount: 3
Back
SplineSet
587 14 m 1
 534 -8 l 1
 217 373 l 1
 140 296 l 1
 140 0 l 1
 81 0 l 1
 81 716 l 1
 140 716 l 1
 140 372 l 1
 496 725 l 1
 555 708 l 1
 257 411 l 1
 587 14 l 1
EndSplineSet
Fore
SplineSet
588 8 m 1
 535 -14 l 1
 218 373 l 1
 141 296 l 1
 141 0 l 1
 81 0 l 1
 81 716 l 1
 141 716 l 1
 141 372 l 1
 497 728 l 1
 556 708 l 1
 258 411 l 1
 588 8 l 1
EndSplineSet
Validated: 1
Layer: 2
SplineSet
588 8 m 1,0,-1
 535 -14 l 1,1,-1
 218 373 l 1,2,-1
 141 296 l 1,3,-1
 141 0 l 1,4,-1
 81 0 l 1,5,-1
 81 716 l 1,6,-1
 141 716 l 1,7,-1
 141 372 l 1,8,-1
 497 728 l 1,9,-1
 556 708 l 1,10,-1
 258 411 l 1,11,-1
 588 8 l 1,0,-1
EndSplineSet
EndChar

StartChar: L
Encoding: 76 76 45
Width: 530
VWidth: 1504
Flags: W
HStem: 0 50<141 492> 696 20G<81 141>
VStem: 81 60<50 716>
LayerCount: 3
Back
SplineSet
492 0 m 1
 81 0 l 1
 81 716 l 1
 140 716 l 1
 140 50 l 1
 492 50 l 1
 492 0 l 1
EndSplineSet
Fore
SplineSet
492 0 m 1
 81 0 l 1
 81 716 l 1
 141 716 l 1
 141 50 l 1
 492 50 l 1
 492 0 l 1
EndSplineSet
Validated: 1
Layer: 2
SplineSet
492 0 m 1,0,-1
 81 0 l 1,1,-1
 81 716 l 1,2,-1
 141 716 l 1,3,-1
 141 50 l 1,4,-1
 492 50 l 1,5,-1
 492 0 l 1,0,-1
EndSplineSet
EndChar

StartChar: M
Encoding: 77 77 46
Width: 824
VWidth: 1504
Flags: W
HStem: 0 21G<60 117.424 385.658 439.31 706.576 764> 696 20G<108.603 186.259 637.741 715.397>
DStem2: 60 0 116 0 0.0696627 0.997571<3.90111 637.501> 179 716 161 632 0.341155 -0.940007<72.8198 682.974> 412 74 432 0 0.341155 0.940007<0 610.154> 714 716 663 632 0.0696627 -0.997571<80.2431 713.843>
LayerCount: 3
Fore
SplineSet
764 0 m 1
 708 0 l 1
 663 632 l 1
 432 0 l 1
 393 0 l 1
 161 632 l 1
 116 0 l 1
 60 0 l 1
 110 716 l 1
 179 716 l 1
 412 74 l 1
 645 716 l 1
 714 716 l 1
 764 0 l 1
EndSplineSet
Validated: 1
Layer: 2
SplineSet
764 0 m 1,0,-1
 708 0 l 1,1,-1
 663 632 l 1,2,-1
 432 0 l 1,3,-1
 393 0 l 1,4,-1
 161 632 l 1,5,-1
 116 0 l 1,6,-1
 60 0 l 1,7,-1
 110 716 l 1,8,-1
 179 716 l 1,9,-1
 412 74 l 1,10,-1
 645 716 l 1,11,-1
 714 716 l 1,12,-1
 764 0 l 1,0,-1
EndSplineSet
EndChar

StartChar: N
Encoding: 78 78 47
Width: 663
VWidth: 1504
Flags: W
HStem: 0 21G<81 141 508.025 582> 696 20G<81 161.052 522 582>
VStem: 81 60<0 633> 522 60<97 716>
DStem2: 149 716 141 633 0.513698 -0.857971<67.102 722.693>
LayerCount: 3
Back
SplineSet
582 0 m 1
 520 0 l 1
 141 633 l 1
 141 0 l 1
 81 0 l 1
 81 716 l 1
 149 716 l 1
 525 92 l 1
 525 716 l 1
 582 716 l 1
 582 0 l 1
EndSplineSet
Fore
SplineSet
582 0 m 1
 520 0 l 1
 141 633 l 1
 141 0 l 1
 81 0 l 1
 81 716 l 1
 149 716 l 1
 522 97 l 1
 522 716 l 1
 582 716 l 1
 582 0 l 1
EndSplineSet
Validated: 1
Layer: 2
SplineSet
582 0 m 1,0,-1
 520 0 l 1,1,-1
 141 633 l 1,2,-1
 141 0 l 1,3,-1
 81 0 l 1,4,-1
 81 716 l 1,5,-1
 149 716 l 1,6,-1
 522 97 l 1,7,-1
 522 716 l 1,8,-1
 582 716 l 1,9,-1
 582 0 l 1,0,-1
EndSplineSet
EndChar

StartChar: O
Encoding: 79 79 48
Width: 731
VWidth: 1504
Flags: W
HStem: -14 50<267.238 464.261> 678 50<267.238 464.261>
VStem: 33 60<228.075 484.007> 638 60<232.59 483.992>
LayerCount: 3
Back
SplineSet
698 356 m 256
 698 248.667 667.167 160 605.5 90 c 0
 543.833 20 464 -15 366 -15 c 256
 268 -15 188 20.1667 126 90.5 c 0
 64 160.833 33 249.333 33 356 c 256
 33 463.333 63.8333 552.167 125.5 622.5 c 0
 187.167 692.833 267.333 728 366 728 c 256
 464 728 543.834 692.833 605.5 622.5 c 0
 667.167 552.167 698 463.333 698 356 c 256
639 356 m 256
 639 444 613.5 519.5 562.5 582.5 c 0
 511.5 645.5 446 677 366 677 c 256
 286 677 220.333 645.667 169 583 c 0
 117.667 520.333 92 444.667 92 356 c 256
 92 268 117.5 192.667 168.5 130 c 0
 219.5 67.3333 285.333 36 366 36 c 256
 446 36 511.5 67.3333 562.5 130 c 0
 613.5 192.667 639 268 639 356 c 256
EndSplineSet
Fore
SplineSet
698 356 m 259
 698 150 568 -14 366 -14 c 259
 164 -14 33 151 33 356 c 259
 33 561 164 728 366 728 c 259
 568 728 698 562 698 356 c 259
638 356 m 259
 638 523 530 678 366 678 c 259
 200 678 93 524 93 356 c 259
 93 187 200 36 366 36 c 259
 530 36 638 189 638 356 c 259
EndSplineSet
Validated: 1
Layer: 2
SplineSet
698 356 m 259,0,1
 698 198 698 198 606.5 92 c 128,-1,2
 515 -14 515 -14 366 -14 c 0,3,4
 218 -14 218 -14 125.5 92.5 c 128,-1,5
 33 199 33 199 33 356 c 128,-1,6
 33 513 33 513 125.5 620.5 c 128,-1,7
 218 728 218 728 366 728 c 128,-1,8
 514 728 514 728 606 621 c 128,-1,9
 698 514 698 514 698 356 c 259,0,1
638 356 m 259,10,11
 638 486 638 486 561.5 582 c 128,-1,12
 485 678 485 678 366 678 c 0,13,14
 245 678 245 678 169 582.5 c 128,-1,15
 93 487 93 487 93 356 c 128,-1,16
 93 225 93 225 169 130.5 c 128,-1,17
 245 36 245 36 366 36 c 0,18,19
 485 36 485 36 561.5 131 c 128,-1,20
 638 226 638 226 638 356 c 259,10,11
EndSplineSet
EndChar

StartChar: P
Encoding: 80 80 49
Width: 568
VWidth: 1504
Flags: W
HStem: 0 21G<81 141> 292 50<142.339 358.002> 678 50<142.153 374.181>
VStem: 81 60<0 301 348.328 674.203> 459 60<431.361 603.056>
LayerCount: 3
Back
SplineSet
519 517 m 0
 519 441.667 489 383.667 429 343 c 0
 377 307.667 311.667 290.667 233 292 c 0
 201 292 170 295 140 301 c 1
 140 0 l 1
 81 0 l 1
 81 708 l 1
 141 718 198.667 723.333 254 724 c 0
 326 724 386.667 707.333 436 674 c 0
 491.333 635.333 519 583 519 517 c 0
463 513 m 256
 463 619 393 672 253 672 c 0
 203 672 165.333 669.667 140 665 c 1
 140 352 l 1
 167.333 344.667 202.333 341 245 341 c 1
 390.333 349.667 463 407 463 513 c 256
EndSplineSet
Fore
SplineSet
254 728 m 3
 396 728 519 652 519 519 c 3
 519 369 391 292 233 292 c 3
 201 292 171 295 141 301 c 1
 141 0 l 1
 81 0 l 1
 81 712 l 1
 141 722 199 728 254 728 c 3
459 515 m 259
 459 621 393 678 253 678 c 3
 203 678 166 676 141 671 c 1
 141 353 l 1
 168 346 202 342 245 342 c 3
 380 342 459 409 459 515 c 259
EndSplineSet
Validated: 1
Layer: 2
SplineSet
254 728 m 3,0,1
 365 728 365 728 442 671.5 c 128,-1,2
 519 615 519 615 519 519 c 0,3,4
 519 411 519 411 438 351.5 c 128,-1,5
 357 292 357 292 233 292 c 0,6,7
 186 292 186 292 141 301 c 1,8,-1
 141 0 l 1,9,-1
 81 0 l 1,10,-1
 81 712 l 1,11,12
 177 728 177 728 254 728 c 3,0,1
459 515 m 259,13,14
 459 678 459 678 253 678 c 0,15,16
 176 678 176 678 141 671 c 1,17,-1
 141 353 l 1,18,19
 183 342 183 342 245 342 c 0,20,21
 346 342 346 342 402.5 388.5 c 128,-1,22
 459 435 459 435 459 515 c 259,13,14
EndSplineSet
EndChar

StartChar: Q
Encoding: 81 81 50
Width: 732
VWidth: 1504
Flags: W
HStem: -100 56<556.389 640.625> -14 50<268.441 417.735> 678 50<267.238 464.261>
VStem: 33 60<228.075 484.007> 638 60<228.917 483.992>
LayerCount: 3
Back
SplineSet
698 356 m 0
 698 270 677 194.333 635 129 c 0
 591 61 530.667 17.3333 454 -2 c 1
 513.333 -27.3333 581.667 -41.6667 659 -45 c 1
 638 -101 l 1
 538.666 -77.6667 448 -49 366 -15 c 1
 268 -15 188 20.1667 126 90.5 c 0
 64 160.833 33 249.333 33 356 c 256
 33 463.333 63.8333 552.167 125.5 622.5 c 0
 187.167 692.833 267.333 728 366 728 c 256
 464 728 543.834 692.833 605.5 622.5 c 0
 667.167 552.167 698 463.333 698 356 c 0
639 356 m 256
 639 444 613.5 519.5 562.5 582.5 c 0
 511.5 645.5 446 677 366 677 c 256
 286 677 220.333 645.667 169 583 c 0
 117.667 520.333 92 444.667 92 356 c 256
 92 268 117.5 192.667 168.5 130 c 0
 219.5 67.3333 285.333 36 366 36 c 256
 446 36 511.5 67.3333 562.5 130 c 0
 613.5 192.667 639 268 639 356 c 256
EndSplineSet
Fore
SplineSet
698 356 m 3
 698 176 599 35 454 -1 c 1
 513 -26 582 -41 659 -44 c 1
 638 -100 l 1
 539 -77 448 -48 366 -14 c 1
 164 -14 33 151 33 356 c 259
 33 561 164 728 366 728 c 259
 568 728 698 562 698 356 c 3
638 356 m 259
 638 523 530 678 366 678 c 259
 200 678 93 524 93 356 c 259
 93 187 200 36 366 36 c 259
 530 36 638 189 638 356 c 259
EndSplineSet
Validated: 1
Layer: 2
SplineSet
698 356 m 3,0,1
 698 222 698 222 630.5 124 c 128,-1,2
 563 26 563 26 454 -1 c 1,3,4
 545 -40 545 -40 659 -44 c 1,5,-1
 638 -100 l 1,6,7
 491 -66 491 -66 366 -14 c 1,8,9
 218 -14 218 -14 125.5 92.5 c 128,-1,10
 33 199 33 199 33 356 c 128,-1,11
 33 513 33 513 125.5 620.5 c 128,-1,12
 218 728 218 728 366 728 c 128,-1,13
 514 728 514 728 606 621 c 128,-1,14
 698 514 698 514 698 356 c 3,0,1
638 356 m 259,15,16
 638 486 638 486 561.5 582 c 128,-1,17
 485 678 485 678 366 678 c 0,18,19
 245 678 245 678 169 582.5 c 128,-1,20
 93 487 93 487 93 356 c 128,-1,21
 93 225 93 225 169 130.5 c 128,-1,22
 245 36 245 36 366 36 c 0,23,24
 485 36 485 36 561.5 131 c 128,-1,25
 638 226 638 226 638 356 c 259,15,16
EndSplineSet
EndChar

StartChar: R
Encoding: 82 82 51
Width: 570
VWidth: 1504
Flags: W
HStem: 0 21G<81 141 465.5 539> 326 50<141 351.172> 678 50<142.29 381.347>
VStem: 81 60<0 326 376 672.75> 459 60<445.695 608.108> 479 60<0 115.094>
LayerCount: 3
Back
SplineSet
539 0 m 1xf4
 481 0 l 1xf4
 453.667 217.333 386 326 278 326 c 2
 140 326 l 1
 140 0 l 1
 81 0 l 1
 81 707 l 1
 137 718.333 195.667 724 257 724 c 0
 334.333 722.664 395.667 707.331 441 678 c 0
 493 644 519 595 519 531 c 0xf8
 519 441.667 473 380 381 346 c 1
 434.333 316.667 474.333 262.667 501 184 c 0
 514.333 142.667 527 81.3333 539 0 c 1xf4
463 523 m 0xf8
 463 622.333 394.333 672 257 672 c 0
 201.667 672 162.667 668.667 140 662 c 1
 140 373 l 1
 274 373 l 2
 333.333 373 379.667 386.167 413 412.5 c 0
 446.333 438.834 463 475.667 463 523 c 0xf8
EndSplineSet
Fore
SplineSet
257 728 m 3xf4
 401 728 519 668 519 535 c 3xf8
 519 446 473 380 381 346 c 1
 486 288 515 164 539 0 c 1
 479 0 l 1
 452 217 386 326 278 326 c 2
 141 326 l 1
 141 0 l 1
 81 0 l 1
 81 711 l 1
 137 722 196 728 257 728 c 3xf4
274 376 m 2
 382 376 459 424 459 527 c 3
 459 626 394 678 257 678 c 3
 202 678 164 675 141 668 c 1
 141 376 l 1
 274 376 l 2
EndSplineSet
Validated: 1
Layer: 2
SplineSet
257 728 m 3,0,1
 372 728 372 728 445.5 679 c 128,-1,2
 519 630 519 630 519 535 c 0,3,4
 519 397 519 397 381 346 c 1,5,6
 453 306 453 306 485.5 224.5 c 128,-1,7
 518 143 518 143 539 0 c 1,8,-1
 479 0 l 1,9,10
 438 326 438 326 278 326 c 2,11,-1
 141 326 l 1,12,-1
 141 0 l 1,13,-1
 81 0 l 1,14,-1
 81 711 l 1,15,16
 168 728 168 728 257 728 c 3,0,1
274 376 m 2,17,18
 358 376 358 376 408.5 414 c 128,-1,19
 459 452 459 452 459 527 c 0,20,21
 459 678 459 678 257 678 c 0,22,23
 174 678 174 678 141 668 c 1,24,-1
 141 376 l 1,25,-1
 274 376 l 2,17,18
EndSplineSet
EndChar

StartChar: S
Encoding: 83 83 52
Width: 529
VWidth: 1504
Flags: W
HStem: -14 50<127.225 343.607> 678 50<190.76 397.768>
VStem: 65 60<484.587 619.483> 421 60<105.947 262.214>
LayerCount: 3
Back
SplineSet
481 187 m 0
 481 133 461.667 87.6667 423 51 c 1
 379 7.66667 317.333 -14 238 -14 c 0
 160 -14 94.3333 4.33333 41 41 c 1
 65 92 l 1
 114.333 54.6667 174 36 244 36 c 0
 300 36 344 49.3333 376 76 c 0
 408 102.667 424 138 424 182 c 0
 424 222 411.667 254.333 387 279 c 0
 362.333 303.667 321.666 325 265 343 c 0
 131.667 386.334 65 453.667 65 545 c 0
 65 598.333 85.5 642.5 126.5 677.5 c 0
 167.5 712.5 221 730 287 730 c 0
 354.333 730 409 717.333 451 692 c 1
 441.667 674.667 433.333 659 426 645 c 1
 382.667 668.333 336 680 286 680 c 0
 230 680 186.667 665.333 156 636 c 0
 132 612 120 584 120 552 c 0
 120 486 173.333 435 280 399 c 0
 349.333 375 399 348.667 429 320 c 0
 463.667 287.333 481 243 481 187 c 0
EndSplineSet
Fore
SplineSet
481 187 m 3
 481 59 371 -14 238 -14 c 3
 160 -14 94 4 41 41 c 1
 65 92 l 1
 114 55 174 36 244 36 c 3
 345 36 421 86 421 182 c 3
 421 281 354 315 265 343 c 0
 132 386 65 454 65 545 c 3
 65 660 166 728 287 728 c 3
 354 728 409 715 451 690 c 1
 442 673 433 657 426 643 c 1
 383 666 336 678 286 678 c 3
 198 678 125 636 125 552 c 3
 125 486 173 436 280 399 c 0
 394 359 481 318 481 187 c 3
EndSplineSet
Validated: 1
Layer: 2
SplineSet
481 187 m 3,0,1
 481 94 481 94 411.5 40 c 128,-1,2
 342 -14 342 -14 238 -14 c 0,3,4
 120 -14 120 -14 41 41 c 1,5,-1
 65 92 l 1,6,7
 139 36 139 36 244 36 c 0,8,9
 323 36 323 36 372 74 c 128,-1,10
 421 112 421 112 421 182 c 0,11,12
 421 250 421 250 382 284.5 c 128,-1,13
 343 319 343 319 265 343 c 0,14,15
 65 408 65 408 65 545 c 0,16,17
 65 629 65 629 129 678.5 c 128,-1,18
 193 728 193 728 287 728 c 0,19,20
 387 728 387 728 451 690 c 1,21,22
 449 686 449 686 439.5 668.5 c 128,-1,23
 430 651 430 651 426 643 c 1,24,25
 361 678 361 678 286 678 c 0,26,27
 216 678 216 678 170.5 645 c 128,-1,28
 125 612 125 612 125 552 c 0,29,30
 125 453 125 453 280 399 c 0,31,32
 330 381 330 381 360.5 366.5 c 128,-1,33
 391 352 391 352 422 328 c 128,-1,34
 453 304 453 304 467 269 c 128,-1,35
 481 234 481 234 481 187 c 3,0,1
EndSplineSet
EndChar

StartChar: T
Encoding: 84 84 53
Width: 570
VWidth: 1504
Flags: W
HStem: 0 21G<255 315> 666 50<-8 255 315 578>
VStem: 255 60<0 666>
LayerCount: 3
Back
SplineSet
578 666 m 1
 314 666 l 5
 314 0 l 5
 257 0 l 1
 257 666 l 1
 -8 666 l 1
 -8 716 l 1
 578 716 l 1
 578 666 l 1
EndSplineSet
Fore
SplineSet
578 666 m 1
 315 666 l 1
 315 0 l 1
 255 0 l 1
 255 666 l 1
 -8 666 l 1
 -8 716 l 1
 578 716 l 1
 578 666 l 1
EndSplineSet
Validated: 1
Layer: 2
SplineSet
578 666 m 1,0,-1
 315 666 l 1,1,-1
 315 0 l 1,2,-1
 255 0 l 1,3,-1
 255 666 l 1,4,-1
 -8 666 l 1,5,-1
 -8 716 l 1,6,-1
 578 716 l 1,7,-1
 578 666 l 1,0,-1
EndSplineSet
EndChar

StartChar: U
Encoding: 85 85 54
Width: 700
VWidth: 1504
Flags: W
HStem: -14 50<251.183 448.817> 696 20G<81 141 559 619>
VStem: 81 60<164.386 716> 559 60<164.386 716>
LayerCount: 3
Back
SplineSet
620 302 m 2
 620 91.3333 530 -14 350 -14 c 256
 170.667 -14 81 91.3333 81 302 c 2
 81 716 l 1
 140 716 l 1
 140 304 l 2
 140 210 159.333 141.833 198 99.5 c 0
 236.667 57.1667 287.333 36 350 36 c 0
 414 36 465.5 57 504.5 99 c 0
 543.5 141 562.333 209.333 561 304 c 1
 561 716 l 1
 620 716 l 1
 620 302 l 2
EndSplineSet
Fore
SplineSet
619 302 m 2
 619 91 529 -14 350 -14 c 259
 171 -14 81 91 81 302 c 2
 81 716 l 1
 141 716 l 1
 141 304 l 2
 141 142 203 36 350 36 c 3
 497 36 559 142 559 304 c 2
 559 716 l 1
 619 716 l 1
 619 302 l 2
EndSplineSet
Validated: 1
Layer: 2
SplineSet
619 302 m 2,0,1
 619 -14 619 -14 350 -14 c 128,-1,2
 81 -14 81 -14 81 302 c 2,3,-1
 81 716 l 1,4,-1
 141 716 l 1,5,-1
 141 304 l 2,6,7
 141 177 141 177 192 106.5 c 128,-1,8
 243 36 243 36 350 36 c 128,-1,9
 457 36 457 36 508 106.5 c 128,-1,10
 559 177 559 177 559 304 c 2,11,-1
 559 716 l 1,12,-1
 619 716 l 1,13,-1
 619 302 l 2,0,1
EndSplineSet
EndChar

StartChar: V
Encoding: 86 86 55
Width: 586
VWidth: 1504
Flags: W
HStem: 0 21G<254.682 332.318> 696 20G<0 73.0062 512.994 587>
DStem2: 66 716 0 716 0.343638 -0.939102<0 686.544> 293 68 325 0 0.343638 0.939102<0 686.544>
LayerCount: 3
Fore
SplineSet
587 716 m 1
 325 0 l 1
 262 0 l 1
 0 716 l 1
 66 716 l 1
 293 68 l 1
 520 716 l 1
 587 716 l 1
EndSplineSet
Validated: 1
Layer: 2
SplineSet
587 716 m 1,0,-1
 325 0 l 1,1,-1
 262 0 l 1,2,-1
 0 716 l 1,3,-1
 66 716 l 1,4,-1
 293 68 l 1,5,-1
 520 716 l 1,6,-1
 587 716 l 1,0,-1
EndSplineSet
EndChar

StartChar: W
Encoding: 87 87 56
Width: 884
VWidth: 1504
Flags: W
HStem: 0 21G<209.966 284.015 599.985 674.034> 696 20G<0 71.6173 404.031 479.969 812.383 884>
DStem2: 66 716 0 716 0.28882 -0.957384<0 672.95> 248 68 279 0 0.243238 0.969967<0 611.709> 475 716 442 650 0.243238 -0.969967<55.991 667.7> 636 68 668 0 0.28882 0.957384<0 672.95>
LayerCount: 3
Back
SplineSet
884 716 m 1
 668 0 l 1
 605 0 l 1
 442 650 l 1
 280 0 l 1
 217 0 l 1
 0 716 l 1
 66 716 l 1
 248 68 l 1
 409 716 l 1
 475 716 l 1
 636 68 l 1
 818 716 l 1
 884 716 l 1
EndSplineSet
Fore
SplineSet
884 716 m 1
 668 0 l 1
 605 0 l 1
 442 650 l 1
 279 0 l 1
 216 0 l 1
 0 716 l 1
 66 716 l 1
 248 68 l 1
 409 716 l 1
 475 716 l 1
 636 68 l 1
 818 716 l 1
 884 716 l 1
EndSplineSet
Validated: 1
Layer: 2
SplineSet
884 716 m 1,0,-1
 668 0 l 1,1,-1
 605 0 l 1,2,-1
 442 650 l 1,3,-1
 279 0 l 1,4,-1
 216 0 l 1,5,-1
 0 716 l 1,6,-1
 66 716 l 1,7,-1
 248 68 l 1,8,-1
 409 716 l 1,9,-1
 475 716 l 1,10,-1
 636 68 l 1,11,-1
 818 716 l 1,12,-1
 884 716 l 1,0,-1
EndSplineSet
EndChar

StartChar: X
Encoding: 88 88 57
Width: 628
VWidth: 1504
Flags: W
HStem: 0 21G<26 108.56 520.378 603> 696 20G<36 120.227 508.709 593>
DStem2: 26 0 95 0 0.570997 0.820952<39.3988 429.615 495.291 871.016> 107 716 36 716 0.570997 -0.820952<0 375.154 440.831 831.617>
LayerCount: 3
Fore
SplineSet
603 0 m 1
 534 0 l 1
 314 323 l 1
 95 0 l 1
 26 0 l 1
 280 367 l 1
 36 716 l 1
 107 716 l 1
 314 403 l 1
 522 716 l 1
 593 716 l 1
 349 367 l 1
 603 0 l 1
EndSplineSet
Validated: 1
Layer: 2
SplineSet
603 0 m 1,0,-1
 534 0 l 1,1,-1
 314 323 l 1,2,-1
 95 0 l 1,3,-1
 26 0 l 1,4,-1
 280 367 l 1,5,-1
 36 716 l 1,6,-1
 107 716 l 1,7,-1
 314 403 l 1,8,-1
 522 716 l 1,9,-1
 593 716 l 1,10,-1
 349 367 l 1,11,-1
 603 0 l 1,0,-1
EndSplineSet
EndChar

StartChar: Y
Encoding: 89 89 58
Width: 550
VWidth: 1504
Flags: W
HStem: 0 21G<246 306> 696 20G<0 79.8286 471.114 551>
VStem: 246 60<0 314>
DStem2: 68 716 0 716 0.521965 -0.852967<0 406.585> 275 366 306 316 0.522312 0.852754<0 407.105>
LayerCount: 3
Back
SplineSet
551 716 m 1
 304 316 l 1
 304 0 l 1
 247 0 l 1
 247 314 l 1
 0 716 l 1
 68 716 l 1
 275 366 l 1
 483 716 l 1
 551 716 l 1
EndSplineSet
Fore
SplineSet
551 716 m 1
 306 316 l 1
 306 0 l 1
 246 0 l 1
 246 314 l 1
 0 716 l 1
 68 716 l 1
 275 366 l 1
 483 716 l 1
 551 716 l 1
EndSplineSet
Validated: 1
Layer: 2
SplineSet
551 716 m 1,0,-1
 306 316 l 1,1,-1
 306 0 l 1,2,-1
 246 0 l 1,3,-1
 246 314 l 1,4,-1
 0 716 l 1,5,-1
 68 716 l 1,6,-1
 275 366 l 1,7,-1
 483 716 l 1,8,-1
 551 716 l 1,0,-1
EndSplineSet
EndChar

StartChar: Z
Encoding: 90 90 59
Width: 637
VWidth: 1504
Flags: W
HStem: 0 50<110 602> 666 50<72 519>
DStem2: 33 39 110 50 0.612631 0.790369<55.8666 793.3>
LayerCount: 3
Fore
SplineSet
614 50 m 1
 602 0 l 1
 33 0 l 1
 33 39 l 1
 519 666 l 1
 63 666 l 1
 72 716 l 1
 594 716 l 1
 594 675 l 1
 110 50 l 1
 614 50 l 1
EndSplineSet
Validated: 1
Layer: 2
SplineSet
614 50 m 1,0,-1
 602 0 l 1,1,-1
 33 0 l 1,2,-1
 33 39 l 1,3,-1
 519 666 l 1,4,-1
 63 666 l 1,5,-1
 72 716 l 1,6,-1
 594 716 l 1,7,-1
 594 675 l 1,8,-1
 110 50 l 1,9,-1
 614 50 l 1,0,-1
EndSplineSet
EndChar

StartChar: bracketleft
Encoding: 91 91 60
Width: 294
VWidth: 1504
Flags: W
HStem: -117 45<132 278> 716 45<132 278>
VStem: 78 54<-72 716>
LayerCount: 3
Back
SplineSet
278 -72 m 1
 278 -117 l 1
 78 -117 l 1
 78 761 l 1
 278 761 l 1
 278 716 l 1
 131 716 l 5
 131 -72 l 5
 278 -72 l 1
EndSplineSet
Fore
SplineSet
278 -72 m 1
 278 -117 l 1
 78 -117 l 1
 78 761 l 1
 278 761 l 1
 278 716 l 1
 132 716 l 1
 132 -72 l 1
 278 -72 l 1
EndSplineSet
Validated: 1
Layer: 2
SplineSet
278 -72 m 1,0,-1
 278 -117 l 1,1,-1
 78 -117 l 1,2,-1
 78 761 l 1,3,-1
 278 761 l 1,4,-1
 278 716 l 1,5,-1
 132 716 l 1,6,-1
 132 -72 l 1,7,-1
 278 -72 l 1,0,-1
EndSplineSet
EndChar

StartChar: backslash
Encoding: 92 92 61
Width: 394
VWidth: 1504
Flags: W
HStem: 707 20G<-14 54.7529>
DStem2: 45 727 -14 727 0.438308 -0.898825<0 829.263>
LayerCount: 3
Fore
SplineSet
420 -42 m 1
 360 -42 l 1
 -14 727 l 1
 45 727 l 1
 420 -42 l 1
EndSplineSet
Validated: 1
Layer: 2
SplineSet
420 -42 m 1,0,-1
 360 -42 l 1,1,-1
 -14 727 l 1,2,-1
 45 727 l 1,3,-1
 420 -42 l 1,0,-1
EndSplineSet
EndChar

StartChar: bracketright
Encoding: 93 93 62
Width: 294
VWidth: 1504
Flags: W
HStem: -117 45<17 164> 716 45<17 164>
VStem: 164 54<-72 716>
LayerCount: 3
Fore
SplineSet
218 -117 m 1
 17 -117 l 1
 17 -72 l 1
 164 -72 l 1
 164 716 l 1
 17 716 l 1
 17 761 l 1
 218 761 l 1
 218 -117 l 1
EndSplineSet
Validated: 1
Layer: 2
SplineSet
218 -117 m 1,0,-1
 17 -117 l 1,1,-1
 17 -72 l 1,2,-1
 164 -72 l 1,3,-1
 164 716 l 1,4,-1
 17 716 l 1,5,-1
 17 761 l 1,6,-1
 218 761 l 1,7,-1
 218 -117 l 1,0,-1
EndSplineSet
EndChar

StartChar: asciicircum
Encoding: 94 94 63
Width: 619
VWidth: 1504
Flags: W
HStem: 702 20G<272.056 343.986>
DStem2: 65 239 120 239 0.408242 0.912874<22.4533 488.087> 335 722 308 665 0.409815 -0.912169<40.9286 506.558>
LayerCount: 3
Fore
SplineSet
335 722 m 1
 552 239 l 1
 496 239 l 1
 308 665 l 1
 120 239 l 1
 65 239 l 1
 281 722 l 1
 335 722 l 1
EndSplineSet
Validated: 1
Layer: 2
SplineSet
335 722 m 1,0,-1
 552 239 l 1,1,-1
 496 239 l 1,2,-1
 308 665 l 1,3,-1
 120 239 l 1,4,-1
 65 239 l 1,5,-1
 281 722 l 1,6,-1
 335 722 l 1,0,-1
EndSplineSet
EndChar

StartChar: underscore
Encoding: 95 95 64
Width: 529
VWidth: 1504
Flags: W
HStem: -275 45<0 529>
LayerCount: 3
Fore
SplineSet
529 -230 m 1
 529 -275 l 1
 0 -275 l 1
 0 -230 l 1
 529 -230 l 1
EndSplineSet
Validated: 1
Layer: 2
SplineSet
529 -230 m 1,0,-1
 529 -275 l 1,1,-1
 0 -275 l 1,2,-1
 0 -230 l 1,3,-1
 529 -230 l 1,0,-1
EndSplineSet
EndChar

StartChar: grave
Encoding: 96 96 65
Width: 306
VWidth: 1504
Flags: W
HStem: 587 137
VStem: 89 134
LayerCount: 3
Fore
SplineSet
223 587 m 1
 176 587 l 1
 89 708 l 1
 147 724 l 1
 223 587 l 1
EndSplineSet
Validated: 1
Layer: 2
SplineSet
223 587 m 1,0,-1
 176 587 l 1,1,-1
 89 708 l 1,2,-1
 147 724 l 1,3,-1
 223 587 l 1,0,-1
EndSplineSet
EndChar

StartChar: a
Encoding: 97 97 66
Width: 517
VWidth: 1504
Flags: W
HStem: -14 50<135.882 291.663> 269 50<200.442 379> 472 50<119.482 321.411>
VStem: 39 60<72.0905 198.67> 379 60<106.565 269 319 411.593>
LayerCount: 3
Back
SplineSet
457 0 m 1
 405 -11 l 1
 384 72 l 1
 338 14.6667 277.333 -14 202 -14 c 0
 158 -14 119.833 -1.33333 87.5 24 c 0
 55.1667 49.3333 39 84 39 128 c 0
 39 255.333 150 319 372 319 c 2
 381 319 l 1
 381 328 l 2
 381 361.333 373.333 390.333 358 415 c 0
 334.667 455 295.667 475 241 475 c 0
 205.667 475 151.333 463.667 78 441 c 1
 71 495 l 1
 127 513 185 522 245 522 c 0
 374.333 522 439 450.667 439 308 c 2
 439 125 l 2
 439 83 445 41.3333 457 0 c 1
381 165 m 2
 381 268 l 1
 194.333 268 101 224.667 101 138 c 0
 101 104.667 111 79.3333 131 62 c 0
 151 44.6667 176 36 206 36 c 0
 285.333 36 341 69.6667 373 137 c 0
 378.333 147.667 381 157 381 165 c 2
EndSplineSet
Fore
SplineSet
202 -14 m 3
 115 -14 39 41 39 128 c 3
 39 259 154 319 379 319 c 1
 379 414 333 472 241 472 c 3
 206 472 151 461 78 438 c 1
 71 495 l 1
 127 513 185 522 245 522 c 3
 374 522 439 451 439 308 c 2
 439 125 l 2
 439 83 445 41 457 0 c 1
 405 -11 l 1
 384 72 l 1
 338 15 277 -14 202 -14 c 3
99 138 m 3
 99 74 142 36 204 36 c 3
 276 36 379 88 379 165 c 2
 379 269 l 1
 192 269 99 225 99 138 c 3
EndSplineSet
Validated: 1
Layer: 2
SplineSet
202 -14 m 3,0,1
 134 -14 134 -14 86.5 25.5 c 128,-1,2
 39 65 39 65 39 128 c 0,3,4
 39 319 39 319 379 319 c 1,5,6
 379 392 379 392 344 432 c 128,-1,7
 309 472 309 472 241 472 c 0,8,9
 186 472 186 472 78 438 c 1,10,-1
 71 495 l 1,11,12
 155 522 155 522 245 522 c 0,13,14
 439 522 439 522 439 308 c 2,15,-1
 439 125 l 2,16,17
 439 62 439 62 457 0 c 1,18,-1
 405 -11 l 1,19,-1
 384 72 l 1,20,21
 315 -14 315 -14 202 -14 c 3,0,1
99 138 m 3,22,23
 99 91 99 91 128 63.5 c 128,-1,24
 157 36 157 36 204 36 c 0,25,26
 264 36 264 36 321.5 73.5 c 128,-1,27
 379 111 379 111 379 165 c 2,28,-1
 379 269 l 1,29,30
 99 269 99 269 99 138 c 3,22,23
EndSplineSet
EndChar

StartChar: b
Encoding: 98 98 67
Width: 603
VWidth: 1504
Flags: W
HStem: -14 50<226.359 412.918> 0 21G<74 130> 472 50<233.575 406.637>
VStem: 78 60<122.821 376.967 414 760> 501 60<139.026 371.073>
LayerCount: 3
Back
SplineSet
561 262 m 0x78
 561 180 539.5 113.5 496.5 62.5 c 0
 453.5 11.5 395.333 -14 322 -14 c 0xb8
 242 -14 178.333 20.6667 131 90 c 1
 131 56 130 26 128 0 c 1
 74 0 l 1
 77.3335 26 78.6668 67.6667 78 125 c 2
 78 760 l 1
 137 760 l 1
 137 414 l 1
 181 486 245.667 522 331 522 c 0
 402.333 522 458.5 497.5 499.5 448.5 c 0
 540.5 399.5 561 337.333 561 262 c 0x78
504 260 m 0
 504 323.333 488 375 456 415 c 0
 424 455 378.667 475 320 475 c 0
 272 475 230.667 458.667 196 426 c 1
 156.667 390.667 137 345.333 137 290 c 2
 137 205 l 2
 137 157 154 116.833 188 84.5 c 0
 222 52.1667 264 36 314 36 c 0
 440.667 36 504 110.667 504 260 c 0
EndSplineSet
Fore
SplineSet
331 522 m 3x78
 476 522 561 408 561 262 c 3
 561 106 474 -14 322 -14 c 3xb8
 242 -14 179 21 132 90 c 1
 132 56 131 26 129 0 c 1
 74 0 l 1
 77 26 78 68 78 125 c 2
 78 760 l 1
 138 760 l 1
 138 414 l 1
 182 486 246 522 331 522 c 3x78
138 205 m 2
 138 108 216 36 314 36 c 3
 441 36 501 111 501 260 c 3
 501 382 440 472 320 472 c 3
 218 472 138 391 138 290 c 2
 138 205 l 2
EndSplineSet
Validated: 1
Layer: 2
SplineSet
331 522 m 3,0,1
 437 522 437 522 499 448.5 c 128,-1,2
 561 375 561 375 561 262 c 0,3,4
 561 141 561 141 497 63.5 c 128,-1,5
 433 -14 433 -14 322 -14 c 0,6,7
 203 -14 203 -14 132 90 c 1,8,9
 132 39 132 39 129 0 c 1,10,-1
 74 0 l 1,11,12
 78 35 78 35 78 125 c 2,13,-1
 78 760 l 1,14,-1
 138 760 l 1,15,-1
 138 414 l 1,16,17
 204 522 204 522 331 522 c 3,0,1
138 205 m 2,18,19
 138 133 138 133 189 84.5 c 128,-1,20
 240 36 240 36 314 36 c 0,21,22
 501 36 501 36 501 260 c 0,23,24
 501 355 501 355 454 413.5 c 128,-1,25
 407 472 407 472 320 472 c 0,26,27
 244 472 244 472 191 419 c 128,-1,28
 138 366 138 366 138 290 c 2,29,-1
 138 205 l 2,18,19
EndSplineSet
EndChar

StartChar: c
Encoding: 99 99 68
Width: 497
VWidth: 1504
Flags: W
HStem: -14 50<212.703 421.723> 472 50<212.267 421.723>
VStem: 41 60<150.055 358.166>
LayerCount: 3
Back
SplineSet
448 71 m 1
 469 23 l 1
 425.667 -1 373 -13.3333 311 -14 c 0
 227 -14 161 10.3333 113 59 c 0
 65 107.667 41 172.667 41 254 c 256
 41 335.333 65 400.333 113 449 c 0
 161 497.667 227 522 311 522 c 0
 373 522 425.667 510 469 486 c 1
 448 438 l 1
 410.667 462 364 474 308 474 c 0
 246.667 474 196.333 454.333 157 415 c 0
 117.667 375.667 98 322 98 254 c 256
 98 186 117.833 132.5 157.5 93.5 c 0
 197.167 54.5 247.333 35 308 35 c 0
 364 35 410.667 47 448 71 c 1
EndSplineSet
Fore
SplineSet
308 472 m 3
 181 472 101 384 101 254 c 259
 101 125 183 36 308 36 c 3
 364 36 411 48 448 72 c 1
 469 23 l 1
 426 -1 373 -14 311 -14 c 3
 146 -14 41 90 41 254 c 259
 41 418 146 522 311 522 c 3
 373 522 426 510 469 486 c 1
 448 436 l 1
 411 460 364 472 308 472 c 3
EndSplineSet
Validated: 1
Layer: 2
SplineSet
308 472 m 3,0,1
 213 472 213 472 157 412 c 128,-1,2
 101 352 101 352 101 254 c 0,3,4
 101 157 101 157 158 96.5 c 128,-1,5
 215 36 215 36 308 36 c 0,6,7
 392 36 392 36 448 72 c 1,8,-1
 469 23 l 1,9,10
 403 -14 403 -14 311 -14 c 0,11,12
 187 -14 187 -14 114 58.5 c 128,-1,13
 41 131 41 131 41 254 c 128,-1,14
 41 377 41 377 114 449.5 c 128,-1,15
 187 522 187 522 311 522 c 0,16,17
 404 522 404 522 469 486 c 1,18,-1
 448 436 l 1,19,20
 392 472 392 472 308 472 c 3,0,1
EndSplineSet
EndChar

StartChar: d
Encoding: 100 100 69
Width: 603
VWidth: 1504
Flags: W
HStem: -14 50<189.882 376.641> 0 21G<473 529> 472 50<196.549 369.647>
VStem: 42 60<138.808 370.636> 465 60<1.23047 90 122.821 377.41 414 760>
LayerCount: 3
Back
SplineSet
529 0 m 1x78
 475 0 l 1x78
 473 26 472 56 472 90 c 1
 424.667 20.6667 361 -14 281 -14 c 0xb8
 207.667 -14 149.5 11.3333 106.5 62 c 0
 63.5 112.667 42 179.333 42 262 c 0
 42 337.333 62.5 399.5 103.5 448.5 c 0
 144.5 497.5 200.667 522 272 522 c 0
 357.333 522 422 486 466 414 c 1
 466 760 l 1
 525 760 l 1
 525 125 l 2
 524.333 67.6667 525.667 26 529 0 c 1x78
466 205 m 2
 466 290 l 2
 466 345.334 446.667 390.667 408 426 c 1
 372.667 459.334 331 475.668 283 475 c 0
 225 475 179.833 455 147.5 415 c 0
 115.167 375 99 323.333 99 260 c 0
 99 110.667 162.333 36 289 36 c 0xb8
 339 36 381 52.1667 415 84.5 c 0
 449 116.833 466 157 466 205 c 2
EndSplineSet
Fore
SplineSet
42 262 m 3xb8
 42 407 128 522 272 522 c 3
 357 522 421 486 465 414 c 1
 465 760 l 1
 525 760 l 1
 525 125 l 2
 525 68 526 26 529 0 c 1
 474 0 l 1x78
 472 26 471 56 471 90 c 1
 424 21 361 -14 281 -14 c 3
 128 -14 42 105 42 262 c 3xb8
289 36 m 3xb8
 387 36 465 108 465 205 c 2
 465 290 l 2
 465 392 386 472 283 472 c 3
 163 472 102 381 102 260 c 3
 102 111 162 36 289 36 c 3xb8
EndSplineSet
Validated: 1
Layer: 2
SplineSet
42 262 m 3,0,1
 42 374 42 374 104.5 448 c 128,-1,2
 167 522 167 522 272 522 c 0,3,4
 399 522 399 522 465 414 c 1,5,-1
 465 760 l 1,6,-1
 525 760 l 1,7,-1
 525 125 l 2,8,9
 525 35 525 35 529 0 c 1,10,-1
 474 0 l 1,11,12
 471 39 471 39 471 90 c 1,13,14
 400 -14 400 -14 281 -14 c 0,15,16
 169 -14 169 -14 105.5 63.5 c 128,-1,17
 42 141 42 141 42 262 c 3,0,1
289 36 m 3,18,19
 363 36 363 36 414 84.5 c 128,-1,20
 465 133 465 133 465 205 c 2,21,-1
 465 290 l 2,22,23
 465 367 465 367 412.5 419.5 c 128,-1,24
 360 472 360 472 283 472 c 0,25,26
 196 472 196 472 149 413 c 128,-1,27
 102 354 102 354 102 260 c 0,28,29
 102 36 102 36 289 36 c 3,18,19
EndSplineSet
EndChar

StartChar: e
Encoding: 101 101 70
Width: 562
VWidth: 1504
Flags: W
HStem: -14 50<212.335 445.034> 251 50<104 456> 472 50<203.403 374.533>
VStem: 41 60<153.753 251 301 359.104> 456 60<301 386.302>
LayerCount: 3
Back
SplineSet
487 72 m 1
 492 23 l 1
 434 -1 370.667 -13.3333 302 -14 c 0
 224 -14 161 10.1667 113 58.5 c 0
 65 106.833 41 168 41 242 c 0
 41 326 65 393.667 113 445 c 0
 161 496.333 222 522 296 522 c 0
 439.333 522 512.667 432.333 516 253 c 1
 98 253 l 1
 100 185 120.333 132.167 159 94.5 c 0
 197.667 56.8333 247.333 38 308 38 c 0
 368 37.3333 427.667 48.6667 487 72 c 1
460 299 m 1
 458.667 340.333 447.333 377 426 409 c 0
 396 453 350.333 475 289 475 c 0
 233.667 475 188.333 455 153 415 c 0
 125 383 107.667 344.333 101 299 c 1
 460 299 l 1
EndSplineSet
Fore
SplineSet
101 251 m 1
 105 123 183 36 308 36 c 3
 368 36 428 49 487 72 c 1
 492 23 l 1
 434 -1 371 -14 302 -14 c 3
 149 -14 41 91 41 242 c 0
 41 401 141 522 296 522 c 3
 439 522 513 430 516 251 c 1
 101 251 l 1
456 301 m 1
 453 404 388 472 289 472 c 3
 188 472 118 397 104 301 c 1
 456 301 l 1
EndSplineSet
Validated: 1
Layer: 2
SplineSet
101 251 m 1,0,1
 104 154 104 154 159.5 95 c 128,-1,2
 215 36 215 36 308 36 c 0,3,4
 395 36 395 36 487 72 c 1,5,-1
 492 23 l 1,6,7
 403 -14 403 -14 302 -14 c 0,8,9
 187 -14 187 -14 114 57.5 c 128,-1,10
 41 129 41 129 41 242 c 0,11,12
 41 363 41 363 111.5 442.5 c 128,-1,13
 182 522 182 522 296 522 c 0,14,15
 511 522 511 522 516 251 c 1,16,-1
 101 251 l 1,0,1
456 301 m 1,17,18
 454 379 454 379 408.5 425.5 c 128,-1,19
 363 472 363 472 289 472 c 128,-1,20
 215 472 215 472 165 423.5 c 128,-1,21
 115 375 115 375 104 301 c 1,22,-1
 456 301 l 1,17,18
EndSplineSet
EndChar

StartChar: f
Encoding: 102 102 71
Width: 309
VWidth: 1504
Flags: W
HStem: 0 21G<93 153> 466 45<8 93 153 299> 722 50<206.32 352.614>
VStem: 93 60<0 466 511 658.021>
LayerCount: 3
Back
SplineSet
363 748 m 1
 346 705 l 1
 324 716.333 299.333 722 272 722 c 0
 192 722 152 658.333 152 531 c 6
 152 511 l 5
 299 511 l 1
 299 465 l 1
 152 465 l 5
 152 0 l 5
 93 0 l 1
 93 465 l 1
 8 465 l 1
 8 511 l 1
 95 511 l 1
 95 531 l 2
 95 691.667 155.667 772 277 772 c 0
 315 772 343.667 764 363 748 c 1
EndSplineSet
Fore
SplineSet
363 748 m 1
 346 705 l 1
 324 716 299 722 272 722 c 3
 192 722 153 658 153 531 c 2
 153 511 l 1
 299 511 l 1
 299 466 l 1
 153 466 l 1
 153 0 l 1
 93 0 l 1
 93 466 l 1
 8 466 l 1
 8 511 l 1
 95 511 l 1
 95 531 l 2
 95 692 156 772 277 772 c 3
 315 772 344 764 363 748 c 1
EndSplineSet
Validated: 1
Layer: 2
SplineSet
363 748 m 1,0,-1
 346 705 l 1,1,2
 312 722 312 722 272 722 c 0,3,4
 153 722 153 722 153 531 c 2,5,-1
 153 511 l 1,6,-1
 299 511 l 1,7,-1
 299 466 l 1,8,-1
 153 466 l 1,9,-1
 153 0 l 1,10,-1
 93 0 l 1,11,-1
 93 466 l 1,12,-1
 8 466 l 1,13,-1
 8 511 l 1,14,-1
 95 511 l 1,15,-1
 95 531 l 2,16,17
 95 772 95 772 277 772 c 0,18,19
 334 772 334 772 363 748 c 1,0,-1
EndSplineSet
EndChar

StartChar: g
Encoding: 103 103 72
Width: 467
VWidth: 1504
Flags: W
HStem: -238 50<134.599 312.211> 157 50<166.403 300.964> 461 50<166.704 296.704 357 426>
VStem: 54 60<261.554 405.749> 90 60<97.2686 171.236> 351 60<-151.532 -38.7898 257.082 408.002>
LayerCount: 3
Back
SplineSet
414 343 m 0xf4
 414 287 396.667 242.333 362 209 c 0
 327.333 175.667 284.333 159 233 159 c 0
 201.667 159 175 164.667 153 176 c 1
 147 160.667 144 146 144 132 c 0
 144 106 184.667 81.6667 266 59 c 0
 362 31.6667 410.333 -17.6667 411 -89 c 0
 411 -132.333 395.333 -167.667 364 -195 c 0
 332.667 -222.333 287 -236 227 -236 c 0
 173.667 -236 125 -222.667 81 -196 c 1
 102 -147 l 1
 145.333 -172.333 188.667 -185 232 -185 c 0
 269.333 -185 300 -176.5 324 -159.5 c 0
 348 -142.5 360 -120.333 360 -93 c 0
 360 -45 320.333 -8 241 18 c 0
 193 33.3333 159.667 47 141 59 c 0
 109.667 78.3334 94.3333 102.667 95 132 c 0xec
 95 150 100 174.333 110 205 c 1
 72.6667 245 54 287.333 54 332 c 0
 54 386 71 429.667 105 463 c 0
 139 496.333 179.333 513 226 513 c 2
 426 513 l 1
 426 465 l 1
 352 472 l 1
 393.333 432 414 389 414 343 c 0xf4
363 335 m 0
 363 368.333 352.333 397.667 331 423 c 0
 307 453 274.333 468 233 468 c 0
 193 468 162 454.667 140 428 c 0
 118 401.333 107 370 107 334 c 0xf4
 107 294 120.333 262 147 238 c 0
 172.333 216 201 205 233 205 c 0
 269 205 299.667 216.333 325 239 c 0
 350.333 261.667 363 293.667 363 335 c 0
EndSplineSet
Fore
SplineSet
232 -188 m 3xec
 297 -188 351 -156 351 -95 c 3
 351 -47 318 -15 239 11 c 0
 166 34 90 60 90 130 c 3xec
 90 148 96 176 106 207 c 1
 72 247 54 285 54 330 c 3xf4
 54 432 128 511 226 511 c 2
 426 511 l 1
 426 458 l 1
 357 465 l 1
 396 425 414 387 414 341 c 3
 414 233 338 157 233 157 c 3
 202 157 180 161 158 172 c 1
 152 157 150 144 150 130 c 3
 150 104 185 80 266 57 c 0
 362 30 411 -20 411 -91 c 3
 411 -189 333 -238 227 -238 c 3
 174 -238 125 -225 81 -198 c 1
 102 -150 l 1
 145 -175 189 -188 232 -188 c 3xec
232 207 m 3
 300 207 354 259 354 333 c 3
 354 402 297 461 232 461 c 3
 163 461 114 402 114 332 c 3xf4
 114 263 168 207 232 207 c 3
EndSplineSet
Validated: 1
Layer: 2
SplineSet
232 -188 m 3,0,1
 283 -188 283 -188 317 -163.5 c 128,-1,2
 351 -139 351 -139 351 -95 c 0,3,4
 351 -59 351 -59 324.5 -33.5 c 128,-1,5
 298 -8 298 -8 239 11 c 0,6,7
 204 22 204 22 183.5 30 c 128,-1,8
 163 38 163 38 138.5 52 c 128,-1,9
 114 66 114 66 102 85.5 c 128,-1,10
 90 105 90 105 90 130 c 0,11,12
 90 157 90 157 106 207 c 1,13,14
 54 268 54 268 54 330 c 0,15,16
 54 407 54 407 103.5 459 c 128,-1,17
 153 511 153 511 226 511 c 2,18,-1
 426 511 l 1,19,-1
 426 458 l 1,20,-1
 357 465 l 1,21,22
 414 407 414 407 414 341 c 0,23,24
 414 260 414 260 363 208.5 c 128,-1,25
 312 157 312 157 233 157 c 0,26,27
 188 157 188 157 158 172 c 1,28,29
 150 152 150 152 150 130 c 0,30,31
 150 90 150 90 266 57 c 0,32,33
 411 16 411 16 411 -91 c 0,34,35
 411 -162 411 -162 360.5 -200 c 128,-1,36
 310 -238 310 -238 227 -238 c 0,37,38
 146 -238 146 -238 81 -198 c 1,39,-1
 102 -150 l 1,40,41
 167 -188 167 -188 232 -188 c 3,0,1
232 207 m 3,42,43
 284 207 284 207 319 242.5 c 128,-1,44
 354 278 354 278 354 333 c 0,45,46
 354 385 354 385 317.5 423 c 128,-1,47
 281 461 281 461 232 461 c 0,48,49
 181 461 181 461 147.5 423 c 128,-1,50
 114 385 114 385 114 332 c 0,51,52
 114 280 114 280 149 243.5 c 128,-1,53
 184 207 184 207 232 207 c 3,42,43
EndSplineSet
EndChar

StartChar: h
Encoding: 104 104 73
Width: 586
VWidth: 1504
Flags: W
HStem: 0 21G<78 138 448 508> 472 50<224.221 382.074>
VStem: 78 60<0 382.579 420 760> 448 60<0 401.639>
LayerCount: 3
Back
SplineSet
508 290 m 2
 508 0 l 1
 450 0 l 1
 450 290 l 2
 450 412.667 398.667 474 296 474 c 0
 254.667 474 217.833 456.667 185.5 422 c 0
 153.167 387.333 137 350 137 310 c 2
 137 0 l 1
 78 0 l 1
 78 760 l 1
 137 760 l 1
 137 420 l 1
 178.333 488 235.333 522 308 522 c 0
 441.333 522 508 444.667 508 290 c 2
EndSplineSet
Fore
SplineSet
508 290 m 2
 508 0 l 1
 448 0 l 1
 448 290 l 2
 448 413 399 472 296 472 c 3
 216 472 138 389 138 310 c 2
 138 0 l 1
 78 0 l 1
 78 760 l 1
 138 760 l 1
 138 420 l 1
 179 488 235 522 308 522 c 3
 441 522 508 445 508 290 c 2
EndSplineSet
Validated: 1
Layer: 2
SplineSet
508 290 m 2,0,-1
 508 0 l 1,1,-1
 448 0 l 1,2,-1
 448 290 l 2,3,4
 448 472 448 472 296 472 c 0,5,6
 236 472 236 472 187 421 c 128,-1,7
 138 370 138 370 138 310 c 2,8,-1
 138 0 l 1,9,-1
 78 0 l 1,10,-1
 78 760 l 1,11,-1
 138 760 l 1,12,-1
 138 420 l 1,13,14
 200 522 200 522 308 522 c 0,15,16
 508 522 508 522 508 290 c 2,0,-1
EndSplineSet
EndChar

StartChar: i
Encoding: 105 105 74
Width: 215
VWidth: 1504
Flags: W
HStem: 0 21G<77 137> 491 20G<77 137> 620 94<65.6028 145.808>
VStem: 59 94<626.603 706.808> 77 60<0 511>
LayerCount: 3
Back
SplineSet
137 0 m 1xe8
 78 0 l 1
 78 511 l 1
 137 511 l 1
 137 0 l 1xe8
153 666 m 256xf0
 153 652 148.5 640.833 139.5 632.5 c 0
 130.5 624.167 119 620 105 620 c 256
 91 620 79.8333 624.167 71.5 632.5 c 0
 63.1667 640.833 59 652 59 666 c 256
 59 680 63.1667 691.5 71.5 700.5 c 0
 79.8333 709.5 91 714 105 714 c 256
 119 714 130.5 709.5 139.5 700.5 c 0
 148.5 691.5 153 680 153 666 c 256xf0
EndSplineSet
Fore
SplineSet
137 0 m 1xe8
 77 0 l 1
 77 511 l 1
 137 511 l 1
 137 0 l 1xe8
105 714 m 259
 133 714 153 694 153 666 c 259
 153 638 133 620 105 620 c 259
 77 620 59 638 59 666 c 259xf0
 59 694 77 714 105 714 c 259
EndSplineSet
Validated: 1
Layer: 2
SplineSet
137 0 m 1,0,-1
 77 0 l 1,1,-1
 77 511 l 1,2,-1
 137 511 l 1,3,-1
 137 0 l 1,0,-1
105 714 m 259,4,5
 126 714 126 714 139.5 700.5 c 128,-1,6
 153 687 153 687 153 666 c 128,-1,7
 153 645 153 645 139.5 632.5 c 128,-1,8
 126 620 126 620 105 620 c 128,-1,9
 84 620 84 620 71.5 632.5 c 128,-1,10
 59 645 59 645 59 666 c 128,-1,11
 59 687 59 687 71.5 700.5 c 128,-1,12
 84 714 84 714 105 714 c 259,4,5
EndSplineSet
EndChar

StartChar: j
Encoding: 106 106 75
Width: 233
VWidth: 1504
Flags: W
HStem: -223 47<-57 19.475> 491 20G<95 155> 620 94<83.6028 163.808>
VStem: 77 94<626.603 706.808> 95 60<-100.296 511>
LayerCount: 3
Back
SplineSet
155 11 m 1xe8
 153 -141.667 82.3333 -219.667 -57 -223 c 1
 -63 -176 l 1
 6.33334 -170 52 -146 74 -104 c 0
 89.3334 -74.6667 96.6668 -31 96 27 c 2
 96 511 l 1
 155 511 l 1
 155 11 l 1xe8
171 666 m 256xf0
 171 652 166.5 640.833 157.5 632.5 c 0
 148.5 624.167 137 620 123 620 c 256
 109 620 97.8333 624.167 89.5 632.5 c 0
 81.1667 640.833 77 652 77 666 c 256
 77 680 81.1667 691.5 89.5 700.5 c 0
 97.8333 709.5 109 714 123 714 c 256
 137 714 148.5 709.5 157.5 700.5 c 0
 166.5 691.5 171 680 171 666 c 256xf0
EndSplineSet
Fore
SplineSet
-63 -176 m 1xe8
 61 -165 95 -107 95 27 c 2
 95 511 l 1
 155 511 l 1
 155 11 l 2
 155 -142 82 -220 -57 -223 c 1
 -63 -176 l 1xe8
123 714 m 259
 151 714 171 694 171 666 c 259
 171 638 151 620 123 620 c 259
 95 620 77 638 77 666 c 259xf0
 77 694 95 714 123 714 c 259
EndSplineSet
Validated: 1
Layer: 2
SplineSet
-63 -176 m 1,0,1
 28 -168 28 -168 61.5 -122 c 128,-1,2
 95 -76 95 -76 95 27 c 2,3,-1
 95 511 l 1,4,-1
 155 511 l 1,5,-1
 155 11 l 2,6,7
 155 -218 155 -218 -57 -223 c 1,8,-1
 -63 -176 l 1,0,1
123 714 m 259,9,10
 144 714 144 714 157.5 700.5 c 128,-1,11
 171 687 171 687 171 666 c 128,-1,12
 171 645 171 645 157.5 632.5 c 128,-1,13
 144 620 144 620 123 620 c 128,-1,14
 102 620 102 620 89.5 632.5 c 128,-1,15
 77 645 77 645 77 666 c 128,-1,16
 77 687 77 687 89.5 700.5 c 128,-1,17
 102 714 102 714 123 714 c 259,9,10
EndSplineSet
EndChar

StartChar: k
Encoding: 107 107 76
Width: 475
VWidth: 1504
Flags: W
HStem: 0 7G<78 138 416.643 493> 499 20G<370.655 452>
VStem: 78 60<0 215 281 760>
DStem2: 138 281 191 266 0.732295 0.680988<0 28.5968 81.8258 348.078> 233 299 191 266 0.659941 -0.751317<0 367.81>
LayerCount: 3
Back
SplineSet
492 2 m 1
 433 -15 l 1
 190 266 l 1
 137 215 l 1
 137 0 l 1
 78 0 l 1
 78 760 l 1
 137 760 l 1
 137 281 l 1
 391 519 l 1
 451 507 l 1
 232 299 l 1
 492 2 l 1
EndSplineSet
Fore
SplineSet
493 3 m 1
 434 -14 l 1
 191 266 l 1
 138 215 l 1
 138 0 l 1
 78 0 l 1
 78 760 l 1
 138 760 l 1
 138 281 l 1
 392 519 l 1
 452 507 l 1
 233 299 l 1
 493 3 l 1
EndSplineSet
Validated: 1
Layer: 2
SplineSet
493 3 m 1,0,-1
 434 -14 l 1,1,-1
 191 266 l 1,2,-1
 138 215 l 1,3,-1
 138 0 l 1,4,-1
 78 0 l 1,5,-1
 78 760 l 1,6,-1
 138 760 l 1,7,-1
 138 281 l 1,8,-1
 392 519 l 1,9,-1
 452 507 l 1,10,-1
 233 299 l 1,11,-1
 493 3 l 1,0,-1
EndSplineSet
EndChar

StartChar: l
Encoding: 108 108 77
Width: 300
VWidth: 1504
Flags: W
HStem: -14 50<199.169 268>
VStem: 78 60<113.043 760>
LayerCount: 3
Back
SplineSet
274 41 m 1
 268 -11 l 1
 141.333 -5 78 84.3333 78 257 c 2
 78 760 l 1
 137 760 l 1
 137 280 l 2
 137 206.667 143.333 153.333 156 120 c 0
 176.667 68.6666 216 42.3333 274 41 c 1
EndSplineSet
Fore
SplineSet
274 36 m 1
 268 -14 l 1
 141 -8 78 84 78 257 c 2
 78 760 l 1
 138 760 l 1
 138 278 l 2
 138 142 155 36 274 36 c 1
EndSplineSet
Validated: 1
Layer: 2
SplineSet
274 36 m 1,0,-1
 268 -14 l 1,1,2
 78 -5 78 -5 78 257 c 2,3,-1
 78 760 l 1,4,-1
 138 760 l 1,5,-1
 138 278 l 2,6,7
 138 221 138 221 143 182 c 128,-1,8
 148 143 148 143 161.5 107 c 128,-1,9
 175 71 175 71 203 53.5 c 128,-1,10
 231 36 231 36 274 36 c 1,0,-1
EndSplineSet
EndChar

StartChar: m
Encoding: 109 109 78
Width: 904
VWidth: 1504
Flags: W
HStem: 0 21G<78 138 422 482 766 826> 472 50<223.095 369.448 558.327 699.73> 491 20G<68 126.5>
VStem: 78 60<0 385.984 420 508.339> 422 60<0 395.866> 766 60<0 395.918>
CounterMasks: 1 1c
LayerCount: 3
Back
SplineSet
826 0 m 1xdc
 767 0 l 1
 767 283 l 2
 767 341 755.167 387.333 731.5 422 c 0
 707.833 456.667 673.667 474 629 474 c 0
 589.667 474 555.167 458.667 525.5 428 c 0
 495.833 397.333 481 363 481 325 c 2
 481 0 l 1
 423 0 l 1
 423 310 l 2
 423 419.333 379.667 474 293 474 c 0xdc
 253 474 217 456.667 185 422 c 0
 153 387.333 137 350 137 310 c 2
 137 0 l 1
 78 0 l 1
 78 385 l 2
 78 412.333 74.6667 454.333 68 511 c 1
 123 511 l 1xbc
 130.333 489.667 134.333 459.333 135 420 c 1
 174.333 488 231.667 522 307 522 c 0
 376.333 522 428 484 462 408 c 1
 502 484 563 522 645 522 c 0
 701 522 745.167 500.667 777.5 458 c 0
 809.833 415.333 826 357.333 826 284 c 2
 826 0 l 1xdc
EndSplineSet
Fore
SplineSet
645 522 m 3xdc
 769 522 826 415 826 284 c 2
 826 0 l 1
 766 0 l 1
 766 283 l 2
 766 387 727 472 629 472 c 3
 553 472 482 401 482 325 c 2
 482 0 l 1
 422 0 l 1
 422 310 l 2
 422 419 380 472 293 472 c 3xdc
 214 472 138 389 138 310 c 2
 138 0 l 1
 78 0 l 1
 78 385 l 2
 78 412 75 454 68 511 c 1
 123 511 l 1xbc
 130 490 134 459 135 420 c 1
 174 488 232 522 307 522 c 3
 376 522 428 484 462 408 c 1
 502 484 563 522 645 522 c 3xdc
EndSplineSet
Validated: 1
Layer: 2
SplineSet
645 522 m 3,0,1
 734 522 734 522 780 455 c 128,-1,2
 826 388 826 388 826 284 c 2,3,-1
 826 0 l 1,4,-1
 766 0 l 1,5,-1
 766 283 l 2,6,7
 766 367 766 367 732.5 419.5 c 128,-1,8
 699 472 699 472 629 472 c 0,9,10
 572 472 572 472 527 427 c 128,-1,11
 482 382 482 382 482 325 c 2,12,-1
 482 0 l 1,13,-1
 422 0 l 1,14,-1
 422 310 l 2,15,16
 422 472 422 472 293 472 c 0,17,18
 234 472 234 472 186 421 c 128,-1,19
 138 370 138 370 138 310 c 2,20,-1
 138 0 l 1,21,-1
 78 0 l 1,22,-1
 78 385 l 2,23,24
 78 430 78 430 68 511 c 1,25,-1
 123 511 l 1,26,27
 133 480 133 480 135 420 c 1,28,29
 193 522 193 522 307 522 c 0,30,31
 411 522 411 522 462 408 c 1,32,33
 522 522 522 522 645 522 c 3,0,1
EndSplineSet
EndChar

StartChar: n
Encoding: 110 110 79
Width: 586
VWidth: 1504
Flags: W
HStem: 0 21G<78 138 448 508> 472 50<224.31 382.074> 491 20G<68 127.5>
VStem: 78 60<0 382.579 420 508.339> 448 60<0 401.639>
LayerCount: 3
Back
SplineSet
508 0 m 1xd8
 450 0 l 1
 450 290 l 2
 450 412.667 398.667 474 296 474 c 0xd8
 254.667 474 217.833 456.667 185.5 422 c 0
 153.167 387.333 137 350 137 310 c 2
 137 0 l 1
 78 0 l 1
 78 385 l 2
 78 412.333 74.6667 454.333 68 511 c 1
 123 511 l 1xb8
 130.333 489.667 134.333 459.333 135 420 c 1
 174.333 488 232 522 308 522 c 0
 441.333 522 508 444.667 508 290 c 2
 508 0 l 1xd8
EndSplineSet
Fore
SplineSet
508 0 m 1xd8
 448 0 l 1
 448 290 l 2
 448 413 399 472 296 472 c 3xd8
 216 472 138 389 138 310 c 2
 138 0 l 1
 78 0 l 1
 78 385 l 2
 78 412 75 454 68 511 c 1
 124 511 l 1xb8
 131 490 135 459 136 420 c 1
 175 488 232 522 308 522 c 3
 441 522 508 445 508 290 c 2
 508 0 l 1xd8
EndSplineSet
Validated: 1
Layer: 2
SplineSet
508 0 m 1,0,-1
 448 0 l 1,1,-1
 448 290 l 2,2,3
 448 472 448 472 296 472 c 0,4,5
 236 472 236 472 187 421 c 128,-1,6
 138 370 138 370 138 310 c 2,7,-1
 138 0 l 1,8,-1
 78 0 l 1,9,-1
 78 385 l 2,10,11
 78 430 78 430 68 511 c 1,12,-1
 124 511 l 1,13,14
 134 480 134 480 136 420 c 1,15,16
 194 522 194 522 308 522 c 0,17,18
 508 522 508 522 508 290 c 2,19,-1
 508 0 l 1,0,-1
EndSplineSet
EndChar

StartChar: o
Encoding: 111 111 80
Width: 598
VWidth: 1504
Flags: W
HStem: -14 50<210.787 387.019> 472 50<211.174 387.237>
VStem: 41 60<154.509 353.079> 497 60<154.715 355.618>
LayerCount: 3
Back
SplineSet
557 254 m 256
 557 178.667 533.333 115 486 63 c 0
 438.667 11 376.333 -15 299 -15 c 256
 221.667 -15 159.5 11 112.5 63 c 0
 65.5 115 42 178.667 42 254 c 256
 42 329.333 65.6667 392.833 113 444.5 c 0
 160.333 496.167 222.333 522 299 522 c 256
 376.334 522 438.667 496.167 486 444.5 c 0
 533.333 392.833 557 329.333 557 254 c 256
499 254 m 256
 499 316 480.333 367.833 443 409.5 c 0
 405.667 451.167 357.667 472 299 472 c 256
 241 472 193.167 451.167 155.5 409.5 c 0
 117.833 367.833 99 316 99 254 c 256
 99 192 117.833 140 155.5 98 c 0
 193.167 56 241 35 299 35 c 256
 357 35 404.833 56 442.5 98 c 0
 480.167 140 499 192 499 254 c 256
EndSplineSet
Fore
SplineSet
557 254 m 259
 557 103 451 -14 299 -14 c 259
 146 -14 41 102 41 254 c 259
 41 404 148 522 299 522 c 259
 451 522 557 405 557 254 c 259
299 36 m 259
 417 36 497 134 497 254 c 259
 497 374 418 472 299 472 c 259
 181 472 101 374 101 254 c 259
 101 134 181 36 299 36 c 259
EndSplineSet
Validated: 1
Layer: 2
SplineSet
557 254 m 259,0,1
 557 140 557 140 484.5 63 c 128,-1,2
 412 -14 412 -14 299 -14 c 0,3,4
 185 -14 185 -14 113 62.5 c 128,-1,5
 41 139 41 139 41 254 c 0,6,7
 41 368 41 368 114 445 c 128,-1,8
 187 522 187 522 299 522 c 0,9,10
 412 522 412 522 484.5 445 c 128,-1,11
 557 368 557 368 557 254 c 259,0,1
299 36 m 259,12,13
 386 36 386 36 441.5 99 c 128,-1,14
 497 162 497 162 497 254 c 128,-1,15
 497 346 497 346 442 409 c 128,-1,16
 387 472 387 472 299 472 c 0,17,18
 212 472 212 472 156.5 409 c 128,-1,19
 101 346 101 346 101 254 c 128,-1,20
 101 162 101 162 156.5 99 c 128,-1,21
 212 36 212 36 299 36 c 259,12,13
EndSplineSet
EndChar

StartChar: p
Encoding: 112 112 81
Width: 603
VWidth: 1504
Flags: W
HStem: -14 50<233.796 408.055> 472 50<226.359 406.558> 491 20G<74 130>
VStem: 78 60<-251 95 131.033 385.947 418 509.776> 501 60<136.681 368.149>
LayerCount: 3
Back
SplineSet
561 247 m 0
 561 171.667 541 110.333 501 63 c 0
 459 11.6667 402.333 -14 331 -14 c 0
 245.667 -14 181 22.3333 137 95 c 1
 137 -251 l 1
 78 -251 l 1
 78 384 l 2
 78 442 76.6667 483.333 74 508 c 1
 128 508 l 1
 130 482 131 452 131 418 c 1
 178.333 487.333 242 522 322 522 c 0
 395.333 522 453.5 496.667 496.5 446 c 0
 539.5 395.333 561 329 561 247 c 0
505 248 m 0
 505 318 488.833 372.833 456.5 412.5 c 0
 424.167 452.167 376.667 472 314 472 c 0
 264 472 222 456 188 424 c 0
 154 392 137 352 137 304 c 2
 137 218 l 2
 137 162.667 156.667 117.667 196 83 c 1
 231.333 49.6667 272.667 33 320 33 c 0
 378 33 424.333 53.6667 459 95 c 1
 489.667 133.667 505 184.667 505 248 c 0
EndSplineSet
Fore
SplineSet
322 522 m 3xd8
 474 522 561 403 561 247 c 3
 561 100 474 -14 331 -14 c 3
 246 -14 182 22 138 95 c 1
 138 -251 l 1
 78 -251 l 1
 78 384 l 2
 78 442 77 486 74 511 c 1
 129 511 l 1xb8
 131 485 132 452 132 418 c 1
 179 487 242 522 322 522 c 3xd8
314 472 m 3xd8
 216 472 138 401 138 304 c 2
 138 218 l 2
 138 117 219 36 320 36 c 3
 439 36 501 124 501 248 c 3
 501 381 444 472 314 472 c 3xd8
EndSplineSet
Validated: 1
Layer: 2
SplineSet
322 522 m 3,0,1
 433 522 433 522 497 444.5 c 128,-1,2
 561 367 561 367 561 247 c 0,3,4
 561 134 561 134 498.5 60 c 128,-1,5
 436 -14 436 -14 331 -14 c 0,6,7
 204 -14 204 -14 138 95 c 1,8,-1
 138 -251 l 1,9,-1
 78 -251 l 1,10,-1
 78 384 l 2,11,12
 78 478 78 478 74 511 c 1,13,-1
 129 511 l 1,14,15
 132 472 132 472 132 418 c 1,16,17
 203 522 203 522 322 522 c 3,0,1
314 472 m 3,18,19
 240 472 240 472 189 424 c 128,-1,20
 138 376 138 376 138 304 c 2,21,-1
 138 218 l 2,22,23
 138 142 138 142 191 89 c 128,-1,24
 244 36 244 36 320 36 c 0,25,26
 407 36 407 36 454 94 c 128,-1,27
 501 152 501 152 501 248 c 0,28,29
 501 352 501 352 454.5 412 c 128,-1,30
 408 472 408 472 314 472 c 3,18,19
EndSplineSet
EndChar

StartChar: q
Encoding: 113 113 82
Width: 603
VWidth: 1504
Flags: W
HStem: -14 50<225.955 400.82> 472 50<227.845 408.267> 491 20G<505 561>
VStem: 74 60<136.903 368.149> 497 60<-251 95 134.931 385.947>
LayerCount: 3
Back
SplineSet
557 -251 m 1
 498 -251 l 1
 498 95 l 1
 454 23 389.333 -13.3333 304 -14 c 0
 232.667 -14 176 11.6667 134 63 c 0
 94 110.333 74 171.667 74 247 c 0
 74 329 95.5 395.333 138.5 446 c 0
 181.5 496.667 239.667 522 313 522 c 0
 393 522 456.667 487.333 504 418 c 1
 504 452 505 482 507 508 c 1
 561 508 l 1
 557.65 482.667 556.316 441.333 557 384 c 2
 557 -251 l 1
498 218 m 2
 498 304 l 2
 498 352 481 392 447 424 c 0
 413 456 370.667 472 320 472 c 0
 258 472 210.667 452.167 178 412.5 c 0
 145.333 372.833 129 318 129 248 c 0
 129 184.667 144.667 133.667 176 95 c 1
 210 53.6667 256 33 314 33 c 0
 362 33 403.667 49.6667 439 83 c 1
 478.333 117.667 498 162.667 498 218 c 2
EndSplineSet
Fore
SplineSet
74 247 m 3xb8
 74 403 160 522 313 522 c 3xd8
 393 522 456 487 503 418 c 1
 503 452 504 485 506 511 c 1
 561 511 l 1
 558 486 557 441 557 384 c 2
 557 -251 l 1
 497 -251 l 1
 497 95 l 1
 453 23 389 -14 304 -14 c 3
 161 -14 74 100 74 247 c 3xb8
134 248 m 3
 134 125 196 36 314 36 c 3
 415 36 497 117 497 218 c 2
 497 304 l 2
 497 401 418 472 320 472 c 3
 190 472 134 381 134 248 c 3
EndSplineSet
Validated: 1
Layer: 2
SplineSet
74 247 m 3,0,1
 74 368 74 368 137.5 445 c 128,-1,2
 201 522 201 522 313 522 c 0,3,4
 432 522 432 522 503 418 c 1,5,6
 503 472 503 472 506 511 c 1,7,-1
 561 511 l 1,8,9
 557 478 557 478 557 384 c 2,10,-1
 557 -251 l 1,11,-1
 497 -251 l 1,12,-1
 497 95 l 1,13,14
 430 -14 430 -14 304 -14 c 0,15,16
 199 -14 199 -14 136.5 60 c 128,-1,17
 74 134 74 134 74 247 c 3,0,1
134 248 m 3,18,19
 134 153 134 153 181 94.5 c 128,-1,20
 228 36 228 36 314 36 c 0,21,22
 390 36 390 36 443.5 89 c 128,-1,23
 497 142 497 142 497 218 c 2,24,-1
 497 304 l 2,25,26
 497 376 497 376 445.5 424 c 128,-1,27
 394 472 394 472 320 472 c 0,28,29
 226 472 226 472 180 412 c 128,-1,30
 134 352 134 352 134 248 c 3,18,19
EndSplineSet
EndChar

StartChar: r
Encoding: 114 114 83
Width: 326
VWidth: 1504
Flags: W
HStem: 0 21G<78 138> 472 50<220.728 313> 491 20G<63 119.5>
VStem: 78 60<0 379.812> 78 52<409 509.298>
LayerCount: 3
Back
SplineSet
313 469 m 1xc8
 309.667 470.333 303.667 471 295 471 c 0xc8
 217.667 471 166.333 422.667 141 326 c 0
 137.666 314.667 136.332 297.667 137 275 c 2
 137 0 l 1
 78 0 l 1
 78 344 l 2
 78 419.333 73 475 63 511 c 1
 113 511 l 1xb0
 124.333 489 129.667 455 129 409 c 1
 161 484.333 212.667 522 284 522 c 0
 293.333 522 303 521 313 519 c 1
 313 469 l 1xc8
EndSplineSet
Fore
SplineSet
313 470 m 1xc8
 310 471 304 472 295 472 c 3xc8
 210 472 138 399 138 275 c 2
 138 0 l 1
 78 0 l 1
 78 344 l 2
 78 419 73 475 63 511 c 1
 114 511 l 1xb0
 125 489 130 455 130 409 c 1
 162 484 213 522 284 522 c 3
 293 522 303 521 313 519 c 1
 313 470 l 1xc8
EndSplineSet
Validated: 1
Layer: 2
SplineSet
313 470 m 1,0,1
 307 472 307 472 295 472 c 0,2,3
 229 472 229 472 183.5 418.5 c 128,-1,4
 138 365 138 365 138 275 c 2,5,-1
 138 0 l 1,6,-1
 78 0 l 1,7,-1
 78 344 l 2,8,9
 78 457 78 457 63 511 c 1,10,-1
 114 511 l 1,11,12
 130 479 130 479 130 409 c 1,13,14
 178 522 178 522 284 522 c 0,15,16
 298 522 298 522 313 519 c 1,17,-1
 313 470 l 1,0,1
EndSplineSet
EndChar

StartChar: s
Encoding: 115 115 84
Width: 424
VWidth: 1504
Flags: W
HStem: -14 50<100.972 280.586> 472 50<154.102 313.033>
VStem: 63 60<340.038 441.672> 313 60<66.7782 186.573>
LayerCount: 3
Back
SplineSet
373 135 m 0
 373 91.6666 356.667 56 324 28 c 0
 291.333 0 246 -14 188 -14 c 0
 138 -14 90 -0.333334 44 27 c 1
 66 75 l 1
 114 49 156.333 36 193 36 c 0
 277 36 319 67.6667 319 131 c 0
 319 180.333 279.333 217 200 241 c 0
 108.667 269 63 315 63 379 c 0
 63 418.333 77.8333 452 107.5 480 c 0
 137.167 508 178.667 522 232 522 c 256
 285.333 522 327.333 510.333 358 487 c 1
 334 439 l 1
 304 463 266.333 475 221 475 c 0
 189 475 164 466.5 146 449.5 c 0
 128 432.5 119 411.667 119 387 c 0
 119 347 158 313.333 236 286 c 0
 327.333 254.667 373 204.333 373 135 c 0
EndSplineSet
Fore
SplineSet
221 472 m 3
 167 472 123 439 123 387 c 3
 123 350 162 312 236 286 c 0
 327 255 373 204 373 135 c 3
 373 38 291 -14 188 -14 c 3
 138 -14 90 0 44 27 c 1
 66 75 l 1
 114 49 156 36 193 36 c 3
 277 36 313 68 313 131 c 3
 313 177 276 217 200 240 c 0
 109 268 63 315 63 379 c 3
 63 467 138 522 232 522 c 259
 285 522 327 510 358 487 c 1
 334 436 l 1
 304 460 266 472 221 472 c 3
EndSplineSet
Validated: 1
Layer: 2
SplineSet
221 472 m 3,0,1
 179 472 179 472 151 448.5 c 128,-1,2
 123 425 123 425 123 387 c 0,3,4
 123 359 123 359 152.5 332 c 128,-1,5
 182 305 182 305 236 286 c 0,6,7
 373 239 373 239 373 135 c 0,8,9
 373 65 373 65 320.5 25.5 c 128,-1,10
 268 -14 268 -14 188 -14 c 0,11,12
 114 -14 114 -14 44 27 c 1,13,-1
 66 75 l 1,14,15
 138 36 138 36 193 36 c 0,16,17
 313 36 313 36 313 131 c 0,18,19
 313 166 313 166 284.5 194.5 c 128,-1,20
 256 223 256 223 200 240 c 0,21,22
 63 282 63 282 63 379 c 0,23,24
 63 444 63 444 111.5 483 c 128,-1,25
 160 522 160 522 232 522 c 0,26,27
 311 522 311 522 358 487 c 1,28,-1
 334 436 l 1,29,30
 289 472 289 472 221 472 c 3,0,1
EndSplineSet
EndChar

StartChar: t
Encoding: 116 116 85
Width: 357
VWidth: 1504
Flags: W
HStem: -14 50<196.442 317.698> 466 45<9 111 171 334>
VStem: 111 60<61.8599 466 511 663>
LayerCount: 3
Back
SplineSet
316 47 m 1
 322 0 l 1
 302 -9.33333 275.333 -14 242 -14 c 0
 198 -14 164.333 3.33333 141 38 c 0
 121 68 111 105.333 111 150 c 2
 111 465 l 1
 9 465 l 1
 9 511 l 1
 111 511 l 1
 111 663 l 1
 170 690 l 1
 170 511 l 1
 334 511 l 1
 334 465 l 1
 170 465 l 1
 170 152 l 2
 170 76 195.667 38 247 38 c 0
 277.667 38 300.667 41 316 47 c 1
EndSplineSet
Fore
SplineSet
242 -14 m 3
 156 -14 111 60 111 150 c 2
 111 466 l 1
 9 466 l 1
 9 511 l 1
 111 511 l 1
 111 663 l 1
 171 690 l 1
 171 511 l 1
 334 511 l 1
 334 466 l 1
 171 466 l 1
 171 150 l 2
 171 74 196 36 247 36 c 3
 278 36 301 39 316 45 c 1
 322 0 l 1
 302 -9 275 -14 242 -14 c 3
EndSplineSet
Validated: 1
Layer: 2
SplineSet
242 -14 m 3,0,1
 180 -14 180 -14 145.5 32.5 c 128,-1,2
 111 79 111 79 111 150 c 2,3,-1
 111 466 l 1,4,-1
 9 466 l 1,5,-1
 9 511 l 1,6,-1
 111 511 l 1,7,-1
 111 663 l 1,8,-1
 171 690 l 1,9,-1
 171 511 l 1,10,-1
 334 511 l 1,11,-1
 334 466 l 1,12,-1
 171 466 l 1,13,-1
 171 150 l 2,14,15
 171 36 171 36 247 36 c 0,16,17
 293.5 36 293.5 36 316 45 c 1,18,-1
 322 0 l 1,19,20
 291 -14 291 -14 242 -14 c 3,0,1
EndSplineSet
EndChar

StartChar: u
Encoding: 117 117 86
Width: 586
VWidth: 1504
Flags: W
HStem: -14 50<199.446 359.03> 491 20G<78 138 448 508>
VStem: 78 60<110.622 511> 448 60<122.732 511> 478 56<0.375 73.5274>
LayerCount: 3
Back
SplineSet
534 2 m 1xe8
 478 -11 l 1xe8
 466 23 458 56.3333 454 89 c 1
 410 21 346 -13.3333 262 -14 c 0
 139.333 -14 78 65.3333 78 224 c 2
 78 511 l 1
 137 511 l 1
 137 235 l 2
 137 103.667 183 38 275 38 c 0
 318.334 38 357.667 52 393 80 c 1
 431 112 450 152.667 450 202 c 2
 450 511 l 1
 508 511 l 1
 508 125 l 2xf0
 508 88.3333 516.667 47.3333 534 2 c 1xe8
EndSplineSet
Fore
SplineSet
534 2 m 1xe8
 478 -11 l 1xe8
 466 23 458 56 454 89 c 1
 410 21 346 -14 262 -14 c 3
 139 -14 78 65 78 224 c 2
 78 511 l 1
 138 511 l 1
 138 235 l 2
 138 104 183 36 275 36 c 3
 369 36 448 110 448 202 c 2
 448 511 l 1
 508 511 l 1
 508 125 l 2xf0
 508 88 517 47 534 2 c 1xe8
EndSplineSet
Validated: 1
Layer: 2
SplineSet
534 2 m 1,0,-1
 478 -11 l 1,1,2
 460 40 460 40 454 89 c 1,3,4
 387 -14 387 -14 262 -14 c 0,5,6
 78 -14 78 -14 78 224 c 2,7,-1
 78 511 l 1,8,-1
 138 511 l 1,9,-1
 138 235 l 2,10,11
 138 36 138 36 275 36 c 0,12,13
 346 36 346 36 397 84.5 c 128,-1,14
 448 133 448 133 448 202 c 2,15,-1
 448 511 l 1,16,-1
 508 511 l 1,17,-1
 508 125 l 2,18,19
 508 71 508 71 534 2 c 1,0,-1
EndSplineSet
EndChar

StartChar: v
Encoding: 118 118 87
Width: 512
VWidth: 1504
Flags: W
HStem: 0 21G<217.35 287.002> 491 20G<5 73.4375 439.339 508>
DStem2: 65 511 5 511 0.396952 -0.917839<0 486.216> 254 63 278 0 0.410439 0.911888<0 488.151>
LayerCount: 3
Fore
SplineSet
508 511 m 1
 278 0 l 1
 226 0 l 1
 5 511 l 1
 65 511 l 1
 254 63 l 1
 448 511 l 1
 508 511 l 1
EndSplineSet
Validated: 1
Layer: 2
SplineSet
508 511 m 1,0,-1
 278 0 l 1,1,-1
 226 0 l 1,2,-1
 5 511 l 1,3,-1
 65 511 l 1,4,-1
 254 63 l 1,5,-1
 448 511 l 1,6,-1
 508 511 l 1,0,-1
EndSplineSet
EndChar

StartChar: w
Encoding: 119 119 88
Width: 762
VWidth: 1504
Flags: W
HStem: 0 21G<164.503 232.874 521.481 586.202> 491 20G<5 72.1538 348.077 417.516 697.258 763>
DStem2: 66 511 5 511 0.30896 -0.951075<0 462.394> 202 69 226 0 0.325021 0.945707<0 419.439> 411 511 381 451 0.309896 -0.95077<47.7493 464.866> 555 69 579 0 0.338785 0.940864<0 466.341>
LayerCount: 3
Fore
SplineSet
763 511 m 1
 579 0 l 1
 528 0 l 1
 381 451 l 1
 226 0 l 1
 171 0 l 1
 5 511 l 1
 66 511 l 1
 202 69 l 1
 355 511 l 1
 411 511 l 1
 555 69 l 1
 704 511 l 1
 763 511 l 1
EndSplineSet
Validated: 1
Layer: 2
SplineSet
763 511 m 1,0,-1
 579 0 l 1,1,-1
 528 0 l 1,2,-1
 381 451 l 1,3,-1
 226 0 l 1,4,-1
 171 0 l 1,5,-1
 5 511 l 1,6,-1
 66 511 l 1,7,-1
 202 69 l 1,8,-1
 355 511 l 1,9,-1
 411 511 l 1,10,-1
 555 69 l 1,11,-1
 704 511 l 1,12,-1
 763 511 l 1,0,-1
EndSplineSet
EndChar

StartChar: x
Encoding: 120 120 89
Width: 478
VWidth: 1504
Flags: W
HStem: 0 21G<0 83.3846 393.525 478> 491 20G<14 95.6522 387.444 468>
DStem2: 0 0 68 0 0.619246 0.785197<42.1087 320.909 388.557 650.792> 80 511 14 511 0.614475 -0.788936<0 262.855 325.879 605.309>
LayerCount: 3
Fore
SplineSet
478 0 m 1
 409 0 l 1
 238 221 l 1
 68 0 l 1
 0 0 l 1
 208 260 l 1
 14 511 l 1
 80 511 l 1
 242 304 l 1
 403 511 l 1
 468 511 l 1
 272 262 l 1
 478 0 l 1
EndSplineSet
Validated: 1
Layer: 2
SplineSet
478 0 m 1,0,-1
 409 0 l 1,1,-1
 238 221 l 1,2,-1
 68 0 l 1,3,-1
 0 0 l 1,4,-1
 208 260 l 1,5,-1
 14 511 l 1,6,-1
 80 511 l 1,7,-1
 242 304 l 1,8,-1
 403 511 l 1,9,-1
 468 511 l 1,10,-1
 272 262 l 1,11,-1
 478 0 l 1,0,-1
EndSplineSet
EndChar

StartChar: y
Encoding: 121 121 90
Width: 506
VWidth: 1504
Flags: W
HStem: -235 47<38.9149 81.2138> 491 20G<5 76.8222 429.732 502>
DStem2: 68 511 5 511 0.406851 -0.913495<0 473.252> 259 78 277 0 0.402979 0.915209<0 468.419>
LayerCount: 3
Fore
SplineSet
277 0 m 2
 218 -133 139 -212 41 -235 c 1
 27 -188 l 1
 112 -169 177 -100 221 17 c 1
 221 20 221 26 217 35 c 2
 5 511 l 1
 68 511 l 1
 259 78 l 1
 438 511 l 1
 502 511 l 1
 277 0 l 2
EndSplineSet
Validated: 1
Layer: 2
SplineSet
277 0 m 2,0,1
 188 -200 188 -200 41 -235 c 1,2,-1
 27 -188 l 1,3,4
 155 -159 155 -159 221 17 c 0,5,6
 221 26 221 26 217 35 c 2,7,-1
 5 511 l 1,8,-1
 68 511 l 1,9,-1
 259 78 l 1,10,-1
 438 511 l 1,11,-1
 502 511 l 1,12,-1
 277 0 l 2,0,1
EndSplineSet
EndChar

StartChar: z
Encoding: 122 122 91
Width: 482
VWidth: 1504
Flags: W
HStem: 0 50<96 453> 461 50<50 384>
DStem2: 23 38 96 50 0.649161 0.760651<56.5166 556.103>
LayerCount: 3
Back
SplineSet
453 0 m 1
 23 0 l 1
 23 36 l 1
 384 463 l 1
 41 463 l 1
 50 511 l 1
 457 511 l 1
 456 471 l 1
 96 48 l 1
 465 48 l 1
 453 0 l 1
EndSplineSet
Fore
SplineSet
453 0 m 1
 23 0 l 1
 23 38 l 1
 384 461 l 1
 41 461 l 1
 50 511 l 1
 457 511 l 1
 456 469 l 1
 96 50 l 1
 465 50 l 1
 453 0 l 1
EndSplineSet
Validated: 1
Layer: 2
SplineSet
453 0 m 1,0,-1
 23 0 l 1,1,-1
 23 38 l 1,2,-1
 384 461 l 1,3,-1
 41 461 l 1,4,-1
 50 511 l 1,5,-1
 457 511 l 1,6,-1
 456 469 l 1,7,-1
 96 50 l 1,8,-1
 465 50 l 1,9,-1
 453 0 l 1,0,-1
EndSplineSet
EndChar

StartChar: braceleft
Encoding: 123 123 92
Width: 312
VWidth: 1504
Flags: W
HStem: -116 45<175.669 271> 283 45<20 89.25> 682 45<175.669 271>
VStem: 91 54<-39.2484 200.76 410.217 650.248> 112 54<31.3936 260.968 350.667 579.629>
CounterMasks: 1 e0
LayerCount: 3
Back
SplineSet
271 -71 m 1
 271 -116 l 1
 254 -116 l 2
 146 -116 92 -68.3333 92 27 c 0
 92 46.3333 95.5 75.6667 102.5 115 c 128
 109.5 154.333 113 184.333 113 205 c 0
 113 255 82 281 20 283 c 1
 20 328 l 1
 82 330 113 356 113 406 c 0
 113 426 109.5 455.833 102.5 495.5 c 128
 95.5 535.167 92 564.667 92 584 c 0
 92 679.333 146 727 254 727 c 2
 271 727 l 1
 271 681 l 1
 248 681 l 2
 178.667 681 144 646.667 144 578 c 1
 158 476.667 165 421 165 411 c 0
 165 359.667 145 324.333 105 305 c 1
 145 285.667 165 250.667 165 200 c 0
 165 190 158 134.333 144 33 c 1
 144 -36.3333 178.667 -71 248 -71 c 2
 271 -71 l 1
EndSplineSet
Fore
SplineSet
112 406 m 3xe8
 112 439 91 551 91 584 c 3
 91 679 146 727 254 727 c 2
 271 727 l 1
 271 682 l 1
 248 682 l 2
 179 682 145 647 145 578 c 3xf0
 145 555 166 449 166 411 c 3
 166 360 146 324 106 305 c 1
 146 286 166 251 166 200 c 3xe8
 166 162 145 56 145 33 c 3
 145 -36 179 -71 248 -71 c 2
 271 -71 l 1
 271 -116 l 1
 254 -116 l 2
 146 -116 91 -68 91 27 c 3xf0
 91 61 112 171 112 205 c 3
 112 255 82 281 20 283 c 1
 20 328 l 1
 82 330 112 356 112 406 c 3xe8
EndSplineSet
Validated: 1
Layer: 2
SplineSet
112 406 m 3,0,1
 112 422 112 422 101.5 495 c 128,-1,2
 91 568 91 568 91 584 c 0,3,4
 91 727 91 727 254 727 c 2,5,-1
 271 727 l 1,6,-1
 271 682 l 1,7,-1
 248 682 l 2,8,9
 145 682 145 682 145 578 c 0,10,11
 145 568 145 568 155.5 500 c 128,-1,12
 166 432 166 432 166 411 c 0,13,14
 166 334 166 334 106 305 c 1,15,16
 166 276.5 166 276.5 166 200 c 0,17,18
 166 179 166 179 155.5 111 c 128,-1,19
 145 43 145 43 145 33 c 0,20,21
 145 -71 145 -71 248 -71 c 2,22,-1
 271 -71 l 1,23,-1
 271 -116 l 1,24,-1
 254 -116 l 2,25,26
 91 -116 91 -116 91 27 c 0,27,28
 91 44 91 44 101.5 116 c 128,-1,29
 112 188 112 188 112 205 c 0,30,31
 112 280 112 280 20 283 c 1,32,-1
 20 328 l 1,33,34
 112 331 112 331 112 406 c 3,0,1
EndSplineSet
EndChar

StartChar: bar
Encoding: 124 124 93
Width: 230
VWidth: 1504
Flags: W
VStem: 90 50<-262 794>
LayerCount: 3
Fore
SplineSet
140 794 m 1
 140 -262 l 1
 90 -262 l 1
 90 794 l 1
 140 794 l 1
EndSplineSet
Validated: 1
Layer: 2
SplineSet
140 794 m 1,0,-1
 140 -262 l 1,1,-1
 90 -262 l 1,2,-1
 90 794 l 1,3,-1
 140 794 l 1,0,-1
EndSplineSet
EndChar

StartChar: braceright
Encoding: 125 125 94
Width: 312
VWidth: 1504
Flags: W
HStem: -116 45<42 136.901> 283 45<223.25 293> 682 45<42 136.901>
VStem: 146 54<31.3712 260.118 350.667 579.629> 167 54<-39.2484 200.783 410.217 650.248>
CounterMasks: 1 e0
LayerCount: 3
Back
SplineSet
42 -116 m 1
 42 -71 l 1
 65 -71 l 2
 134.333 -71 168.667 -36.3333 168 33 c 1
 154 134.333 147 190 147 200 c 0
 147 251.333 167.333 286.333 208 305 c 1
 168 324.334 147.667 359.667 147 411 c 0
 147 421 154 476.667 168 578 c 1
 168 647.333 133.667 681.667 65 681 c 2
 42 681 l 1
 42 727 l 1
 59 727 l 2
 167 727 221 679.333 221 584 c 0
 221 564.667 217.5 535.167 210.5 495.5 c 128
 203.5 455.833 200 426 200 406 c 0
 200 356 231 330 293 328 c 1
 293 283 l 1
 231 281 200 255 200 205 c 0
 200 185 203.5 155.167 210.5 115.5 c 128
 217.5 75.8333 221 46.3333 221 27 c 0
 221 -68.3333 167 -116 59 -116 c 2
 42 -116 l 1
EndSplineSet
Fore
SplineSet
200 205 m 3xf0
 200 172 221 60 221 27 c 3
 221 -68 167 -116 59 -116 c 2
 42 -116 l 1
 42 -71 l 1
 65 -71 l 2
 134 -71 167 -36 167 33 c 3xe8
 167 56 146 162 146 200 c 3
 146 251 167 286 208 305 c 1
 168 324 146 360 146 411 c 3xf0
 146 449 167 555 167 578 c 3
 167 647 134 682 65 682 c 2
 42 682 l 1
 42 727 l 1
 59 727 l 2
 167 727 221 679 221 584 c 3xe8
 221 551 200 439 200 406 c 3
 200 356 231 330 293 328 c 1
 293 283 l 1
 231 281 200 255 200 205 c 3xf0
EndSplineSet
Validated: 1
Layer: 2
SplineSet
200 205 m 3,0,1
 200 188 200 188 210.5 116 c 128,-1,2
 221 44 221 44 221 27 c 0,3,4
 221 -116 221 -116 59 -116 c 2,5,-1
 42 -116 l 1,6,-1
 42 -71 l 1,7,-1
 65 -71 l 2,8,9
 167 -71 167 -71 167 33 c 0,10,11
 167 43 167 43 156.5 111 c 128,-1,12
 146 179 146 179 146 200 c 0,13,14
 146 276 146 276 208 305 c 1,15,16
 146 334 146 334 146 411 c 0,17,18
 146 432 146 432 156.5 500 c 128,-1,19
 167 568 167 568 167 578 c 0,20,21
 167 682 167 682 65 682 c 2,22,-1
 42 682 l 1,23,-1
 42 727 l 1,24,-1
 59 727 l 2,25,26
 221 727 221 727 221 584 c 0,27,28
 221 568 221 568 210.5 495 c 128,-1,29
 200 422 200 422 200 406 c 0,30,31
 200 331 200 331 293 328 c 1,32,-1
 293 283 l 1,33,34
 200 280 200 280 200 205 c 3,0,1
EndSplineSet
EndChar

StartChar: asciitilde
Encoding: 126 126 95
Width: 625
VWidth: 1504
Flags: W
HStem: 227 50<383.385 510.14> 325 50<114.506 245.472>
VStem: 39 54<227 304.22> 531 54<296.511 375>
LayerCount: 3
Back
SplineSet
585 375 m 1
 585 366 l 2
 585 320 572.667 284.333 548 259 c 0
 526.666 237.667 499.999 227 468 227 c 0
 428.667 227 376.167 243.333 310.5 276 c 128
 244.833 308.667 194.333 325 159 325 c 0
 111.667 325 87.3333 292.333 86 227 c 1
 39 227 l 1
 39 239 l 2
 39 281 50.8333 314.167 74.5 338.5 c 128
 98.1667 362.833 126.333 375 159 375 c 0
 197 375 249.5 359.167 316.5 327.5 c 128
 383.5 295.833 435 280 471 280 c 0
 514.333 280 537 311.667 539 375 c 1
 585 375 l 1
EndSplineSet
Fore
SplineSet
39 239 m 2
 39 315 87 375 159 375 c 3
 259 375 378 277 471 277 c 3
 506 277 529 312 531 375 c 1
 585 375 l 1
 585 366 l 2
 585 288 544 227 468 227 c 3
 367 227 246 325 159 325 c 3
 119 325 94 292 93 227 c 1
 39 227 l 1
 39 239 l 2
EndSplineSet
Validated: 1
Layer: 2
SplineSet
39 239 m 2,0,1
 39 297 39 297 72.5 336 c 128,-1,2
 106 375 106 375 159 375 c 0,3,4
 210 375 210 375 317.5 326 c 128,-1,5
 425 277 425 277 471 277 c 0,6,7
 498 277 498 277 514 302.5 c 128,-1,8
 530 328 530 328 531 375 c 1,9,-1
 585 375 l 1,10,-1
 585 366 l 2,11,12
 585 305 585 305 554 266 c 128,-1,13
 523 227 523 227 468 227 c 0,14,15
 416 227 416 227 308.5 276 c 128,-1,16
 201 325 201 325 159 325 c 0,17,18
 95 325 95 325 93 227 c 1,19,-1
 39 227 l 1,20,-1
 39 239 l 2,0,1
EndSplineSet
EndChar

StartChar: uni0E4E.alt1
Encoding: 65540 -1 99
Width: 0
VWidth: 1504
Flags: W
HStem: 694 40<-384.631 -275.391> 835 30<-298.022 -259.536> 969 40<-312.556 -192.61>
VStem: -436 45<741.814 812.99> -367 45<880.548 958.949>
LayerCount: 3
Back
SplineSet
-184 999 m 1
 -197 961 l 1
 -214.333 966.333 -233 969 -253 969 c 0
 -299 969 -322 953.333 -322 922 c 0
 -322 888.667 -297 869 -247 863 c 1
 -260 829 l 1
 -272 833 -284 835 -296 835 c 0
 -324 835 -346.833 828.667 -364.5 816 c 128
 -382.167 803.333 -391 789.667 -391 775 c 0
 -391 747.667 -368.333 734 -323 734 c 0
 -309.667 734 -293.667 738 -275 746 c 1
 -274 708 l 1
 -293.333 700 -316.333 696 -343 696 c 0
 -368.333 696 -390 703.333 -408 718 c 128
 -426 732.667 -435 752 -435 776 c 0
 -435 801.333 -425 822.5 -405 839.5 c 128
 -385 856.5 -362.333 865 -337 865 c 1
 -357 878.333 -367 897.333 -367 922 c 0
 -367 980 -328.333 1009 -251 1009 c 0
 -224.333 1009.66 -202 1006.33 -184 999 c 1
EndSplineSet
Fore
Refer: 287 3662 N 1 0 0 1 -137 0 2
Validated: 1
Layer: 2
Refer: 287 3662 N 1 0 0 1 -137 0 2
EndChar

StartChar: exclamdown
Encoding: 161 161 100
Width: 227
VWidth: 1504
Flags: W
HStem: 402 111<69.2305 156.153>
VStem: 57 111<413.847 500.77> 71 82<-211 33.5333> 86 52<68.4667 313>
LayerCount: 3
Fore
SplineSet
153 -211 m 1xa0
 71 -211 l 1xa0
 86 313 l 1
 138 313 l 1x90
 153 -211 l 1xa0
113 513 m 256
 143 513 168 487 168 457 c 256
 168 427 143 402 113 402 c 256
 83 402 57 427 57 457 c 256xc0
 57 487 83 513 113 513 c 256
EndSplineSet
Validated: 1
Layer: 2
SplineSet
153 -211 m 1,0,-1
 71 -211 l 1,1,-1
 86 313 l 1,2,-1
 138 313 l 1,3,-1
 153 -211 l 1,0,-1
113 513 m 256,4,5
 135 513 135 513 151.5 496.5 c 128,-1,6
 168 480 168 480 168 457 c 128,-1,7
 168 434 168 434 152 418 c 128,-1,8
 136 402 136 402 113 402 c 128,-1,9
 90 402 90 402 73.5 418.5 c 128,-1,10
 57 435 57 435 57 457 c 0,11,12
 57 480 57 480 73.5 496.5 c 128,-1,13
 90 513 90 513 113 513 c 256,4,5
EndSplineSet
EndChar

StartChar: cent
Encoding: 162 162 101
Width: 618
VWidth: 1504
Flags: W
HStem: 33 53<263.246 314 364 529.641> 603 21G<529.5 556.444> 638 48<316.911 521.662>
VStem: 48 59<232.261 478.492> 314 50<-89 33 684 815>
LayerCount: 3
Fore
SplineSet
107 355 m 0
 107 177 212 86 390 86 c 0
 453 86 507 96 551 116 c 1
 569 72 l 1
 521 46 455 33 372 33 c 2
 364 33 l 1
 364 -89 l 1
 314 -89 l 1
 314 36 l 1
 153 59 48 173 48 358 c 0
 48 539 158 651 314 678 c 1
 314 815 l 1
 364 815 l 1
 364 684 l 1
 371 685 382 686 396 686 c 0
 456 686 512 676 564 657 c 1
 552 603 l 1
 507 626 456 638 399 638 c 0
 216 638 107 538 107 355 c 0
EndSplineSet
Validated: 1
Layer: 2
SplineSet
107 355 m 0,0,1
 107 223 107 223 181 154.5 c 128,-1,2
 255 86 255 86 390 86 c 0,3,4
 485 86 485 86 551 116 c 1,5,-1
 569 72 l 1,6,7
 497 33 497 33 372 33 c 2,8,-1
 364 33 l 1,9,-1
 364 -89 l 1,10,-1
 314 -89 l 1,11,-1
 314 36 l 1,12,13
 191 54 191 54 119.5 138 c 128,-1,14
 48 222 48 222 48 358 c 0,15,16
 48 490 48 490 120.5 573.5 c 128,-1,17
 193 657 193 657 314 678 c 1,18,-1
 314 815 l 1,19,-1
 364 815 l 1,20,-1
 364 684 l 1,21,22
 378 686 378 686 396 686 c 0,23,24
 485 686 485 686 564 657 c 1,25,-1
 552 603 l 1,26,27
 484 638 484 638 399 638 c 0,28,29
 261 638 261 638 184 564.5 c 128,-1,30
 107 491 107 491 107 355 c 0,0,1
EndSplineSet
EndChar

StartChar: sterling
Encoding: 163 163 102
Width: 618
VWidth: 1504
Flags: W
HStem: 0 50<187 531> 325 47<87 202 262 426> 644 49<296.831 483.388>
VStem: 190 52<374.129 586.203> 214 54<145.59 323.642>
LayerCount: 3
Fore
SplineSet
531 0 m 1xe8
 86 0 l 1
 86 38 l 1
 171 90 214 157 214 238 c 0xe8
 214 261 211 290 206 325 c 1
 87 325 l 1
 87 372 l 1
 202 372 l 1
 194 420 190 460 190 493 c 0
 190 626 254 693 382 693 c 0
 423 693 465 683 507 663 c 1
 489 620 l 1
 449 636 412 644 379 644 c 0
 288 644 242 593 242 492 c 0xf0
 242 455 247 415 256 372 c 1
 426 372 l 1
 426 325 l 1
 262 325 l 1
 266 302 268 276 268 248 c 0
 268 164 241 98 187 50 c 1
 531 50 l 1
 531 0 l 1xe8
EndSplineSet
Validated: 1
Layer: 2
SplineSet
531 0 m 1,0,-1
 86 0 l 1,1,-1
 86 38 l 1,2,3
 214 116 214 116 214 238 c 0,4,5
 214 269 214 269 206 325 c 1,6,-1
 87 325 l 1,7,-1
 87 372 l 1,8,-1
 202 372 l 1,9,10
 190 444 190 444 190 493 c 0,11,12
 190 693 190 693 382 693 c 0,13,14
 444 693 444 693 507 663 c 1,15,-1
 489 620 l 1,16,17
 429 644 429 644 379 644 c 0,18,19
 242 644 242 644 242 492 c 0,20,21
 242 439 242 439 256 372 c 1,22,-1
 426 372 l 1,23,-1
 426 325 l 1,24,-1
 262 325 l 1,25,26
 268 290 268 290 268 248 c 0,27,28
 268 122 268 122 187 50 c 1,29,-1
 531 50 l 1,30,-1
 531 0 l 1,0,-1
EndSplineSet
EndChar

StartChar: currency
Encoding: 164 164 103
Width: 618
VWidth: 1504
Flags: W
HStem: 65 53<217.319 396.831> 562 53<219.034 396.886>
VStem: 33 60<243.691 432.089> 522 60<243.866 433.435>
DStem2: 77 617 33 570 0.707803 -0.70641<2.05792 89.6032 629.789 717.714> 33 110 77 65 0.707902 0.706311<0 87.3926 628.422 715.665>
LayerCount: 3
Back
SplineSet
582 338 m 0
 582 272 563 216 525 171 c 1
 585 110 l 1
 542 65 l 1
 478 128 l 1
 432 86 375 65 307 65 c 0
 242 65 185 86 137 128 c 1
 77 65 l 1
 33 110 l 1
 92 171 l 1
 53 219 33 275 33 338 c 0
 33 402 53 459 92 510 c 1
 33 570 l 1
 77 617 l 1
 137 554 l 1
 189 595 246 616 307 615 c 1
 371 615 428 595 478 554 c 1
 543 617 l 1
 585 570 l 1
 525 510 l 1
 563 465 582 408 582 338 c 0
522 338 m 0
 522 398 502 451 460 496 c 0
 418 541 367 563 307 563 c 0
 249 563 199 540 156 496 c 0
 113 452 92 399 92 338 c 256
 92 277 113 224 156 182 c 0
 199 140 249 119 307 119 c 0
 367 119 418 141 460 184 c 0
 502 227 522 279 522 338 c 0
EndSplineSet
Fore
SplineSet
582 338 m 0
 582 272 563 216 525 171 c 1
 585 110 l 1
 542 65 l 1
 478 128 l 1
 432 86 375 65 307 65 c 0
 242 65 185 86 137 128 c 1
 77 65 l 1
 33 110 l 1
 92 171 l 1
 53 219 33 275 33 338 c 0
 33 402 53 459 92 510 c 1
 33 570 l 1
 77 617 l 1
 137 554 l 1
 189 595 246 615 307 615 c 0
 371 615 428 595 478 554 c 1
 543 617 l 1
 585 570 l 1
 525 510 l 1
 563 465 582 408 582 338 c 0
522 338 m 0
 522 458 427 562 307 562 c 0
 190 562 93 456 93 338 c 256
 93 219 189 118 307 118 c 0
 426 118 522 219 522 338 c 0
EndSplineSet
Validated: 1
Layer: 2
SplineSet
582 338 m 0,0,1
 582 238 582 238 525 171 c 1,2,-1
 585 110 l 1,3,-1
 542 65 l 1,4,-1
 478 128 l 1,5,6
 409 65 409 65 307 65 c 0,7,8
 209 65 209 65 137 128 c 1,9,-1
 77 65 l 1,10,-1
 33 110 l 1,11,-1
 92 171 l 1,12,13
 33 244 33 244 33 338 c 0,14,15
 33 433 33 433 92 510 c 1,16,-1
 33 570 l 1,17,-1
 77 617 l 1,18,-1
 137 554 l 1,19,20
 214 615 214 615 307 615 c 0,21,22
 404 615 404 615 478 554 c 1,23,-1
 543 617 l 1,24,-1
 585 570 l 1,25,-1
 525 510 l 1,26,27
 582 443 582 443 582 338 c 0,0,1
522 338 m 0,28,29
 522 429 522 429 459 495.5 c 128,-1,30
 396 562 396 562 307 562 c 0,31,32
 220 562 220 562 156.5 494.5 c 128,-1,33
 93 427 93 427 93 338 c 0,34,35
 93 248 93 248 156 183 c 128,-1,36
 219 118 219 118 307 118 c 0,37,38
 396 118 396 118 459 183 c 128,-1,39
 522 248 522 248 522 338 c 0,28,29
EndSplineSet
EndChar

StartChar: yen
Encoding: 165 165 104
Width: 618
VWidth: 1504
Flags: W
HStem: 143 44<101 281 337 519> 272 45<101 281 337 519>
VStem: 281 56<29 143 187 272>
DStem2: 120 690 51 690 0.523843 -0.851815<0 368.508> 308 373 337 317 0.524861 0.851188<0 368.5>
LayerCount: 3
Fore
SplineSet
519 143 m 1
 337 143 l 1
 337 29 l 1
 281 29 l 1
 281 143 l 1
 101 143 l 1
 101 187 l 1
 281 187 l 1
 281 272 l 1
 101 272 l 1
 101 316 l 1
 281 316 l 1
 51 690 l 1
 120 690 l 1
 308 373 l 1
 496 690 l 1
 567 690 l 1
 337 317 l 1
 519 317 l 1
 519 272 l 1
 337 272 l 1
 337 187 l 1
 519 187 l 1
 519 143 l 1
EndSplineSet
Validated: 1
Layer: 2
SplineSet
519 143 m 1,0,-1
 337 143 l 1,1,-1
 337 29 l 1,2,-1
 281 29 l 1,3,-1
 281 143 l 1,4,-1
 101 143 l 1,5,-1
 101 187 l 1,6,-1
 281 187 l 1,7,-1
 281 272 l 1,8,-1
 101 272 l 1,9,-1
 101 316 l 1,10,-1
 281 316 l 1,11,-1
 51 690 l 1,12,-1
 120 690 l 1,13,-1
 308 373 l 1,14,-1
 496 690 l 1,15,-1
 567 690 l 1,16,-1
 337 317 l 1,17,-1
 519 317 l 1,18,-1
 519 272 l 1,19,-1
 337 272 l 1,20,-1
 337 187 l 1,21,-1
 519 187 l 1,22,-1
 519 143 l 1,0,-1
EndSplineSet
EndChar

StartChar: brokenbar
Encoding: 166 166 105
Width: 230
VWidth: 1504
Flags: W
VStem: 90 50<-185 190 341 714>
LayerCount: 3
Fore
SplineSet
140 341 m 1
 90 341 l 1
 90 714 l 1
 140 714 l 1
 140 341 l 1
140 -185 m 1
 90 -185 l 1
 90 190 l 1
 140 190 l 1
 140 -185 l 1
EndSplineSet
Validated: 1
Layer: 2
SplineSet
140 341 m 1,0,-1
 90 341 l 1,1,-1
 90 714 l 1,2,-1
 140 714 l 1,3,-1
 140 341 l 1,0,-1
140 -185 m 1,4,-1
 90 -185 l 1,5,-1
 90 190 l 1,6,-1
 140 190 l 1,7,-1
 140 -185 l 1,4,-1
EndSplineSet
EndChar

StartChar: section
Encoding: 167 167 106
Width: 562
VWidth: 1504
Flags: W
HStem: -59 45<167.816 353.204> 677 44<211.264 388.737>
VStem: 83 51<328.617 440.128> 116 54<534.685 638.524> 402 51<30.0552 148.576> 424 56<240.238 359.046>
LayerCount: 3
Fore
SplineSet
289 677 m 0xd0
 229 677 170 642 170 585 c 0
 170 558 185 535 214 517 c 0
 233 505 269 490 320 472 c 0
 426 436 479 384 480 317 c 0xd4
 480 271 459 228 417 188 c 1
 441 164 453 134 453 98 c 0
 453 -2 365 -59 263 -59 c 0
 200 -59 148 -42 108 -9 c 1
 132 33 l 1
 165 2 210 -14 266 -14 c 0
 339 -14 402 21 402 90 c 0
 402 133 374 168 319 193 c 0
 269 216 214 229 165 254 c 0
 110 282 83 322 83 375 c 0xe8
 83 419 105 459 150 495 c 1
 127 518 116 545 116 576 c 0
 116 669 199 721 296 721 c 256
 349 721 398 708 442 681 c 1
 417 638 l 1
 382 664 339 677 289 677 c 0xd0
424 310 m 0
 424 330 413 350 392 371 c 0
 371 392 344 408 310 420 c 0
 250 440 208 457 185 471 c 1
 151 442 134 411 134 378 c 0xe4
 134 350 152 325 187 304 c 0
 208 291 244 275 295 257 c 0
 342 240 372 226 385 217 c 1
 411 248 424 279 424 310 c 0
EndSplineSet
Validated: 1
Layer: 2
SplineSet
289 677 m 0,0,1
 242 677 242 677 206 651.5 c 128,-1,2
 170 626 170 626 170 585 c 128,-1,3
 170 544 170 544 214 517 c 0,4,5
 241 500 241 500 320 472 c 0,6,7
 478 418 478 418 480 317 c 0,8,9
 480 248 480 248 417 188 c 1,10,11
 453 152 453 152 453 98 c 0,12,13
 453 26 453 26 398 -16.5 c 128,-1,14
 343 -59 343 -59 263 -59 c 0,15,16
 169 -59 169 -59 108 -9 c 1,17,-1
 132 33 l 1,18,19
 182 -14 182 -14 266 -14 c 0,20,21
 324 -14 324 -14 363 13.5 c 128,-1,22
 402 41 402 41 402 90 c 0,23,24
 402 155 402 155 319 193 c 0,25,26
 297 203 297 203 244 222 c 128,-1,27
 191 241 191 241 165 254 c 0,28,29
 83 296 83 296 83 375 c 0,30,31
 83 441 83 441 150 495 c 1,32,33
 116 529 116 529 116 576 c 0,34,35
 116 643 116 643 168 682 c 128,-1,36
 220 721 220 721 296 721 c 0,37,38
 377 721 377 721 442 681 c 1,39,-1
 417 638 l 1,40,41
 364 677 364 677 289 677 c 0,0,1
424 310 m 0,42,43
 424 339 424 339 392 371 c 0,44,45
 361 402 361 402 310 420 c 0,46,47
 219 450 219 450 185 471 c 1,48,49
 134 427.5 134 427.5 134 378 c 0,50,51
 134 336 134 336 187 304 c 0,52,53
 220 283 220 283 295 257 c 0,54,55
 362 233 362 233 385 217 c 1,56,57
 424 263.5 424 263.5 424 310 c 0,42,43
EndSplineSet
EndChar

StartChar: dieresis
Encoding: 168 168 107
Width: 318
VWidth: 1504
Flags: W
HStem: 590 91<27.5564 106.206 214.015 292.479>
VStem: 21 92<596.556 673.901> 208 91<596.556 674.711>
LayerCount: 3
Fore
SplineSet
66 681 m 256
 92 681 113 662 113 635 c 256
 113 608 92 590 66 590 c 256
 39 590 21 608 21 635 c 256
 21 661 40 681 66 681 c 256
253 681 m 256
 280 681 299 662 299 635 c 256
 299 609 279 590 253 590 c 256
 226 590 208 608 208 635 c 256
 208 662 226 681 253 681 c 256
EndSplineSet
Validated: 1
Layer: 2
SplineSet
66 681 m 256,0,1
 86 681 86 681 99.5 668 c 128,-1,2
 113 655 113 655 113 635 c 128,-1,3
 113 615 113 615 99.5 602.5 c 128,-1,4
 86 590 86 590 66 590 c 128,-1,5
 46 590 46 590 33.5 602.5 c 128,-1,6
 21 615 21 615 21 635 c 128,-1,7
 21 655 21 655 34 668 c 128,-1,8
 47 681 47 681 66 681 c 256,0,1
253 681 m 256,9,10
 273 681 273 681 286 668 c 128,-1,11
 299 655 299 655 299 635 c 0,12,13
 299 616 299 616 286 603 c 128,-1,14
 273 590 273 590 253 590 c 128,-1,15
 233 590 233 590 220.5 602.5 c 128,-1,16
 208 615 208 615 208 635 c 128,-1,17
 208 655 208 655 220.5 668 c 128,-1,18
 233 681 233 681 253 681 c 256,9,10
EndSplineSet
EndChar

StartChar: copyright
Encoding: 169 169 108
Width: 806
VWidth: 1504
Flags: W
HStem: -5 55<292.534 513.837> 132 53<317.677 508.612> 529 49<318.516 508.778> 672 55<292.534 513.466>
VStem: 38 54<250.488 471.512> 184 60<262.33 453.598> 714 54<250.302 471.512>
LayerCount: 3
Back
SplineSet
399 132 m 0
 273 132 184 225 184 350 c 0
 184 486 272 578 406 578 c 0
 469 578 517 566 549 542 c 1
 531 496 l 1
 493 518 451 529 406 529 c 1
 298 523 244 466 244 358 c 0
 244 249 299 191 408 185 c 1
 459 185 502 198 537 223 c 1
 557 176 l 1
 519 147 466 132 399 132 c 0
769 361 m 256
 769 261 734 175 662 103 c 0
 590 31 504 -5 403 -5 c 256
 303 -5 218 31 146 103 c 0
 74 175 38 261 38 361 c 256
 38 461 74 547 146 619 c 0
 218 691 303 727 403 727 c 256
 503 727 589 691 661 619 c 0
 733 547 769 461 769 361 c 256
714 361 m 256
 714 447 684 520 623 581 c 0
 562 642 489 672 403 672 c 256
 317 672 244 642 183 581 c 0
 122 520 92 447 92 361 c 256
 92 275 122 202 183 141 c 0
 244 80 317 50 403 50 c 256
 489 50 562 80 623 141 c 0
 684 202 714 275 714 361 c 256
EndSplineSet
Fore
SplineSet
399 132 m 0
 273 132 184 225 184 350 c 0
 184 486 272 578 406 578 c 0
 469 578 517 566 549 542 c 1
 531 496 l 1
 493 518 451 529 406 529 c 0
 298 529 244 461 244 358 c 0
 244 255 299 185 408 185 c 0
 459 185 502 198 537 223 c 1
 557 176 l 1
 519 147 466 132 399 132 c 0
768 361 m 256
 768 162 603 -5 403 -5 c 256
 205 -5 38 163 38 361 c 256
 38 559 205 727 403 727 c 256
 601 727 768 559 768 361 c 256
714 361 m 256
 714 532 574 672 403 672 c 256
 232 672 92 532 92 361 c 256
 92 190 232 50 403 50 c 256
 574 50 714 190 714 361 c 256
EndSplineSet
Validated: 1
Layer: 2
SplineSet
399 132 m 0,0,1
 305 132 305 132 244.5 194 c 128,-1,2
 184 256 184 256 184 350 c 0,3,4
 184 452 184 452 245 515 c 128,-1,5
 306 578 306 578 406 578 c 0,6,7
 501 578 501 578 549 542 c 1,8,-1
 531 496 l 1,9,10
 474 529 474 529 406 529 c 0,11,12
 327 529 327 529 285.5 483 c 128,-1,13
 244 437 244 437 244 358 c 128,-1,14
 244 279 244 279 286 232 c 128,-1,15
 328 185 328 185 408 185 c 0,16,17
 484 185 484 185 537 223 c 1,18,-1
 557 176 l 1,19,20
 499 132 499 132 399 132 c 0,0,1
768 361 m 256,21,22
 768 211 768 211 660.5 103 c 128,-1,23
 553 -5 553 -5 403 -5 c 0,24,25
 255 -5 255 -5 146.5 103.5 c 128,-1,26
 38 212 38 212 38 361 c 128,-1,27
 38 510 38 510 146.5 618.5 c 128,-1,28
 255 727 255 727 403 727 c 128,-1,29
 551 727 551 727 659.5 618.5 c 128,-1,30
 768 510 768 510 768 361 c 256,21,22
714 361 m 256,31,32
 714 489 714 489 622.5 580.5 c 128,-1,33
 531 672 531 672 403 672 c 128,-1,34
 275 672 275 672 183.5 580.5 c 128,-1,35
 92 489 92 489 92 361 c 128,-1,36
 92 233 92 233 183.5 141.5 c 128,-1,37
 275 50 275 50 403 50 c 128,-1,38
 531 50 531 50 622.5 141.5 c 128,-1,39
 714 233 714 233 714 361 c 256,31,32
EndSplineSet
EndChar

StartChar: ordfeminine
Encoding: 170 170 109
Width: 370
VWidth: 1504
Flags: W
HStem: 367 45<100.688 224.837> 548 42<133.182 262> 675 46<93.3192 238.38>
VStem: 36 53<424.039 514.434> 262 52<445.973 548 590 651.515> 272 47<372 421>
LayerCount: 3
Fore
SplineSet
262 600 m 2xf8
 262 649 222 675 173 675 c 3
 139 675 108 665 80 644 c 1
 63 681 l 1
 100 707 141 721 184 721 c 3
 271 721 314 667 314 560 c 2
 314 459 l 2xf8
 314 430 316 401 319 372 c 1
 272 372 l 1xf4
 265 421 l 1
 237 385 199 367 152 367 c 3
 75 367 36 401 36 469 c 3
 36 547 111 587 262 590 c 1
 262 600 l 2xf8
262 484 m 2
 262 548 l 1
 147 548 89 522 89 469 c 3
 89 431 113 412 161 412 c 3
 198 412 262 446 262 484 c 2
EndSplineSet
Validated: 1
Layer: 2
SplineSet
262 600 m 2,0,1
 262 635 262 635 236.5 655 c 128,-1,2
 211 675 211 675 173 675 c 0,3,4
 121 675 121 675 80 644 c 1,5,-1
 63 681 l 1,6,7
 120 721 120 721 184 721 c 0,8,9
 314 721 314 721 314 560 c 2,10,-1
 314 459 l 2,11,12
 314 420 314 420 319 372 c 1,13,-1
 272 372 l 1,14,-1
 265 421 l 1,15,16
 223 367 223 367 152 367 c 0,17,18
 36 367 36 367 36 469 c 0,19,20
 36 586 36 586 262 590 c 1,21,-1
 262 600 l 2,0,1
262 484 m 2,22,-1
 262 548 l 1,23,24
 89 548 89 548 89 469 c 0,25,26
 89 412 89 412 161 412 c 0,27,28
 192 412 192 412 227 434.5 c 128,-1,29
 262 457 262 457 262 484 c 2,22,-1
EndSplineSet
EndChar

StartChar: guillemotleft
Encoding: 171 171 110
Width: 448
VWidth: 1504
Flags: W
DStem2: 17 266 80 266 0.63828 0.769804<40.2116 258.507> 80 266 17 266 0.652399 -0.757876<0 214.877> 184 266 247 266 0.63828 0.769804<40.2116 258.507> 247 266 184 266 0.652399 -0.757876<0 214.225>
LayerCount: 3
Fore
SplineSet
350 72 m 1
 184 266 l 1
 349 465 l 1
 412 465 l 1
 247 266 l 1
 414 72 l 1
 350 72 l 1
184 72 m 1
 17 266 l 1
 182 465 l 1
 245 465 l 1
 80 266 l 1
 247 72 l 1
 184 72 l 1
EndSplineSet
Validated: 1
Layer: 2
SplineSet
350 72 m 1,0,-1
 184 266 l 1,1,-1
 349 465 l 1,2,-1
 412 465 l 1,3,-1
 247 266 l 1,4,-1
 414 72 l 1,5,-1
 350 72 l 1,0,-1
184 72 m 1,6,-1
 17 266 l 1,7,-1
 182 465 l 1,8,-1
 245 465 l 1,9,-1
 80 266 l 1,10,-1
 247 72 l 1,11,-1
 184 72 l 1,6,-1
EndSplineSet
EndChar

StartChar: logicalnot
Encoding: 172 172 111
Width: 631
VWidth: 1504
Flags: W
HStem: 360 49<35 523>
VStem: 523 59<137 360>
LayerCount: 3
Fore
SplineSet
582 137 m 1
 523 137 l 1
 523 360 l 1
 35 360 l 1
 35 409 l 1
 582 409 l 1
 582 137 l 1
EndSplineSet
Validated: 1
Layer: 2
SplineSet
582 137 m 1,0,-1
 523 137 l 1,1,-1
 523 360 l 1,2,-1
 35 360 l 1,3,-1
 35 409 l 1,4,-1
 582 409 l 1,5,-1
 582 137 l 1,0,-1
EndSplineSet
EndChar

StartChar: registered
Encoding: 174 174 112
Width: 806
VWidth: 1504
Flags: W
HStem: -5 55<292.534 513.837> 331 56<323 456.398> 537 53<323.638 472.947> 672 55<292.534 513.466>
VStem: 38 54<250.488 471.512> 263 60<140 331 387 534.595> 498 59<408.465 511.709> 513 59<140 240.575> 714 54<250.302 471.512>
LayerCount: 3
Back
SplineSet
769 361 m 256xfc80
 769 261 734 175 662 103 c 0
 590 31 504 -5 403 -5 c 256
 303 -5 218 31 146 103 c 0
 74 175 38 261 38 361 c 256
 38 461 74 547 146 619 c 0
 218 691 303 727 403 727 c 256
 503 727 589 691 661 619 c 0
 733 547 769 461 769 361 c 256xfc80
714 361 m 256
 714 447 684 520 623 581 c 0
 562 642 489 672 403 672 c 256
 317 672 244 642 183 581 c 0
 122 520 92 447 92 361 c 256
 92 275 122 202 183 141 c 0
 244 80 317 50 403 50 c 256
 489 50 562 80 623 141 c 0
 684 202 714 275 714 361 c 256
388 590 m 1
 482 590 557 551 557 463 c 0xfe80
 557 411 536 374 495 352 c 1
 534 317 560 246 572 140 c 1
 513 140 l 1xfd80
 495 267 462 331 415 331 c 2
 323 331 l 1
 323 140 l 1
 263 140 l 1
 263 578 l 1
 299 585 341 589 388 590 c 1
405 387 m 2
 455 387 498 408 498 456 c 0
 498 510 463 537 394 537 c 0
 367 537 343 535 323 532 c 1
 323 387 l 1
 405 387 l 2
EndSplineSet
Fore
SplineSet
768 361 m 256xfc80
 768 162 603 -5 403 -5 c 256
 205 -5 38 163 38 361 c 256
 38 559 205 727 403 727 c 256
 601 727 768 559 768 361 c 256xfc80
714 361 m 256
 714 532 574 672 403 672 c 256
 232 672 92 532 92 361 c 256
 92 190 232 50 403 50 c 256
 574 50 714 190 714 361 c 256
388 590 m 0
 482 590 557 551 557 463 c 0xfe80
 557 411 536 374 495 352 c 1
 534 317 560 246 572 140 c 1
 513 140 l 1xfd80
 495 267 462 331 415 331 c 2
 323 331 l 1
 323 140 l 1
 263 140 l 1
 263 578 l 1
 299 585 341 590 388 590 c 0
405 387 m 2
 455 387 498 408 498 456 c 0
 498 510 463 537 394 537 c 0
 367 537 343 535 323 532 c 1
 323 387 l 1
 405 387 l 2
EndSplineSet
Validated: 1
Layer: 2
SplineSet
768 361 m 256,0,1
 768 211 768 211 660.5 103 c 128,-1,2
 553 -5 553 -5 403 -5 c 0,3,4
 255 -5 255 -5 146.5 103.5 c 128,-1,5
 38 212 38 212 38 361 c 128,-1,6
 38 510 38 510 146.5 618.5 c 128,-1,7
 255 727 255 727 403 727 c 128,-1,8
 551 727 551 727 659.5 618.5 c 128,-1,9
 768 510 768 510 768 361 c 256,0,1
714 361 m 256,10,11
 714 489 714 489 622.5 580.5 c 128,-1,12
 531 672 531 672 403 672 c 128,-1,13
 275 672 275 672 183.5 580.5 c 128,-1,14
 92 489 92 489 92 361 c 128,-1,15
 92 233 92 233 183.5 141.5 c 128,-1,16
 275 50 275 50 403 50 c 128,-1,17
 531 50 531 50 622.5 141.5 c 128,-1,18
 714 233 714 233 714 361 c 256,10,11
388 590 m 0,19,20
 463 590 463 590 510 558 c 128,-1,21
 557 526 557 526 557 463 c 0,22,23
 557 385 557 385 495 352 c 1,24,25
 554 299 554 299 572 140 c 1,26,-1
 513 140 l 1,27,28
 486 331 486 331 415 331 c 2,29,-1
 323 331 l 1,30,-1
 323 140 l 1,31,-1
 263 140 l 1,32,-1
 263 578 l 1,33,34
 325 590 325 590 388 590 c 0,19,20
405 387 m 2,35,36
 445 387 445 387 471.5 404.5 c 128,-1,37
 498 422 498 422 498 456 c 0,38,39
 498 537 498 537 394 537 c 0,40,41
 356 537 356 537 323 532 c 1,42,-1
 323 387 l 1,43,-1
 405 387 l 2,35,36
EndSplineSet
EndChar

StartChar: macron
Encoding: 175 175 113
Width: 529
VWidth: 1504
Flags: W
HStem: 794 47<0 529>
LayerCount: 3
Fore
SplineSet
529 841 m 1
 529 794 l 1
 0 794 l 1
 0 841 l 1
 529 841 l 1
EndSplineSet
Validated: 1
Layer: 2
SplineSet
529 841 m 1,0,-1
 529 794 l 1,1,-1
 0 794 l 1,2,-1
 0 841 l 1,3,-1
 529 841 l 1,0,-1
EndSplineSet
EndChar

StartChar: degree
Encoding: 176 176 114
Width: 318
VWidth: 1504
Flags: W
HStem: 469 44<102.469 213.854> 683 44<104.619 213.098>
VStem: 30 45<541.46 653.404> 242 45<541.242 653.404>
LayerCount: 3
Fore
SplineSet
158 727 m 256
 228 727 287 667 287 597 c 256
 287 527 228 469 158 469 c 256
 88 469 30 528 30 597 c 256
 30 667 88 727 158 727 c 256
158 513 m 256
 204 513 242 551 242 597 c 256
 242 643 204 683 158 683 c 256
 112 683 75 643 75 597 c 256
 75 551 112 513 158 513 c 256
EndSplineSet
Validated: 1
Layer: 2
SplineSet
158 727 m 256,0,1
 210 727 210 727 248.5 688.5 c 128,-1,2
 287 650 287 650 287 597 c 0,3,4
 287 545 287 545 249 507 c 128,-1,5
 211 469 211 469 158 469 c 0,6,7
 106 469 106 469 68 507 c 128,-1,8
 30 545 30 545 30 597 c 0,9,10
 30 650 30 650 68 688.5 c 128,-1,11
 106 727 106 727 158 727 c 256,0,1
158 513 m 256,12,13
 192 513 192 513 217 537.5 c 128,-1,14
 242 562 242 562 242 597 c 128,-1,15
 242 632 242 632 217 657.5 c 128,-1,16
 192 683 192 683 158 683 c 128,-1,17
 124 683 124 683 99.5 657.5 c 128,-1,18
 75 632 75 632 75 597 c 128,-1,19
 75 562 75 562 99.5 537.5 c 128,-1,20
 124 513 124 513 158 513 c 256,12,13
EndSplineSet
EndChar

StartChar: plusminus
Encoding: 177 177 115
Width: 618
VWidth: 1504
Flags: W
HStem: 0 48<57 561> 302 48<57 283 335 561>
VStem: 283 52<102 302 350 537>
LayerCount: 3
Fore
SplineSet
561 302 m 1
 335 302 l 1
 335 102 l 1
 283 102 l 1
 283 302 l 1
 57 302 l 1
 57 350 l 1
 283 350 l 1
 283 537 l 1
 335 537 l 1
 335 350 l 1
 561 350 l 1
 561 302 l 1
561 0 m 1
 57 0 l 1
 57 48 l 1
 561 48 l 1
 561 0 l 1
EndSplineSet
Validated: 1
Layer: 2
SplineSet
561 302 m 1,0,-1
 335 302 l 1,1,-1
 335 102 l 1,2,-1
 283 102 l 1,3,-1
 283 302 l 1,4,-1
 57 302 l 1,5,-1
 57 350 l 1,6,-1
 283 350 l 1,7,-1
 283 537 l 1,8,-1
 335 537 l 1,9,-1
 335 350 l 1,10,-1
 561 350 l 1,11,-1
 561 302 l 1,0,-1
561 0 m 1,12,-1
 57 0 l 1,13,-1
 57 48 l 1,14,-1
 561 48 l 1,15,-1
 561 0 l 1,12,-1
EndSplineSet
EndChar

StartChar: twosuperior
Encoding: 178 178 116
Width: 382
VWidth: 1504
Flags: W
HStem: 295 46<107 310> 594 21G<63 116.5> 677 47<137.52 246.579>
VStem: 63 51<601.765 651.438> 259 51<552.886 664.5>
DStem2: 141 453 107 341 0.694136 0.719844<-103.805 190.485>
LayerCount: 3
Fore
SplineSet
190 724 m 0
 259 724 310 681 310 612 c 0
 310 571 283 522 229 466 c 0
 189 424 148 382 107 341 c 1
 316 341 l 1
 310 295 l 1
 38 295 l 1
 40 336 74 389 141 453 c 0
 168 478 194 505 220 532 c 0
 246 559 259 585 259 612 c 0
 259 655 237 677 194 677 c 0
 146 677 119 649 114 594 c 1
 63 603 l 1
 70 673 116 724 190 724 c 0
EndSplineSet
Validated: 1
Layer: 2
SplineSet
190 724 m 0,0,1
 243 724 243 724 276.5 693.5 c 128,-1,2
 310 663 310 663 310 612 c 0,3,4
 310 550 310 550 229 466 c 0,5,6
 169 403 169 403 107 341 c 1,7,-1
 316 341 l 1,8,-1
 310 295 l 1,9,-1
 38 295 l 1,10,11
 41 358 41 358 141 453 c 0,12,13
 168 478 168 478 220 532 c 0,14,15
 259 572 259 572 259 612 c 0,16,17
 259 677 259 677 194 677 c 0,18,19
 122 677 122 677 114 594 c 1,20,-1
 63 603 l 1,21,22
 68 657 68 657 102 690.5 c 128,-1,23
 136 724 136 724 190 724 c 0,0,1
EndSplineSet
EndChar

StartChar: threesuperior
Encoding: 179 179 117
Width: 382
VWidth: 1504
Flags: W
HStem: 295 49<85.0968 232.142> 675 50<134.164 240.723>
VStem: 242 50<602.044 671.639> 274 49<385.089 500.686>
LayerCount: 3
Fore
SplineSet
323 448 m 0xd0
 323 350 252 295 153 295 c 0
 112 295 79 305 53 325 c 1
 75 373 l 1
 98 354 125 344 155 344 c 0
 223 344 274 382 274 447 c 0xd0
 274 491 253 513 211 513 c 0
 183 513 161 506 144 492 c 1
 123 529 l 1
 173 564 201 585 208 590 c 0
 231 609 242 628 242 645 c 0
 242 665 226 675 193 675 c 0
 152 675 122 653 105 609 c 1
 62 632 l 1
 89 694 134 725 197 725 c 256
 260 725 292 699 292 647 c 0xe0
 292 607 253 564 224 552 c 1
 290 548 323 513 323 448 c 0xd0
EndSplineSet
Validated: 1
Layer: 2
SplineSet
323 448 m 0,0,1
 323 376 323 376 276 335.5 c 128,-1,2
 229 295 229 295 153 295 c 0,3,4
 92 295 92 295 53 325 c 1,5,-1
 75 373 l 1,6,7
 110 344 110 344 155 344 c 0,8,9
 207 344 207 344 240.5 371.5 c 128,-1,10
 274 399 274 399 274 447 c 0,11,12
 274 513 274 513 211 513 c 0,13,14
 169 513 169 513 144 492 c 1,15,-1
 123 529 l 1,16,17
 145 545 145 545 164 558.5 c 128,-1,18
 183 572 183 572 195 581 c 128,-1,19
 207 590 207 590 208 590 c 0,20,21
 242 618 242 618 242 645 c 0,22,23
 242 675 242 675 193 675 c 0,24,25
 130 675 130 675 105 609 c 1,26,-1
 62 632 l 1,27,28
 102.5 725 102.5 725 197 725 c 256,29,30
 292 725 292 725 292 647 c 0,31,32
 292 619 292 619 270 590.5 c 128,-1,33
 248 562 248 562 224 552 c 1,34,35
 323 546 323 546 323 448 c 0,0,1
EndSplineSet
EndChar

StartChar: acute
Encoding: 180 180 118
Width: 318
VWidth: 1504
Flags: W
HStem: 794 137
VStem: 81 151
LayerCount: 3
Fore
SplineSet
128 794 m 1
 81 794 l 1
 156 931 l 1
 232 931 l 1
 128 794 l 1
EndSplineSet
Validated: 1
Layer: 2
SplineSet
128 794 m 1,0,-1
 81 794 l 1,1,-1
 156 931 l 1,2,-1
 232 931 l 1,3,-1
 128 794 l 1,0,-1
EndSplineSet
EndChar

StartChar: micro
Encoding: 181 181 119
Width: 610
VWidth: 1504
Flags: W
HStem: -14 52<208.842 372.989> 0 21G<480.5 539> 491 20G<86 143 471 528>
VStem: 86 57<-211 63 109.24 511> 471 57<1.31104 95 129.098 511>
LayerCount: 3
Back
SplineSet
539 0 m 1x78
 483 0 l 1x78
 478 28 475 54 475 78 c 2
 475 95 l 1
 418 23 354 -13 283 -14 c 0
 225 -14 178 12 143 63 c 1
 143 -211 l 1
 86 -211 l 1
 86 511 l 1
 143 511 l 1
 143 220 l 2
 143 99 194 38 296 38 c 0xb8
 340 38 380 55 416 88 c 0
 452 121 471 159 471 200 c 2
 471 511 l 1
 528 511 l 1
 528 125 l 2
 528 63 532 21 539 0 c 1x78
EndSplineSet
Fore
SplineSet
539 0 m 1x78
 483 0 l 1x78
 478 28 475 54 475 78 c 2
 475 95 l 1
 418 23 354 -14 283 -14 c 0
 225 -14 178 12 143 63 c 1
 143 -211 l 1
 86 -211 l 1
 86 511 l 1
 143 511 l 1
 143 220 l 2
 143 99 194 38 296 38 c 0xb8
 380 38 471 117 471 200 c 2
 471 511 l 1
 528 511 l 1
 528 125 l 2
 528 63 532 21 539 0 c 1x78
EndSplineSet
Validated: 1
Layer: 2
SplineSet
539 0 m 1,0,-1
 483 0 l 1,1,2
 475 45 475 45 475 78 c 2,3,-1
 475 95 l 1,4,5
 389 -14 389 -14 283 -14 c 0,6,7
 196 -14 196 -14 143 63 c 1,8,-1
 143 -211 l 1,9,-1
 86 -211 l 1,10,-1
 86 511 l 1,11,-1
 143 511 l 1,12,-1
 143 220 l 2,13,14
 143 38 143 38 296 38 c 0,15,16
 360 38 360 38 415.5 88.5 c 128,-1,17
 471 139 471 139 471 200 c 2,18,-1
 471 511 l 1,19,-1
 528 511 l 1,20,-1
 528 125 l 2,21,22
 528 33 528 33 539 0 c 1,0,-1
EndSplineSet
EndChar

StartChar: paragraph
Encoding: 182 182 120
Width: 562
VWidth: 1504
Flags: W
HStem: 666 48<360 431.303>
VStem: 68 292<392.352 589.85> 307 53<-95 271> 432 51<-95 666>
LayerCount: 3
Fore
SplineSet
483 -95 m 1xd0
 432 -95 l 1
 432 666 l 1
 360 666 l 1
 360 -95 l 1
 307 -95 l 1
 307 271 l 1xb0
 301 271 l 2
 173 271 68 358 68 483 c 0
 68 638 167 714 366 714 c 0
 419 714 458 712 483 707 c 1
 483 -95 l 1xd0
EndSplineSet
Validated: 1
Layer: 2
SplineSet
483 -95 m 1,0,-1
 432 -95 l 1,1,-1
 432 666 l 1,2,-1
 360 666 l 1,3,-1
 360 -95 l 1,4,-1
 307 -95 l 1,5,-1
 307 271 l 1,6,-1
 301 271 l 2,7,8
 203 271 203 271 135.5 331 c 128,-1,9
 68 391 68 391 68 483 c 0,10,11
 68 714 68 714 366 714 c 0,12,13
 448 714 448 714 483 707 c 1,14,-1
 483 -95 l 1,0,-1
EndSplineSet
EndChar

StartChar: periodcentered
Encoding: 183 183 121
Width: 243
VWidth: 1504
Flags: W
HStem: 221 104<79.1808 162.097>
VStem: 69 104<231.181 314.097>
LayerCount: 3
Fore
SplineSet
120 325 m 256
 148 325 173 300 173 272 c 256
 173 244 148 221 120 221 c 256
 92 221 69 244 69 272 c 256
 69 300 92 325 120 325 c 256
EndSplineSet
Validated: 1
Layer: 2
SplineSet
120 325 m 256,0,1
 141 325 141 325 157 309 c 128,-1,2
 173 293 173 293 173 272 c 128,-1,3
 173 251 173 251 157 236 c 128,-1,4
 141 221 141 221 120 221 c 128,-1,5
 99 221 99 221 84 236 c 128,-1,6
 69 251 69 251 69 272 c 128,-1,7
 69 293 69 293 84 309 c 128,-1,8
 99 325 99 325 120 325 c 256,0,1
EndSplineSet
EndChar

StartChar: cedilla
Encoding: 184 184 122
Width: 318
VWidth: 1504
Flags: W
HStem: -209 38<61.5543 176.684>
VStem: 184 46<-164.323 -100.528>
LayerCount: 3
Fore
SplineSet
230 -122 m 0
 230 -180 195 -209 125 -209 c 0
 101 -209 77 -203 53 -190 c 1
 68 -156 l 1
 89 -166 109 -171 126 -171 c 0
 164 -171 184 -157 184 -129 c 0
 184 -104 152 -89 89 -84 c 1
 147 6 l 1
 196 6 l 1
 155 -51 l 1
 205 -63 230 -87 230 -122 c 0
EndSplineSet
Validated: 1
Layer: 2
SplineSet
230 -122 m 0,0,1
 230 -209 230 -209 125 -209 c 0,2,3
 88 -209 88 -209 53 -190 c 1,4,-1
 68 -156 l 1,5,6
 100 -171 100 -171 126 -171 c 0,7,8
 184 -171 184 -171 184 -129 c 0,9,10
 184 -92 184 -92 89 -84 c 1,11,-1
 147 6 l 1,12,-1
 196 6 l 1,13,-1
 155 -51 l 1,14,15
 230 -69 230 -69 230 -122 c 0,0,1
EndSplineSet
EndChar

StartChar: onesuperior
Encoding: 185 185 123
Width: 382
VWidth: 1504
Flags: W
HStem: 302 36<108 174 227 292> 597 21G<101.444 139.8> 708 20G<173.474 206.5>
VStem: 174 53<338 647>
DStem2: 89 633 117 597 0.747795 0.66393<0 72.8576>
LayerCount: 3
Fore
SplineSet
292 302 m 1
 108 302 l 1
 108 338 l 1
 174 338 l 1
 174 647 l 1
 117 597 l 1
 89 633 l 1
 196 728 l 1
 217 728 227 712 227 686 c 2
 227 338 l 1
 292 338 l 1
 292 302 l 1
EndSplineSet
Validated: 1
Layer: 2
SplineSet
292 302 m 1,0,-1
 108 302 l 1,1,-1
 108 338 l 1,2,-1
 174 338 l 1,3,-1
 174 647 l 1,4,-1
 117 597 l 1,5,-1
 89 633 l 1,6,-1
 196 728 l 1,7,8
 227 728 227 728 227 686 c 2,9,-1
 227 338 l 1,10,-1
 292 338 l 1,11,-1
 292 302 l 1,0,-1
EndSplineSet
EndChar

StartChar: ordmasculine
Encoding: 186 186 124
Width: 428
VWidth: 1504
Flags: W
HStem: 358 53<143.305 284.278> 674 53<143.526 284.278>
VStem: 30 53<471.094 612.489> 346 53<471.737 612.278>
LayerCount: 3
Fore
SplineSet
214 358 m 0
 114 358 30 441 30 542 c 0
 30 641 114 727 214 727 c 0
 312 727 399 640 399 542 c 0
 399 443 312 358 214 358 c 0
214 411 m 256
 285 411 346 471 346 542 c 256
 346 613 285 674 214 674 c 256
 143 674 83 613 83 542 c 256
 83 470 142 411 214 411 c 256
EndSplineSet
Validated: 1
Layer: 2
SplineSet
214 358 m 0,0,1
 139 358 139 358 84.5 412 c 128,-1,2
 30 466 30 466 30 542 c 0,3,4
 30 617 30 617 84.5 672 c 128,-1,5
 139 727 139 727 214 727 c 0,6,7
 288 727 288 727 343.5 671.5 c 128,-1,8
 399 616 399 616 399 542 c 128,-1,9
 399 468 399 468 343.5 413 c 128,-1,10
 288 358 288 358 214 358 c 0,0,1
214 411 m 256,11,12
 267 411 267 411 306.5 450 c 128,-1,13
 346 489 346 489 346 542 c 128,-1,14
 346 595 346 595 306.5 634.5 c 128,-1,15
 267 674 267 674 214 674 c 128,-1,16
 161 674 161 674 122 634.5 c 128,-1,17
 83 595 83 595 83 542 c 0,18,19
 83 488 83 488 121.5 449.5 c 128,-1,20
 160 411 160 411 214 411 c 256,11,12
EndSplineSet
EndChar

StartChar: guillemotright
Encoding: 187 187 125
Width: 442
VWidth: 1504
Flags: W
DStem2: 29 72 92 72 0.652399 0.757876<41.1011 255.979> 93 465 30 465 0.640564 -0.767905<0 218.791> 196 72 259 72 0.652399 0.757876<41.1011 255.979> 260 465 197 465 0.640564 -0.767905<0 218.791>
LayerCount: 3
Fore
SplineSet
92 72 m 1
 29 72 l 1
 196 266 l 1
 30 465 l 1
 93 465 l 1
 259 266 l 1
 92 72 l 1
259 72 m 1
 196 72 l 1
 363 266 l 1
 197 465 l 1
 260 465 l 1
 426 266 l 1
 259 72 l 1
EndSplineSet
Validated: 1
Layer: 2
SplineSet
92 72 m 1,0,-1
 29 72 l 1,1,-1
 196 266 l 1,2,-1
 30 465 l 1,3,-1
 93 465 l 1,4,-1
 259 266 l 1,5,-1
 92 72 l 1,0,-1
259 72 m 1,6,-1
 196 72 l 1,7,-1
 363 266 l 1,8,-1
 197 465 l 1,9,-1
 260 465 l 1,10,-1
 426 266 l 1,11,-1
 259 72 l 1,6,-1
EndSplineSet
EndChar

StartChar: onequarter
Encoding: 188 188 126
Width: 806
VWidth: 1504
Flags: W
HStem: 0 21G<170 231.927 636 689> 93 50<523 636 689 752> 280 36<65 131 184 248>
VStem: 131 53<316 618> 636 53<0 93 143 366>
DStem2: 45 605 74 569 0.75127 0.659995<0 73.1892> 170 -14 220 -14 0.512201 0.858866<25.61 833.658>
LayerCount: 3
Back
SplineSet
636 143 m 1
 636 366 l 1
 608 342 582.667 305.667 560 257 c 0
 538 213 525.667 175 523 143 c 1
 636 143 l 1
752 93 m 1
 689 93 l 1
 689 0 l 1
 636 0 l 1
 636 93 l 1
 468 93 l 1
 469.333 160.333 488.333 229 525 299 c 0
 569 384.333 623.667 428 689 430 c 1
 689 143 l 1
 755 143 l 1
 752 93 l 1
220 -14 m 1
 170 -14 l 1
 597 702 l 1
 647 702 l 1
 220 -14 l 1
248 280 m 1
 65 280 l 1
 65 316 l 1
 131 316 l 1
 131 618 l 1
 74 569 l 1
 45 605 l 1
 152 699 l 1
 173.333 697 184 683 184 657 c 2
 184 316 l 1
 248 316 l 1
 248 280 l 1
EndSplineSet
Fore
SplineSet
636 143 m 1
 636 366 l 1
 592 328 530 217 523 143 c 1
 636 143 l 1
752 93 m 1
 689 93 l 1
 689 0 l 1
 636 0 l 1
 636 93 l 1
 468 93 l 1
 470 231 561 430 689 430 c 1
 689 143 l 1
 755 143 l 1
 752 93 l 1
220 -14 m 1
 170 -14 l 1
 597 702 l 1
 647 702 l 1
 220 -14 l 1
248 280 m 1
 65 280 l 1
 65 316 l 1
 131 316 l 1
 131 618 l 1
 74 569 l 1
 45 605 l 1
 152 699 l 1
 173 699 184 683 184 657 c 2
 184 316 l 1
 248 316 l 1
 248 280 l 1
EndSplineSet
Validated: 1
Layer: 2
SplineSet
636 143 m 1,0,-1
 636 366 l 1,1,2
 601 336 601 336 564.5 266 c 128,-1,3
 528 196 528 196 523 143 c 1,4,-1
 636 143 l 1,0,-1
752 93 m 1,5,-1
 689 93 l 1,6,-1
 689 0 l 1,7,-1
 636 0 l 1,8,-1
 636 93 l 1,9,-1
 468 93 l 1,10,11
 469 164 469 164 496.5 241 c 128,-1,12
 524 318 524 318 576.5 374 c 128,-1,13
 629 430 629 430 689 430 c 1,14,-1
 689 143 l 1,15,-1
 755 143 l 1,16,-1
 752 93 l 1,5,-1
220 -14 m 1,17,-1
 170 -14 l 1,18,-1
 597 702 l 1,19,-1
 647 702 l 1,20,-1
 220 -14 l 1,17,-1
248 280 m 1,21,-1
 65 280 l 1,22,-1
 65 316 l 1,23,-1
 131 316 l 1,24,-1
 131 618 l 1,25,-1
 74 569 l 1,26,-1
 45 605 l 1,27,-1
 152 699 l 1,28,29
 184 699 184 699 184 657 c 2,30,-1
 184 316 l 1,31,-1
 248 316 l 1,32,-1
 248 280 l 1,21,-1
EndSplineSet
LCarets2: 2 0 0
Ligature2: "'frac' Diagonal Fractions in Latin lookup 0 subtable" one fraction four
Ligature2: "'frac' Diagonal Fractions in Latin lookup 0 subtable" one slash four
EndChar

StartChar: onehalf
Encoding: 189 189 127
Width: 806
VWidth: 1504
Flags: W
HStem: -14 21G<170 231.927> 0 47<564 761> 280 36<65 131 184 248> 382 47<590.148 698.232>
VStem: 131 53<316 618> 514 52<306.788 358.443> 710 53<256.34 369.935>
DStem2: 45 605 74 569 0.75127 0.659995<0 73.1892> 170 -14 220 -14 0.512201 0.858866<25.61 833.658> 593 158 681 171 0.700708 0.713448<-97.7839 187.007>
LayerCount: 3
Back
SplineSet
220 -14 m 1
 170 -14 l 1
 597 702 l 1
 647 702 l 1
 220 -14 l 1
248 280 m 1
 65 280 l 1
 65 316 l 1
 131 316 l 1
 131 618 l 1
 74 569 l 1
 45 605 l 1
 152 699 l 1
 173.333 697 184 683 184 657 c 2
 184 316 l 1
 248 316 l 1
 248 280 l 1
761 0 m 1
 489 0 l 1
 491 41.3333 525.667 94 593 158 c 0
 620.333 183.333 646.667 209.5 672 236.5 c 128
 697.333 263.5 710 290.333 710 317 c 0
 710 360.333 688.333 382 645 382 c 0
 597 382 570.667 354.333 566 299 c 1
 514 308 l 1
 518 346 531.667 375.667 555 397 c 128
 578.333 418.333 607 429 641 429 c 0
 677 429 706.333 419.167 729 399.5 c 128
 751.667 379.833 763 352.333 763 317 c 0
 763 275.667 735.667 227 681 171 c 0
 639.667 129 600.667 87.6667 564 47 c 1
 767 47 l 1
 761 0 l 1
EndSplineSet
Fore
SplineSet
220 -14 m 1xbe
 170 -14 l 1
 597 702 l 1
 647 702 l 1
 220 -14 l 1xbe
248 280 m 1
 65 280 l 1
 65 316 l 1
 131 316 l 1
 131 618 l 1
 74 569 l 1
 45 605 l 1
 152 699 l 1
 173 699 184 683 184 657 c 2
 184 316 l 1
 248 316 l 1
 248 280 l 1
641 429 m 0
 712 429 763 388 763 317 c 0
 763 276 736 227 681 171 c 0
 640 129 601 88 564 47 c 1
 767 47 l 1
 761 0 l 1
 489 0 l 1x7e
 491 41 526 94 593 158 c 0
 620 183 647 209 672 236 c 0
 697 263 710 290 710 317 c 0
 710 360 688 382 645 382 c 0
 597 382 571 354 566 299 c 1
 514 308 l 1
 521 378 567 429 641 429 c 0
EndSplineSet
Validated: 1
Layer: 2
SplineSet
220 -14 m 1,0,-1
 170 -14 l 1,1,-1
 597 702 l 1,2,-1
 647 702 l 1,3,-1
 220 -14 l 1,0,-1
248 280 m 1,4,-1
 65 280 l 1,5,-1
 65 316 l 1,6,-1
 131 316 l 1,7,-1
 131 618 l 1,8,-1
 74 569 l 1,9,-1
 45 605 l 1,10,-1
 152 699 l 1,11,12
 184 699 184 699 184 657 c 2,13,-1
 184 316 l 1,14,-1
 248 316 l 1,15,-1
 248 280 l 1,4,-1
641 429 m 128,-1,17
 695 429 695 429 729 399 c 128,-1,18
 763 369 763 369 763 317 c 0,19,20
 763 254 763 254 681 171 c 0,21,22
 614 102 614 102 564 47 c 1,23,-1
 767 47 l 1,24,-1
 761 0 l 1,25,-1
 489 0 l 1,26,27
 492 62 492 62 593 158 c 0,28,29
 641 202 641 202 672 236 c 0,30,31
 710 277 710 277 710 317 c 0,32,33
 710 382 710 382 645 382 c 0,34,35
 574 382 574 382 566 299 c 1,36,-1
 514 308 l 1,37,38
 519 362 519 362 553 395.5 c 128,-1,16
 587 429 587 429 641 429 c 128,-1,17
EndSplineSet
LCarets2: 2 0 0
Ligature2: "'frac' Diagonal Fractions in Latin lookup 0 subtable" one fraction two
Ligature2: "'frac' Diagonal Fractions in Latin lookup 0 subtable" one slash two
EndChar

StartChar: threequarters
Encoding: 190 190 128
Width: 806
VWidth: 1504
Flags: W
HStem: 0 7G<170 231.927 636 689> 93 50<523 636 689 752> 277 49<85.0968 232.142> 591 21G<67.6087 111.5> 657 50<131.534 240.723>
VStem: 242 50<584.044 653.639> 274 49<367.089 482.774> 636 53<0 93 143 366>
DStem2: 170 -14 220 -14 0.512201 0.858866<25.61 833.658>
LayerCount: 3
Back
SplineSet
220 -14 m 1xf9
 170 -14 l 1
 597 702 l 1
 647 702 l 1
 220 -14 l 1xf9
292 629 m 0xfd
 292 589 253 546 224 534 c 1
 290 524 323 489 323 430 c 0
 323 335 254 278 159 277 c 0
 115 276 80 286 53 307 c 1
 75 355 l 1
 98 336 125 326 155 326 c 0
 223 326 274 364 274 429 c 0xfb
 274 473 253 495 211 495 c 0
 183 495 161 488 144 474 c 1
 123 511 l 1
 173 546 201 567 208 572 c 0
 231 591 243 610 242 627 c 1
 242 647 226 657 193 657 c 0
 148 657 118 635 105 591 c 1
 62 614 l 1
 89 676 134 707 197 707 c 256
 260 707 292 681 292 629 c 0xfd
636 143 m 1
 636 366 l 1
 608 342 583 306 560 257 c 1
 538 213 526 175 523 143 c 1
 636 143 l 1
752 93 m 1
 689 93 l 1
 689 0 l 1
 636 0 l 1
 636 93 l 1
 468 93 l 1
 469 160 488 229 525 299 c 0
 569 384 624 428 689 430 c 1
 689 143 l 1
 755 143 l 1
 752 93 l 1
EndSplineSet
Fore
SplineSet
220 -14 m 1xf9
 170 -14 l 1
 597 702 l 1
 647 702 l 1
 220 -14 l 1xf9
323 430 m 0xfb
 323 332 252 277 153 277 c 0
 112 277 79 287 53 307 c 1
 75 355 l 1
 98 336 125 326 155 326 c 0
 223 326 274 364 274 429 c 0xfb
 274 473 253 495 211 495 c 0
 183 495 161 488 144 474 c 1
 123 511 l 1
 173 546 201 567 208 572 c 0
 231 591 242 610 242 627 c 0
 242 647 226 657 193 657 c 0
 148 657 118 635 105 591 c 1
 62 614 l 1
 89 676 134 707 197 707 c 256
 260 707 292 681 292 629 c 0xfd
 292 589 253 546 224 534 c 1
 290 524 323 489 323 430 c 0xfb
636 143 m 1
 636 366 l 1
 592 328 530 217 523 143 c 1
 636 143 l 1
752 93 m 1
 689 93 l 1
 689 0 l 1
 636 0 l 1
 636 93 l 1
 468 93 l 1
 470 231 563 430 689 430 c 1
 689 143 l 1
 755 143 l 1
 752 93 l 1
EndSplineSet
Validated: 1
Layer: 2
SplineSet
220 -14 m 1,0,-1
 170 -14 l 1,1,-1
 597 702 l 1,2,-1
 647 702 l 1,3,-1
 220 -14 l 1,0,-1
323 430 m 0,4,5
 323 358 323 358 276 317.5 c 128,-1,6
 229 277 229 277 153 277 c 0,7,8
 92 277 92 277 53 307 c 1,9,-1
 75 355 l 1,10,11
 110 326 110 326 155 326 c 0,12,13
 207 326 207 326 240.5 353.5 c 128,-1,14
 274 381 274 381 274 429 c 0,15,16
 274 495 274 495 211 495 c 0,17,18
 169 495 169 495 144 474 c 1,19,-1
 123 511 l 1,20,21
 145 527 145 527 164 540.5 c 128,-1,22
 183 554 183 554 195 563 c 128,-1,23
 207 572 207 572 208 572 c 0,24,25
 242 600 242 600 242 627 c 0,26,27
 242 657 242 657 193 657 c 0,28,29
 124 657 124 657 105 591 c 1,30,-1
 62 614 l 1,31,32
 102.5 707 102.5 707 197 707 c 256,33,34
 292 707 292 707 292 629 c 0,35,36
 292 601 292 601 270 572.5 c 128,-1,37
 248 544 248 544 224 534 c 1,38,39
 323 519 323 519 323 430 c 0,4,5
636 143 m 1,40,-1
 636 366 l 1,41,42
 601 336 601 336 564.5 266 c 128,-1,43
 528 196 528 196 523 143 c 1,44,-1
 636 143 l 1,40,-1
752 93 m 1,45,-1
 689 93 l 1,46,-1
 689 0 l 1,47,-1
 636 0 l 1,48,-1
 636 93 l 1,49,-1
 468 93 l 1,50,51
 469 164 469 164 497 241 c 128,-1,52
 525 318 525 318 577 374 c 128,-1,53
 629 430 629 430 689 430 c 1,54,-1
 689 143 l 1,55,-1
 755 143 l 1,56,-1
 752 93 l 1,45,-1
EndSplineSet
LCarets2: 2 0 0
Ligature2: "'frac' Diagonal Fractions in Latin lookup 0 subtable" three fraction four
Ligature2: "'frac' Diagonal Fractions in Latin lookup 0 subtable" three slash four
EndChar

StartChar: questiondown
Encoding: 191 191 129
Width: 434
VWidth: 1504
Flags: W
HStem: -230 53<148.14 326.703> 402 111<198.847 285.77>
VStem: 51 59<-139.889 4.52637> 187 111<413.847 500.77> 220 54<181.2 310.318>
LayerCount: 3
Back
SplineSet
376 -184 m 1
 328 -215.333 277 -230.666 223 -230 c 0
 165.667 -230 122 -213.667 92 -181 c 0
 64.6667 -151.667 51 -115.333 51 -72 c 0
 51 -18.6667 82.6667 41.3333 146 108 c 0
 195.333 160 220 211.667 220 263 c 0
 220 281 218.333 297 215 311 c 1
 266 311 l 1
 271.333 295.667 274 278.333 274 259 c 0
 274 205.667 246.667 148.333 192 87 c 128
 137.333 25.6667 110 -26.3333 110 -69 c 0
 110 -141 151 -177 233 -177 c 0
 280.333 -177 320.333 -164 353 -138 c 1
 376 -184 l 1
298 457 m 256
 298 441.667 292.5 428.667 281.5 418 c 128
 270.5 407.333 257.333 402 242 402 c 256
 226.667 402 213.667 407.5 203 418.5 c 128
 192.333 429.5 187 442.333 187 457 c 256
 187 472.333 192.5 485.5 203.5 496.5 c 128
 214.5 507.5 227.333 513 242 513 c 256
 257.333 513 270.5 507.5 281.5 496.5 c 128
 292.5 485.5 298 472.333 298 457 c 256
EndSplineSet
Fore
SplineSet
51 -72 m 0xe8
 51 -19 83 41 146 108 c 0
 195 160 220 212 220 263 c 0
 220 281 218 297 215 311 c 1
 266 311 l 1
 271 296 274 278 274 259 c 0
 274 206 247 148 192 87 c 0
 137 26 110 -26 110 -69 c 0
 110 -141 151 -177 233 -177 c 0
 280 -177 320 -164 353 -138 c 1
 376 -184 l 1
 329 -215 279 -230 226 -230 c 0
 123 -230 51 -172 51 -72 c 0xe8
242 513 m 256
 272 513 298 487 298 457 c 256
 298 427 272 402 242 402 c 256
 212 402 187 427 187 457 c 256xf0
 187 487 212 513 242 513 c 256
EndSplineSet
Validated: 1
Layer: 2
SplineSet
51 -72 m 0,0,1
 51 7 51 7 146 108 c 0,2,3
 220 187 220 187 220 263 c 0,4,5
 220 288 220 288 215 311 c 1,6,-1
 266 311 l 1,7,8
 274 287 274 287 274 259 c 0,9,10
 274 178 274 178 192 87 c 128,-1,11
 110 -4 110 -4 110 -69 c 0,12,13
 110 -177 110 -177 233 -177 c 0,14,15
 303.5 -177 303.5 -177 353 -138 c 1,16,-1
 376 -184 l 1,17,18
 306 -230 306 -230 226 -230 c 0,19,20
 147 -230 147 -230 99 -188 c 128,-1,21
 51 -146 51 -146 51 -72 c 0,0,1
242 513 m 256,22,23
 264 513 264 513 281 496.5 c 128,-1,24
 298 480 298 480 298 457 c 0,25,26
 298 435 298 435 281.5 418.5 c 128,-1,27
 265 402 265 402 242 402 c 0,28,29
 220 402 220 402 203.5 418 c 128,-1,30
 187 434 187 434 187 457 c 128,-1,31
 187 480 187 480 203.5 496.5 c 128,-1,32
 220 513 220 513 242 513 c 256,22,23
EndSplineSet
EndChar

StartChar: AE
Encoding: 198 198 136
Width: 875
VWidth: 1504
Flags: W
HStem: 0 50<546 818> 295 48<232 447> 352 50<501 784> 666 50<457 800>
DStem2: -11 0 51 0 0.472631 0.88126<29.3031 363.478 417.122 791.057> 457 666 406 674 0.132356 -0.991202<0 266.442 317.061 318.835 367.339 367.339>
LayerCount: 3
Fore
SplineSet
818 0 m 1
 496 0 l 1
 454 295 l 1
 208 295 l 1
 51 0 l 1
 -11 0 l 1
 373 716 l 1
 800 716 l 1
 800 666 l 1
 457 666 l 1
 493 402 l 1
 784 402 l 1
 784 352 l 1
 501 352 l 1
 546 50 l 1
 818 50 l 1
 818 0 l 1
447 343 m 1
 406 674 l 1
 232 343 l 1
 447 343 l 1
EndSplineSet
Validated: 1
Layer: 2
SplineSet
818 0 m 1,0,-1
 496 0 l 1,1,-1
 454 295 l 1,2,-1
 208 295 l 1,3,-1
 51 0 l 1,4,-1
 -11 0 l 1,5,-1
 373 716 l 1,6,-1
 800 716 l 1,7,-1
 800 666 l 1,8,-1
 457 666 l 1,9,-1
 493 402 l 1,10,-1
 784 402 l 1,11,-1
 784 352 l 1,12,-1
 501 352 l 1,13,-1
 546 50 l 1,14,-1
 818 50 l 1,15,-1
 818 0 l 1,0,-1
447 343 m 1,16,-1
 406 674 l 1,17,-1
 232 343 l 1,18,-1
 447 343 l 1,16,-1
EndSplineSet
EndChar

StartChar: Ccedilla
Encoding: 199 199 137
Width: 610
VWidth: 1504
Flags: W
HStem: -209 38<225.554 340.684> -14 50<339.311 502.623> 678 50<276.626 502.623>
VStem: 35 60<233.883 479.636> 348 46<-164.323 -100.528>
LayerCount: 3
Back
SplineSet
394 -122 m 0
 394 -180 359 -209 289 -209 c 0
 265 -209 241 -203 217 -190 c 1
 232 -156 l 1
 253 -166 273 -171 290 -171 c 0
 328 -171 348 -157 348 -129 c 0
 348 -104 316 -89 253 -84 c 1
 311 6 l 1
 360 6 l 1
 319 -51 l 1
 369 -63 394 -87 394 -122 c 0
552 76 m 1
 570 24 l 1
 517 -1 452 -14 375 -14 c 3
 174 -14 35 155 35 360 c 259
 35 565 174 728 375 728 c 3
 452 728 517 715 570 690 c 1
 552 638 l 1
 498 661 440 678 378 678 c 3
 210 678 95 530 95 358 c 259
 95 187 210 36 378 36 c 3
 440 36 498 53 552 76 c 1
EndSplineSet
Fore
SplineSet
552 76 m 1
 570 24 l 1
 517 -1 452 -14 375 -14 c 3
 365 -14 355 -14 346 -13 c 1
 319 -51 l 1
 369 -63 394 -87 394 -122 c 3
 394 -180 359 -209 289 -209 c 3
 265 -209 241 -203 217 -190 c 1
 232 -156 l 1
 253 -166 273 -171 290 -171 c 3
 328 -171 348 -157 348 -129 c 3
 348 -104 316 -89 253 -84 c 1
 303 -6 l 1
 142 29 35 181 35 360 c 3
 35 565 174 728 375 728 c 3
 452 728 517 715 570 690 c 1
 552 638 l 1
 498 661 440 678 378 678 c 3
 210 678 95 530 95 358 c 3
 95 187 210 36 378 36 c 3
 440 36 498 53 552 76 c 1
EndSplineSet
Validated: 1
Layer: 2
SplineSet
552 76 m 1,0,-1
 570 24 l 1,1,2
 489 -14 489 -14 375 -14 c 0,3,4
 355 -14 355 -14 346 -13 c 1,5,-1
 319 -51 l 1,6,7
 394 -69 394 -69 394 -122 c 0,8,9
 394 -209 394 -209 289 -209 c 0,10,11
 252 -209 252 -209 217 -190 c 1,12,-1
 232 -156 l 1,13,14
 264 -171 264 -171 290 -171 c 0,15,16
 348 -171 348 -171 348 -129 c 0,17,18
 348 -92 348 -92 253 -84 c 1,19,-1
 303 -6 l 1,20,21
 183 20 183 20 109 122.5 c 128,-1,22
 35 225 35 225 35 360 c 0,23,24
 35 516 35 516 130.5 622 c 128,-1,25
 226 728 226 728 375 728 c 0,26,27
 489 728 489 728 570 690 c 1,28,-1
 552 638 l 1,29,30
 458 678 458 678 378 678 c 0,31,32
 255 678 255 678 175 584 c 128,-1,33
 95 490 95 490 95 358 c 128,-1,34
 95 226 95 226 175 131 c 128,-1,35
 255 36 255 36 378 36 c 0,36,37
 458 36 458 36 552 76 c 1,0,-1
EndSplineSet
EndChar

StartChar: Eth
Encoding: 208 208 146
Width: 648
VWidth: 1504
Flags: W
HStem: -6 51<141.736 387.886> 320 50<8 81 140 393> 672 52<142.73 395.202>
VStem: 81 59<51.6467 320 370 662.481> 546 59<226.719 504.711>
LayerCount: 3
Back
SplineSet
605 373 m 0
 605 120.333 491.667 -6 265 -6 c 0
 235 -6 173.667 -1.33333 81 8 c 1
 81 320 l 1
 8 320 l 1
 8 370 l 1
 81 370 l 1
 81 705 l 1
 173 717 244.333 723.333 295 724 c 0
 386.333 724 460.333 693.333 517 632 c 1
 575.667 567.333 605 481 605 373 c 0
546 373 m 0
 546 468.333 521 543 471 597 c 0
 425 647 364.667 672 290 672 c 0
 258.667 672 208.667 668 140 660 c 1
 140 370 l 1
 393 370 l 1
 393 320 l 1
 140 320 l 1
 140 54 l 1
 190 48 237.667 45 283 45 c 0
 364.333 45 428.5 73.8333 475.5 131.5 c 128
 522.5 189.167 546 269.667 546 373 c 0
EndSplineSet
Fore
SplineSet
605 373 m 0
 605 120 492 -6 265 -6 c 0
 235 -6 174 -1 81 8 c 1
 81 320 l 1
 8 320 l 1
 8 370 l 1
 81 370 l 1
 81 705 l 1
 173 717 244 724 295 724 c 0
 491 724 605 573 605 373 c 0
283 45 m 0
 461 45 546 186 546 373 c 0
 546 544 456 672 290 672 c 0
 259 672 209 668 140 660 c 1
 140 370 l 1
 393 370 l 1
 393 320 l 1
 140 320 l 1
 140 54 l 1
 190 48 238 45 283 45 c 0
EndSplineSet
Validated: 1
Layer: 2
SplineSet
605 373 m 0,0,1
 605 -6 605 -6 265 -6 c 0,2,3
 226 -6 226 -6 81 8 c 1,4,-1
 81 320 l 1,5,-1
 8 320 l 1,6,-1
 8 370 l 1,7,-1
 81 370 l 1,8,-1
 81 705 l 1,9,10
 227 724 227 724 295 724 c 0,11,12
 439 724 439 724 522 625.5 c 128,-1,13
 605 527 605 527 605 373 c 0,0,1
283 45 m 0,14,15
 412 45 412 45 479 135.5 c 128,-1,16
 546 226 546 226 546 373 c 0,17,18
 546 505 546 505 478.5 588.5 c 128,-1,19
 411 672 411 672 290 672 c 0,20,21
 243.5 672 243.5 672 140 660 c 1,22,-1
 140 370 l 1,23,-1
 393 370 l 1,24,-1
 393 320 l 1,25,-1
 140 320 l 1,26,-1
 140 54 l 1,27,28
 215 45 215 45 283 45 c 0,14,15
EndSplineSet
EndChar

StartChar: multiply
Encoding: 215 215 153
Width: 618
VWidth: 1504
Flags: W
DStem2: 110 507 71 471 0.692664 -0.72126<0 286.842 341.264 628.405> 71 53 110 17 0.692664 0.72126<1.04853 287.497 341.919 629.454>
LayerCount: 3
Fore
SplineSet
507 17 m 1
 308 224 l 1
 110 17 l 1
 71 53 l 1
 269 262 l 1
 71 471 l 1
 110 507 l 1
 308 299 l 1
 507 507 l 1
 546 471 l 1
 347 262 l 1
 546 53 l 1
 507 17 l 1
EndSplineSet
Validated: 1
Layer: 2
SplineSet
507 17 m 1,0,-1
 308 224 l 1,1,-1
 110 17 l 1,2,-1
 71 53 l 1,3,-1
 269 262 l 1,4,-1
 71 471 l 1,5,-1
 110 507 l 1,6,-1
 308 299 l 1,7,-1
 507 507 l 1,8,-1
 546 471 l 1,9,-1
 347 262 l 1,10,-1
 546 53 l 1,11,-1
 507 17 l 1,0,-1
EndSplineSet
EndChar

StartChar: Oslash
Encoding: 216 216 154
Width: 731
VWidth: 1504
Flags: W
HStem: -15 51<260.787 464.323> 677 51<267.176 469.201>
VStem: 33 59<227.025 483.92> 639 59<236.065 483.054>
DStem2: 143 -44 200 -44 0.442644 0.896697<25.2307 89.1206 148.929 763.146 824.963 874.337>
LayerCount: 3
Back
SplineSet
698 356 m 256
 698 248.667 667.167 160 605.5 90 c 128
 543.833 20 464 -15 366 -15 c 0
 314.667 -15 268.333 -6 227 12 c 1
 200 -44 l 1
 143 -44 l 1
 182 38 l 1
 162 53.3333 143 70.6667 125 90 c 0
 63.6667 160 33 248.667 33 356 c 256
 33 463.333 63.8333 552.167 125.5 622.5 c 128
 187.167 692.833 267.333 728 366 728 c 0
 417.334 728 463.667 718 505 698 c 1
 526 742 l 1
 588 742 l 1
 552 671 l 1
 571.333 657 589 641 605 623 c 0
 667 552.333 698 463.333 698 356 c 256
481 650 m 1
 445.667 668 407.333 677 366 677 c 0
 286 677 220.333 645.667 169 583 c 128
 117.667 520.333 92 444.667 92 356 c 256
 92 268 117.333 192.333 168 129 c 0
 180 113.667 193.333 100.667 208 90 c 1
 481 650 l 1
639 356 m 256
 639 444 613.667 519.334 563 582 c 0
 551.666 596 539.333 608 526 618 c 1
 251 62 l 1
 285 44.6667 323.333 36 366 36 c 0
 446 36 511.5 67.3333 562.5 130 c 128
 613.5 192.667 639 268 639 356 c 256
EndSplineSet
Fore
SplineSet
552 671 m 1
 642 606 698 492 698 356 c 256
 698 150 568 -15 366 -15 c 0
 315 -15 268 -6 227 12 c 1
 200 -44 l 1
 143 -44 l 1
 182 38 l 1
 92 106 33 216 33 356 c 256
 33 561 164 728 366 728 c 0
 417 728 464 718 505 698 c 1
 526 742 l 1
 588 742 l 1
 552 671 l 1
481 650 m 1
 446 668 407 677 366 677 c 0
 200 677 92 524 92 356 c 256
 92 250 135 144 208 90 c 1
 481 650 l 1
639 356 m 256
 639 461 598 564 526 618 c 1
 251 62 l 1
 285 45 323 36 366 36 c 0
 530 36 639 189 639 356 c 256
EndSplineSet
Validated: 1
Layer: 2
SplineSet
552 671 m 1,0,1
 620 622 620 622 659 539.5 c 128,-1,2
 698 457 698 457 698 356 c 0,3,4
 698 198 698 198 606 91.5 c 128,-1,5
 514 -15 514 -15 366 -15 c 0,6,7
 288 -15 288 -15 227 12 c 1,8,-1
 200 -44 l 1,9,-1
 143 -44 l 1,10,-1
 182 38 l 1,11,12
 112 91 112 91 72.5 172.5 c 128,-1,13
 33 254 33 254 33 356 c 0,14,15
 33 513 33 513 125.5 620.5 c 128,-1,16
 218 728 218 728 366 728 c 0,17,18
 444 728 444 728 505 698 c 1,19,-1
 526 742 l 1,20,-1
 588 742 l 1,21,-1
 552 671 l 1,0,1
481 650 m 1,22,23
 428 677 428 677 366 677 c 0,24,25
 245 677 245 677 168.5 582 c 128,-1,26
 92 487 92 487 92 356 c 0,27,28
 92 275 92 275 123 202.5 c 128,-1,29
 154 130 154 130 208 90 c 1,30,-1
 481 650 l 1,22,23
639 356 m 256,31,32
 639 436 639 436 609 507 c 128,-1,33
 579 578 579 578 526 618 c 1,34,-1
 251 62 l 1,35,36
 303 36 303 36 366 36 c 0,37,38
 485 36 485 36 562 131 c 128,-1,39
 639 226 639 226 639 356 c 256,31,32
EndSplineSet
EndChar

StartChar: Thorn
Encoding: 222 222 160
Width: 571
VWidth: 1504
Flags: W
HStem: 0 21G<90 147> 165 49<148.778 370.841> 543 48<149.038 384.38> 696 20G<90 147>
VStem: 90 57<0 177 224.031 528.05 575 716> 472 56<301.786 467.931>
LayerCount: 3
Back
SplineSet
528 394 m 0
 528 318.667 502.667 261.667 452 223 c 128
 401.333 184.333 332.333 165 245 165 c 0
 219.667 165 187 169 147 177 c 1
 147 0 l 1
 90 0 l 1
 90 716 l 1
 147 716 l 1
 147 575 l 1
 189 586.333 230.333 591.667 271 591 c 0
 338.333 591 396.333 575 445 543 c 0
 500.333 505.667 528 456 528 394 c 0
472 387 m 0
 472 440.334 451.667 480.667 411 508 c 0
 375.667 531.333 329 543 271 543 c 0
 233.667 543 192.333 536 147 522 c 1
 147 230 l 1
 183 218.666 216.667 213.333 248 214 c 0
 320 214 375.333 229.333 414 260 c 128
 452.667 290.667 472 333 472 387 c 0
EndSplineSet
Fore
SplineSet
528 394 m 0
 528 235 409 165 245 165 c 0
 220 165 187 169 147 177 c 1
 147 0 l 1
 90 0 l 1
 90 716 l 1
 147 716 l 1
 147 575 l 1
 189 586 230 591 271 591 c 0
 404 591 528 519 528 394 c 0
248 214 m 0
 376 214 472 267 472 387 c 0
 472 495 385 543 271 543 c 0
 234 543 192 536 147 522 c 1
 147 230 l 1
 183 219 217 214 248 214 c 0
EndSplineSet
Validated: 1
Layer: 2
SplineSet
528 394 m 0,0,1
 528 279 528 279 451 222 c 128,-1,2
 374 165 374 165 245 165 c 0,3,4
 207 165 207 165 147 177 c 1,5,-1
 147 0 l 1,6,-1
 90 0 l 1,7,-1
 90 716 l 1,8,-1
 147 716 l 1,9,-1
 147 575 l 1,10,11
 208 591 208 591 271 591 c 0,12,13
 376 591 376 591 452 537.5 c 128,-1,14
 528 484 528 484 528 394 c 0,0,1
248 214 m 0,15,16
 349 214 349 214 410.5 257.5 c 128,-1,17
 472 301 472 301 472 387 c 0,18,19
 472 465 472 465 416.5 504 c 128,-1,20
 361 543 361 543 271 543 c 0,21,22
 214 543 214 543 147 522 c 1,23,-1
 147 230 l 1,24,25
 199 214 199 214 248 214 c 0,15,16
EndSplineSet
EndChar

StartChar: germandbls
Encoding: 223 223 161
Width: 589
VWidth: 1504
Flags: W
HStem: -14 50<261.417 435.44> 678 55<223.651 385.284>
VStem: 90 59<-193.17 581.906> 328 59<339.562 431.418> 430 56<507.495 633.908> 481 54<80.8555 202.473>
LayerCount: 3
Back
SplineSet
535 153 m 0
 535 103.667 520 64.3333 490 35 c 0
 456.667 3 411 -13.3333 353 -14 c 0
 303.667 -14 261.333 -3.66667 226 17 c 1
 244 66 l 1
 282 46 319 36 355 36 c 0
 395 36 426 46.3333 448 67 c 128
 470 87.6667 481 113.333 481 144 c 0
 481 178 455.5 217.333 404.5 262 c 128
 353.5 306.667 328 348.333 328 387 c 0
 328 414.334 345 444.167 379 476.5 c 128
 413 508.833 430 535 430 555 c 0
 430 637 386.333 678 299 678 c 0
 199 678 149 596 149 432 c 2
 149 -81 l 2
 149 -135 138 -182.333 116 -223 c 1
 62 -208 l 1
 81.3334 -168.667 90.6667 -126.333 90 -81 c 2
 90 457 l 2
 90 640.333 163.333 732.333 310 733 c 0
 360 733 401.833 717.167 435.5 685.5 c 128
 469.167 653.833 486 611.333 486 558 c 0
 486 518 469.5 484.5 436.5 457.5 c 128
 403.5 430.5 387 405.333 387 382 c 0
 387 364.667 403.5 341.5 436.5 312.5 c 128
 469.5 283.5 489.333 264 496 254 c 0
 522 218.667 535 185 535 153 c 0
EndSplineSet
Fore
SplineSet
310 733 m 0xf8
 412 733 486 662 486 558 c 0xf8
 486 518 469 485 436 458 c 0
 403 431 387 405 387 382 c 0
 387 365 403 341 436 312 c 0
 469 283 489 264 496 254 c 0
 522 219 535 185 535 153 c 0
 535 46 460 -14 353 -14 c 0
 304 -14 261 -4 226 17 c 1
 244 66 l 1
 282 46 319 36 355 36 c 0
 427 36 481 76 481 144 c 0xf4
 481 178 455 217 404 262 c 0
 353 307 328 348 328 387 c 0
 328 414 345 444 379 476 c 0
 413 508 430 535 430 555 c 0
 430 637 386 678 299 678 c 0
 199 678 149 596 149 432 c 2
 149 -81 l 2
 149 -135 138 -182 116 -223 c 1
 62 -208 l 1
 81 -169 90 -126 90 -81 c 2
 90 457 l 2
 90 640 163 733 310 733 c 0xf8
EndSplineSet
Validated: 1
Layer: 2
SplineSet
310 733 m 0,0,1
 387 733 387 733 436.5 684.5 c 128,-1,2
 486 636 486 636 486 558 c 0,3,4
 486 499 486 499 436 458 c 0,5,6
 387 418 387 418 387 382 c 0,7,8
 387 355 387 355 436 312 c 0,9,10
 486 268 486 268 496 254 c 0,11,12
 535 202 535 202 535 153 c 0,13,14
 535 74 535 74 485 30 c 128,-1,15
 435 -14 435 -14 353 -14 c 0,16,17
 278 -14 278 -14 226 17 c 1,18,-1
 244 66 l 1,19,20
 301 36 301 36 355 36 c 0,21,22
 410 36 410 36 445.5 65 c 128,-1,23
 481 94 481 94 481 144 c 128,-1,24
 481 194 481 194 404 262 c 0,25,26
 328 329 328 329 328 387 c 0,27,28
 328 428 328 428 379 476 c 128,-1,29
 430 524 430 524 430 555 c 0,30,31
 430 678 430 678 299 678 c 0,32,33
 149 678 149 678 149 432 c 2,34,-1
 149 -81 l 2,35,36
 149 -162 149 -162 116 -223 c 1,37,-1
 62 -208 l 1,38,39
 90 -151 90 -151 90 -81 c 2,40,-1
 90 457 l 2,41,42
 90 733 90 733 310 733 c 0,0,1
EndSplineSet
EndChar

StartChar: ae
Encoding: 230 230 168
Width: 914
VWidth: 1504
Flags: W
HStem: -14 50<136.882 299.114 552.873 785.034> 253 46<441 800> 268 51<203.63 381> 475 47<119.482 321.293 543.198 714.14>
VStem: 39 62<72.0905 197.809> 381 57<155.753 253 319 359.033> 800 56<299 385.461>
LayerCount: 3
Back
SplineSet
827 72 m 1
 832 23 l 1
 774 -1 710.667 -13.3333 642 -14 c 0
 538.666 -14 462.666 29.6667 414 117 c 1
 386 29.6667 315.333 -14 202 -14 c 0
 158 -14 119.833 -1.33333 87.5 24 c 128
 55.1667 49.3333 39 84 39 128 c 0
 39 255.333 150 319 372 319 c 2
 381 319 l 1
 381 328 l 2
 381 361.333 373.333 390.333 358 415 c 0
 334.667 455 295.667 475 241 475 c 0
 205.667 475 151.333 463.667 78 441 c 1
 71 495 l 1
 127 513 185 522 245 522 c 0
 337 522 396.667 484 424 408 c 1
 472 484 542.667 522 636 522 c 0
 779.333 522 852.667 432.333 856 253 c 1
 438 253 l 1
 440 185 460.333 132.167 499 94.5 c 128
 537.668 56.8333 587.334 38 648 38 c 0
 708 37.3333 767.667 48.6667 827 72 c 1
381 215 m 2
 381 268 l 1
 194.333 268 101 224.667 101 138 c 0
 101 104.667 111 79.3333 131 62 c 128
 151 44.6667 176 36 206 36 c 0
 250 36 287.667 47.6667 319 71 c 0
 360.333 101.667 381 149.667 381 215 c 2
441 299 m 1
 800 299 l 1
 798.664 340.333 787.33 377 766 409 c 0
 736 453 690.333 475 629 475 c 0
 573.666 475 528.332 455 493 415 c 0
 465.667 383 448.333 344.333 441 299 c 1
EndSplineSet
Fore
SplineSet
202 -14 m 0xde
 115 -14 39 41 39 128 c 0
 39 255 150 319 372 319 c 2
 381 319 l 1xbe
 381 328 l 2
 381 417 328 475 241 475 c 0
 206 475 151 464 78 441 c 1
 71 495 l 1
 127 513 185 522 245 522 c 0
 337 522 397 484 424 408 c 1
 472 484 543 522 636 522 c 0
 779 522 853 432 856 253 c 1
 438 253 l 1
 442 125 520 38 648 38 c 0
 708 38 768 49 827 72 c 1
 832 23 l 1
 774 -1 711 -14 642 -14 c 0
 539 -14 463 30 414 117 c 1
 386 30 315 -14 202 -14 c 0xde
206 36 m 0
 315 36 381 105 381 215 c 2
 381 268 l 1
 194 268 101 225 101 138 c 0
 101 74 144 36 206 36 c 0
441 299 m 1xde
 800 299 l 1
 797 402 732 475 629 475 c 0
 524 475 457 395 441 299 c 1xde
EndSplineSet
Validated: 1
Layer: 2
SplineSet
202 -14 m 0,0,1
 134 -14 134 -14 86.5 25.5 c 128,-1,2
 39 65 39 65 39 128 c 0,3,4
 39 319 39 319 372 319 c 2,5,-1
 381 319 l 1,6,-1
 381 328 l 2,7,8
 381 395 381 395 343.5 435 c 128,-1,9
 306 475 306 475 241 475 c 0,10,11
 186 475 186 475 78 441 c 1,12,-1
 71 495 l 1,13,14
 155 522 155 522 245 522 c 0,15,16
 384 522 384 522 424 408 c 1,17,18
 496 522 496 522 636 522 c 0,19,20
 851 522 851 522 856 253 c 1,21,-1
 438 253 l 1,22,23
 441 156 441 156 497 97 c 128,-1,24
 553 38 553 38 648 38 c 0,25,26
 740 38 740 38 827 72 c 1,27,-1
 832 23 l 1,28,29
 743 -14 743 -14 642 -14 c 0,30,31
 488 -14 488 -14 414 117 c 1,32,33
 372 -14 372 -14 202 -14 c 0,0,1
206 36 m 0,34,35
 287 36 287 36 334 84 c 128,-1,36
 381 132 381 132 381 215 c 2,37,-1
 381 268 l 1,38,39
 101 268 101 268 101 138 c 0,40,41
 101 91 101 91 130 63.5 c 128,-1,42
 159 36 159 36 206 36 c 0,34,35
441 299 m 1,43,-1
 800 299 l 1,44,45
 798 377 798 377 751.5 426 c 128,-1,46
 705 475 705 475 629 475 c 128,-1,47
 553 475 553 475 503.5 425 c 128,-1,48
 454 375 454 375 441 299 c 1,43,-1
EndSplineSet
EndChar

StartChar: ccedilla
Encoding: 231 231 169
Width: 497
VWidth: 1504
Flags: W
HStem: -188 34<177.46 281.006> -14 50<249.489 421.723> 472 50<212.267 421.723>
VStem: 41 60<151.233 358.166> 288 41<-147.907 -90.2173>
LayerCount: 3
Back
SplineSet
329.006 -109.803 m 0
 329.006 -162.004 297.505 -188.105 234.503 -188.105 c 0
 212.902 -188.105 191.302 -182.705 169.701 -171.005 c 1
 183.201 -140.403 l 1
 202.103 -149.404 220.103 -153.904 235.403 -153.904 c 0
 269.604 -153.904 287.604 -141.304 287.604 -116.104 c 0
 287.604 -93.6025 258.804 -80.1025 202.103 -75.6016 c 1
 254.304 5.40039 l 1
 298.404 5.40039 l 1
 261.504 -45.9014 l 1
 306.505 -56.7012 329.006 -78.3018 329.006 -109.803 c 0
308 472 m 3
 181 472 101 384 101 254 c 259
 101 125 183 36 308 36 c 3
 364 36 411 48 448 72 c 1
 469 23 l 1
 426 -1 373 -14 311 -14 c 3
 146 -14 41 90 41 254 c 259
 41 418 146 522 311 522 c 3
 373 522 426 510 469 486 c 1
 448 436 l 1
 411 460 364 472 308 472 c 3
EndSplineSet
Fore
SplineSet
308 472 m 3
 181 472 101 384 101 254 c 3
 101 125 183 36 308 36 c 3
 364 36 411 48 448 72 c 1
 469 23 l 1
 426 -1 373 -14 311 -14 c 3
 302 -14 293 -14 285 -13 c 1
 262 -46 l 1
 307 -57 329 -78 329 -110 c 3
 329 -162 298 -188 235 -188 c 3
 213 -188 192 -183 170 -171 c 1
 183 -140 l 1
 202 -149 220 -154 235 -154 c 3
 269 -154 288 -141 288 -116 c 3
 288 -93 259 -81 202 -76 c 1
 246 -8 l 1
 119 16 41 113 41 254 c 3
 41 418 146 522 311 522 c 3
 373 522 426 510 469 486 c 1
 448 436 l 1
 411 460 364 472 308 472 c 3
EndSplineSet
Validated: 1
Layer: 2
SplineSet
308 472 m 3,0,1
 213 472 213 472 157 412 c 128,-1,2
 101 352 101 352 101 254 c 0,3,4
 101 157 101 157 158 96.5 c 128,-1,5
 215 36 215 36 308 36 c 0,6,7
 392 36 392 36 448 72 c 1,8,-1
 469 23 l 1,9,10
 403 -14 403 -14 311 -14 c 0,11,12
 293 -14 293 -14 285 -13 c 1,13,-1
 262 -46 l 1,14,15
 329 -62 329 -62 329 -110 c 0,16,17
 329 -188 329 -188 235 -188 c 0,18,19
 201 -188 201 -188 170 -171 c 1,20,-1
 183 -140 l 1,21,22
 213 -154 213 -154 235 -154 c 0,23,24
 288 -154 288 -154 288 -116 c 0,25,26
 288 -84 288 -84 202 -76 c 1,27,-1
 246 -8 l 1,28,29
 150 10 150 10 95.5 79.5 c 128,-1,30
 41 149 41 149 41 254 c 0,31,32
 41 377 41 377 114 449.5 c 128,-1,33
 187 522 187 522 311 522 c 0,34,35
 404 522 404 522 469 486 c 1,36,-1
 448 436 l 1,37,38
 392 472 392 472 308 472 c 3,0,1
EndSplineSet
EndChar

StartChar: eth
Encoding: 240 240 178
Width: 544
VWidth: 1504
Flags: W
HStem: -18 51<195.208 340.716> 393 49<194.053 342.277> 702 20G<103.182 140.5>
VStem: 57 60<116.857 308.664> 424 60<125.002 302.967>
DStem2: 128 529 153 489 0.839812 0.542878<0 139.517 211.495 332.145>
LayerCount: 3
Back
SplineSet
484 245 m 0
 484 171.667 466 111 430 63 c 0
 388.667 9 332.667 -18 262 -18 c 0
 198.667 -18 148.667 4 112 48 c 128
 75.3333 92 57 146.667 57 212 c 0
 57 275.333 75.5 329.5 112.5 374.5 c 128
 149.5 419.5 197.667 442 257 442 c 0
 299 442 336.333 432 369 412 c 1
 392.333 396 406.333 381 411 367 c 1
 387.667 445 345.333 513.334 284 572 c 1
 153 489 l 1
 128 529 l 1
 245 605 l 1
 199.667 639 151.667 663.333 101 678 c 1
 105 722 l 1
 176.333 708 239.667 679.333 295 636 c 1
 408 710 l 1
 433 669 l 1
 332 603 l 1
 348 587.664 363.333 571.331 378 554 c 0
 448.667 463.333 484 360.333 484 245 c 0
424 212 m 0
 424 262 409 304.667 379 340 c 128
 349 375.333 312.333 393 269 393 c 0
 221.667 393 184.5 375.333 157.5 340 c 128
 130.5 304.667 117 262 117 212 c 0
 117 162.667 130.333 120.5 157 85.5 c 128
 183.667 50.5 221 33 269 33 c 0
 312.333 33 349 50.5 379 85.5 c 128
 409 120.5 424 162.667 424 212 c 0
EndSplineSet
Fore
SplineSet
484 245 m 0
 484 98 402 -18 262 -18 c 0
 135 -18 57 84 57 212 c 0
 57 334 136 442 257 442 c 0
 318 442 395 412 411 367 c 1
 388 445 345 513 284 572 c 1
 153 489 l 1
 128 529 l 1
 245 605 l 1
 200 639 152 663 101 678 c 1
 105 722 l 1
 176 708 240 679 295 636 c 1
 408 710 l 1
 433 669 l 1
 332 603 l 1
 423 517 484 384 484 245 c 0
117 212 m 0
 117 116 173 33 269 33 c 0
 359 33 424 119 424 212 c 0
 424 305 360 393 269 393 c 0
 173 393 117 308 117 212 c 0
EndSplineSet
Validated: 1
Layer: 2
SplineSet
484 245 m 0,0,1
 484 131 484 131 424 56.5 c 128,-1,2
 364 -18 364 -18 262 -18 c 0,3,4
 169 -18 169 -18 113 47.5 c 128,-1,5
 57 113 57 113 57 212 c 0,6,7
 57 307 57 307 113 374.5 c 128,-1,8
 169 442 169 442 257 442 c 0,9,10
 305 442 305 442 352.5 420.5 c 128,-1,11
 400 399 400 399 411 367 c 1,12,13
 377 482 377 482 284 572 c 1,14,-1
 153 489 l 1,15,-1
 128 529 l 1,16,-1
 245 605 l 1,17,18
 179 655 179 655 101 678 c 1,19,-1
 105 722 l 1,20,21
 212 701 212 701 295 636 c 1,22,-1
 408 710 l 1,23,-1
 433 669 l 1,24,-1
 332 603 l 1,25,26
 402 537 402 537 443 442 c 128,-1,27
 484 347 484 347 484 245 c 0,0,1
117 212 m 128,-1,29
 117 137 117 137 158 85 c 128,-1,30
 199 33 199 33 269 33 c 0,31,32
 335 33 335 33 379.5 86.5 c 128,-1,33
 424 140 424 140 424 212 c 128,-1,34
 424 284 424 284 379.5 338.5 c 128,-1,35
 335 393 335 393 269 393 c 0,36,37
 200 393 200 393 158.5 340 c 128,-1,28
 117 287 117 287 117 212 c 128,-1,29
EndSplineSet
EndChar

StartChar: divide
Encoding: 247 247 185
Width: 618
VWidth: 1504
Flags: W
HStem: 38 103<271.165 349.263> 248 50<57 561> 402 103<270.871 350.541>
VStem: 262 96<46.0759 132.629 410.122 496.246>
LayerCount: 3
Fore
SplineSet
311 505 m 256
 339 505 360 482 360 454 c 256
 360 426 339 402 311 402 c 0
 281 402 262 425 262 454 c 0
 262 481 282 505 311 505 c 256
311 141 m 0
 339 141 358 117 358 89 c 256
 358 61 338 38 310 38 c 0
 280 38 262 60 262 89 c 256
 262 117 282 141 311 141 c 0
561 248 m 1
 57 248 l 1
 57 298 l 1
 561 298 l 1
 561 248 l 1
EndSplineSet
Validated: 1
Layer: 2
SplineSet
311 505 m 256,0,1
 332 505 332 505 346 490 c 128,-1,2
 360 475 360 475 360 454 c 128,-1,3
 360 433 360 433 346 417.5 c 128,-1,4
 332 402 332 402 311 402 c 0,5,6
 289 402 289 402 275.5 417 c 128,-1,7
 262 432 262 432 262 454 c 0,8,9
 262 475 262 475 276 490 c 128,-1,10
 290 505 290 505 311 505 c 256,0,1
311 141 m 128,-1,12
 332 141 332 141 345 126 c 128,-1,13
 358 111 358 111 358 89 c 0,14,15
 358 68 358 68 344.5 53 c 128,-1,16
 331 38 331 38 310 38 c 0,17,18
 288 38 288 38 275 52.5 c 128,-1,19
 262 67 262 67 262 89 c 0,20,21
 262 110 262 110 276 125.5 c 128,-1,11
 290 141 290 141 311 141 c 128,-1,12
561 248 m 1,22,-1
 57 248 l 1,23,-1
 57 298 l 1,24,-1
 561 298 l 1,25,-1
 561 248 l 1,22,-1
EndSplineSet
EndChar

StartChar: oslash
Encoding: 248 248 186
Width: 598
VWidth: 1504
Flags: W
HStem: -15 50<208.319 387.212> 472 50<211.035 381.046>
VStem: 42 57<149.386 353.079> 499 58<154.54 358.296>
DStem2: 77 -44 137 -44 0.525551 0.850762<31.5331 103.226 158.799 583.801 635.6 726.656>
LayerCount: 3
Back
SplineSet
557 254 m 0
 557 178.667 533.333 115 486 63 c 128
 438.667 11 376.333 -15 299 -15 c 0
 255 -15 213 -5 173 15 c 1
 137 -44 l 1
 77 -44 l 1
 131 45 l 1
 71.6667 96.3333 42 166 42 254 c 0
 42 329.333 65.6667 392.833 113 444.5 c 128
 160.333 496.167 222.333 522 299 522 c 0
 335 522 371.667 514.333 409 499 c 1
 456 576 l 1
 520 576 l 1
 456 472 l 1
 523.333 420.667 557 348 557 254 c 0
499 254 m 0
 499 325.333 475 382.667 427 426 c 1
 202 60 l 1
 231.333 42.6667 263.667 34.3333 299 35 c 0
 357 35 404.833 56 442.5 98 c 128
 480.167 140 499 192 499 254 c 0
159 92 m 1
 382 454 l 1
 356.667 466 329 472 299 472 c 0
 241 472 193.167 451.167 155.5 409.5 c 128
 117.833 367.833 99 316 99 254 c 0
 99 189.333 119 135.333 159 92 c 1
EndSplineSet
Fore
SplineSet
557 254 m 0
 557 103 451 -15 299 -15 c 0
 255 -15 213 -5 173 15 c 1
 137 -44 l 1
 77 -44 l 1
 131 45 l 1
 72 96 42 166 42 254 c 0
 42 404 148 522 299 522 c 0
 335 522 372 514 409 499 c 1
 456 576 l 1
 520 576 l 1
 456 472 l 1
 523 421 557 348 557 254 c 0
299 35 m 0
 417 35 499 134 499 254 c 0
 499 325 475 383 427 426 c 1
 202 60 l 1
 231 43 264 35 299 35 c 0
299 472 m 0
 181 472 99 374 99 254 c 0
 99 189 119 135 159 92 c 1
 382 454 l 1
 357 466 329 472 299 472 c 0
EndSplineSet
Validated: 1
Layer: 2
SplineSet
557 254 m 0,0,1
 557 139 557 139 484.5 62 c 128,-1,2
 412 -15 412 -15 299 -15 c 0,3,4
 233 -15 233 -15 173 15 c 1,5,-1
 137 -44 l 1,6,-1
 77 -44 l 1,7,-1
 131 45 l 1,8,9
 42 122 42 122 42 254 c 0,10,11
 42 368 42 368 114.5 445 c 128,-1,12
 187 522 187 522 299 522 c 0,13,14
 352 522 352 522 409 499 c 1,15,-1
 456 576 l 1,16,-1
 520 576 l 1,17,-1
 456 472 l 1,18,19
 557 395 557 395 557 254 c 0,0,1
299 35 m 0,20,21
 386 35 386 35 442.5 98.5 c 128,-1,22
 499 162 499 162 499 254 c 0,23,24
 499 362 499 362 427 426 c 1,25,-1
 202 60 l 1,26,27
 245 35 245 35 299 35 c 0,20,21
299 472 m 0,28,29
 212 472 212 472 155.5 409 c 128,-1,30
 99 346 99 346 99 254 c 0,31,32
 99 156.5 99 156.5 159 92 c 1,33,-1
 382 454 l 1,34,35
 345 472 345 472 299 472 c 0,28,29
EndSplineSet
EndChar

StartChar: thorn
Encoding: 254 254 192
Width: 649
VWidth: 1504
Flags: W
HStem: -14 50<253.343 438.959> 475 47<252.538 438.832>
VStem: 92 57<-211 80 129.608 377.104 418 707> 548 55<152.461 360.868>
LayerCount: 3
Back
SplineSet
603 265 m 0
 603 177.667 577 108.333 525 57 c 0
 477 9.66667 415.667 -14 341 -14 c 0
 259 -14 195 17.3333 149 80 c 1
 149 -211 l 1
 92 -211 l 1
 92 707 l 1
 149 707 l 1
 149 418 l 1
 200.333 487.333 270 522 358 522 c 0
 430 522 489.667 496.333 537 445 c 0
 581 397 603 337 603 265 c 0
548 263 m 0
 548 324.333 529.667 375 493 415 c 128
 456.333 455 407.666 475 347 475 c 0
 255.667 475 193.667 433.333 161 350 c 0
 153 330 149 310 149 290 c 2
 149 202 l 2
 149 192 151.333 176.667 156 156 c 1
 171.333 122 195.833 93.5 229.5 70.5 c 128
 263.167 47.5 302 36 346 36 c 0
 405.333 36 453.833 56 491.5 96 c 128
 529.167 136 548 191.667 548 263 c 0
EndSplineSet
Fore
SplineSet
603 265 m 0
 603 103 502 -14 341 -14 c 0
 259 -14 195 17 149 80 c 1
 149 -211 l 1
 92 -211 l 1
 92 707 l 1
 149 707 l 1
 149 418 l 1
 200 487 270 522 358 522 c 0
 500 522 603 410 603 265 c 0
346 36 m 0
 473 36 548 131 548 263 c 0
 548 384 468 475 347 475 c 0
 246 475 149 408 149 290 c 2
 149 202 l 2
 149 192 151 177 156 156 c 1
 185 92 255 36 346 36 c 0
EndSplineSet
Validated: 1
Layer: 2
SplineSet
603 265 m 0,0,1
 603 142 603 142 531.5 64 c 128,-1,2
 460 -14 460 -14 341 -14 c 0,3,4
 218 -14 218 -14 149 80 c 1,5,-1
 149 -211 l 1,6,-1
 92 -211 l 1,7,-1
 92 707 l 1,8,-1
 149 707 l 1,9,-1
 149 418 l 1,10,11
 226 522 226 522 358 522 c 0,12,13
 464 522 464 522 533.5 448 c 128,-1,14
 603 374 603 374 603 265 c 0,0,1
346 36 m 0,15,16
 440 36 440 36 494 99 c 128,-1,17
 548 162 548 162 548 263 c 0,18,19
 548 355 548 355 492.5 415 c 128,-1,20
 437 475 437 475 347 475 c 0,21,22
 267 475 267 475 208 425 c 128,-1,23
 149 375 149 375 149 290 c 2,24,-1
 149 202 l 2,25,26
 149 185 149 185 156 156 c 1,27,28
 179 105 179 105 230 70.5 c 128,-1,29
 281 36 281 36 346 36 c 0,15,16
EndSplineSet
EndChar

StartChar: dotlessi
Encoding: 305 305 194
Width: 215
VWidth: 1504
Flags: W
HStem: 0 21G<78 135> 491 20G<78 135>
VStem: 78 57<0 511>
LayerCount: 3
Fore
SplineSet
135 0 m 1
 78 0 l 1
 78 511 l 1
 135 511 l 1
 135 0 l 1
EndSplineSet
Validated: 1
Layer: 2
SplineSet
135 0 m 1,0,-1
 78 0 l 1,1,-1
 78 511 l 1,2,-1
 135 511 l 1,3,-1
 135 0 l 1,0,-1
EndSplineSet
EndChar

StartChar: Lslash
Encoding: 321 321 195
Width: 543
VWidth: 1504
Flags: W
HStem: 0 50<149 501> 696 20G<90 149>
VStem: 90 59<50 292 363 716>
DStem2: 27 323 41 277 0.952646 0.304081<0 50.5902 128.386 453.545>
LayerCount: 3
Fore
SplineSet
501 0 m 1
 90 0 l 1
 90 292 l 1
 41 277 l 1
 27 323 l 1
 90 343 l 1
 90 716 l 1
 149 716 l 1
 149 363 l 1
 475 466 l 1
 475 411 l 1
 149 311 l 1
 149 50 l 1
 501 50 l 1
 501 0 l 1
EndSplineSet
Validated: 1
Layer: 2
SplineSet
501 0 m 1,0,-1
 90 0 l 1,1,-1
 90 292 l 1,2,-1
 41 277 l 1,3,-1
 27 323 l 1,4,-1
 90 343 l 1,5,-1
 90 716 l 1,6,-1
 149 716 l 1,7,-1
 149 363 l 1,8,-1
 475 466 l 1,9,-1
 475 411 l 1,10,-1
 149 311 l 1,11,-1
 149 50 l 1,12,-1
 501 50 l 1,13,-1
 501 0 l 1,0,-1
EndSplineSet
EndChar

StartChar: lslash
Encoding: 322 322 196
Width: 314
VWidth: 1504
Flags: W
HStem: -11 52<212 280>
VStem: 90 59<113.8 292 363 760>
DStem2: 27 323 41 277 0.950605 0.310402<0 50.2657 128.39 241.279>
LayerCount: 3
Fore
SplineSet
272 403 m 1
 272 350 l 1
 149 310 l 1
 149 280 l 2
 149 206 155 153 168 120 c 0
 187 69 227 42 286 41 c 1
 280 -11 l 1
 153 -5 90 84 90 257 c 2
 90 292 l 1
 41 277 l 1
 27 323 l 1
 90 343 l 1
 90 760 l 1
 149 760 l 1
 149 363 l 1
 272 403 l 1
EndSplineSet
Validated: 1
Layer: 2
SplineSet
272 403 m 1,0,-1
 272 350 l 1,1,-1
 149 310 l 1,2,-1
 149 280 l 2,3,4
 149 168 149 168 168 120 c 0,5,6
 197 43 197 43 286 41 c 1,7,-1
 280 -11 l 1,8,9
 90 -2 90 -2 90 257 c 2,10,-1
 90 292 l 1,11,-1
 41 277 l 1,12,-1
 27 323 l 1,13,-1
 90 343 l 1,14,-1
 90 760 l 1,15,-1
 149 760 l 1,16,-1
 149 363 l 1,17,-1
 272 403 l 1,0,-1
EndSplineSet
EndChar

StartChar: OE
Encoding: 338 338 197
Width: 1069
VWidth: 1504
Flags: W
HStem: -15 51<267.176 469.388> 0 50<681 1012> 353 50<681 976> 666 50<681 1012> 677 51<267.176 464.364>
VStem: 33 59<228.014 483.92> 623 58<50 111 178.305 353 403 541.445 602 666>
LayerCount: 3
Back
SplineSet
1012 50 m 1
 1012 0 l 1
 623 0 l 1
 623 111 l 1
 559.666 27 474 -15 366 -15 c 0
 268 -15 188 20.1667 126 90.5 c 128
 64 160.833 33 249.333 33 356 c 256
 33 463.333 63.8333 552.167 125.5 622.5 c 128
 187.167 692.833 267.333 728 366 728 c 0
 474 728 559.667 686 623 602 c 1
 623 716 l 1
 1012 716 l 1
 1012 666 l 1
 681 666 l 1
 681 403 l 1
 976 403 l 1
 976 353 l 1
 681 353 l 1
 681 50 l 1
 1012 50 l 1
623 218 m 1
 623 481 l 1
 615.667 530.333 587 575 537 615 c 1
 483.667 656.333 426.667 677 366 677 c 0
 286 677 220.333 645.667 169 583 c 128
 117.667 520.333 92 444.667 92 356 c 256
 92 268 117.5 192.667 168.5 130 c 128
 219.5 67.3333 285.333 36 366 36 c 0
 423.333 36 474.667 52.5 520 85.5 c 128
 565.333 118.5 599.667 162.667 623 218 c 1
EndSplineSet
Fore
SplineSet
1012 50 m 1x76
 1012 0 l 1
 623 0 l 1x76
 623 111 l 1
 560 27 474 -15 366 -15 c 0
 164 -15 33 151 33 356 c 256
 33 561 164 728 366 728 c 0xae
 474 728 560 686 623 602 c 1
 623 716 l 1
 1012 716 l 1
 1012 666 l 1
 681 666 l 1
 681 403 l 1
 976 403 l 1
 976 353 l 1
 681 353 l 1
 681 50 l 1
 1012 50 l 1x76
366 36 m 0xae
 494 36 582 122 623 218 c 1
 623 481 l 1
 608 583 482 677 366 677 c 0
 200 677 92 524 92 356 c 256
 92 187 200 36 366 36 c 0xae
EndSplineSet
Validated: 1
Layer: 2
SplineSet
1012 50 m 1,0,-1
 1012 0 l 1,1,-1
 623 0 l 1,2,-1
 623 111 l 1,3,4
 528 -15 528 -15 366 -15 c 0,5,6
 218 -15 218 -15 125.5 92 c 128,-1,7
 33 199 33 199 33 356 c 128,-1,8
 33 513 33 513 125.5 620.5 c 128,-1,9
 218 728 218 728 366 728 c 0,10,11
 528 728 528 728 623 602 c 1,12,-1
 623 716 l 1,13,-1
 1012 716 l 1,14,-1
 1012 666 l 1,15,-1
 681 666 l 1,16,-1
 681 403 l 1,17,-1
 976 403 l 1,18,-1
 976 353 l 1,19,-1
 681 353 l 1,20,-1
 681 50 l 1,21,-1
 1012 50 l 1,0,-1
366 36 m 0,22,23
 456 36 456 36 522.5 87.5 c 128,-1,24
 589 139 589 139 623 218 c 1,25,-1
 623 481 l 1,26,27
 612 557 612 557 532.5 617 c 128,-1,28
 453 677 453 677 366 677 c 0,29,30
 245 677 245 677 168.5 582 c 128,-1,31
 92 487 92 487 92 356 c 128,-1,32
 92 225 92 225 168.5 130.5 c 128,-1,33
 245 36 245 36 366 36 c 0,22,23
EndSplineSet
EndChar

StartChar: oe
Encoding: 339 339 198
Width: 1021
VWidth: 1504
Flags: W
HStem: -14 52<205.416 393.587 663.995 909.368> 253 46<560 919> 472 50<211.035 389.733 655.861 839.229>
VStem: 42 57<154.333 353.079> 499 58<157.685 253 299 356.917> 919 56<299 382.889>
LayerCount: 3
Back
SplineSet
946 72 m 1
 951 23 l 1
 893 -1 829.667 -13.3333 761 -14 c 0
 651 -14 572.333 31.3333 525 122 c 1
 479.667 30.6667 404.333 -15 299 -15 c 0
 221.667 -15 159.5 11 112.5 63 c 128
 65.5 115 42 178.667 42 254 c 256
 42 329.333 65.6667 392.833 113 444.5 c 128
 160.333 496.167 222.333 522 299 522 c 0
 407 522 483.333 475.333 528 382 c 1
 571.333 475.333 647 522 755 522 c 0
 898.333 522 971.667 432.333 975 253 c 1
 557 253 l 1
 557 181.667 576.5 128 615.5 92 c 128
 654.5 56 705 38 767 38 c 0
 826.333 37.3333 886 48.6667 946 72 c 1
499 254 m 0
 500.332 315.333 482.166 367 444.5 409 c 128
 406.833 451 358.333 472 299 472 c 0
 241 472 193.167 451.167 155.5 409.5 c 128
 117.833 367.833 99 316 99 254 c 256
 99 192 117.833 140 155.5 98 c 128
 193.167 56 241 35 299 35 c 0
 356.333 35 403.667 55.6667 441 97 c 128
 478.334 138.333 497.668 190.667 499 254 c 0
919 299 m 1
 917 350.333 900.667 392.5 870 425.5 c 128
 839.333 458.5 798.667 475 748 475 c 0
 698.667 475 657 458.833 623 426.5 c 128
 589 394.167 568 351.667 560 299 c 1
 919 299 l 1
EndSplineSet
Fore
SplineSet
557 253 m 1
 557 118 637 38 767 38 c 0
 829 38 885 49 946 72 c 1
 951 23 l 1
 893 -1 830 -14 761 -14 c 0
 651 -14 572 31 525 122 c 1
 480 31 404 -15 299 -15 c 0
 146 -15 42 102 42 254 c 256
 42 404 148 522 299 522 c 0
 407 522 483 475 528 382 c 1
 571 475 647 522 755 522 c 0
 898 522 972 432 975 253 c 1
 557 253 l 1
299 35 m 0
 419 35 499 136 499 260 c 0
 499 378 416 472 299 472 c 0
 181 472 99 374 99 254 c 256
 99 134 181 35 299 35 c 0
919 299 m 1
 915 399 851 475 748 475 c 0
 642 475 575 395 560 299 c 1
 919 299 l 1
EndSplineSet
Validated: 1
Layer: 2
SplineSet
557 253 m 1,0,1
 557 152 557 152 613 95 c 128,-1,2
 669 38 669 38 767 38 c 0,3,4
 856 38 856 38 946 72 c 1,5,-1
 951 23 l 1,6,7
 862 -14 862 -14 761 -14 c 0,8,9
 595 -14 595 -14 525 122 c 1,10,11
 457 -15 457 -15 299 -15 c 0,12,13
 186 -15 186 -15 114 62 c 128,-1,14
 42 139 42 139 42 254 c 0,15,16
 42 368 42 368 114.5 445 c 128,-1,17
 187 522 187 522 299 522 c 0,18,19
 460 522 460 522 528 382 c 1,20,21
 593 522 593 522 755 522 c 0,22,23
 970 522 970 522 975 253 c 1,24,-1
 557 253 l 1,0,1
299 35 m 0,25,26
 387 35 387 35 443 100 c 128,-1,27
 499 165 499 165 499 260 c 0,28,29
 499 350 499 350 442.5 411 c 128,-1,30
 386 472 386 472 299 472 c 128,-1,31
 212 472 212 472 155.5 409 c 128,-1,32
 99 346 99 346 99 254 c 128,-1,33
 99 162 99 162 155.5 98.5 c 128,-1,34
 212 35 212 35 299 35 c 0,25,26
919 299 m 1,35,36
 916 376 916 376 870 425.5 c 128,-1,37
 824 475 824 475 748 475 c 128,-1,38
 672 475 672 475 622 425 c 128,-1,39
 572 375 572 375 560 299 c 1,40,-1
 919 299 l 1,35,36
EndSplineSet
EndChar

StartChar: florin
Encoding: 402 402 204
Width: 598
VWidth: 1504
Flags: W
HStem: -108 49<-11.3245 138.908> 369 46<205 281 349 487> 645 50<449.23 600.488>
DStem2: 230 132 289 132 0.215325 0.976543<-132.21 242.422 301.985 472.894>
LayerCount: 3
Back
SplineSet
615 671 m 1
 590 629 l 1
 570.667 640.333 547 645.667 519 645 c 0
 441 645 387.333 581.333 358 454 c 2
 349 415 l 1
 496 415 l 1
 487 369 l 1
 340 369 l 1
 289 132 l 2
 253.667 -28.6667 176 -108.667 56 -108 c 0
 18 -108 -9.33333 -100 -26 -84 c 1
 0 -42 l 1
 19.3333 -53.3333 43 -59 71 -59 c 0
 149 -59 202 4.66666 230 132 c 2
 281 369 l 1
 196 369 l 1
 205 415 l 1
 292 415 l 1
 301 454 l 2
 338.333 614.667 416 695 534 695 c 0
 572 695 599 687 615 671 c 1
EndSplineSet
Fore
SplineSet
615 671 m 1
 590 629 l 1
 571 640 547 645 519 645 c 0
 441 645 387 581 358 454 c 2
 349 415 l 1
 496 415 l 1
 487 369 l 1
 340 369 l 1
 289 132 l 2
 254 -29 176 -108 56 -108 c 0
 18 -108 -9 -100 -26 -84 c 1
 0 -42 l 1
 19 -53 43 -59 71 -59 c 0
 149 -59 202 5 230 132 c 2
 281 369 l 1
 196 369 l 1
 205 415 l 1
 292 415 l 1
 301 454 l 2
 338 615 416 695 534 695 c 0
 572 695 599 687 615 671 c 1
EndSplineSet
Validated: 1
Layer: 2
SplineSet
615 671 m 1,0,-1
 590 629 l 1,1,2
 562 645 562 645 519 645 c 0,3,4
 402 645 402 645 358 454 c 2,5,-1
 349 415 l 1,6,-1
 496 415 l 1,7,-1
 487 369 l 1,8,-1
 340 369 l 1,9,-1
 289 132 l 2,10,11
 237 -108 237 -108 56 -108 c 0,12,13
 -0 -108 -0 -108 -26 -84 c 1,14,-1
 0 -42 l 1,15,16
 29 -59 29 -59 71 -59 c 0,17,18
 188 -59 188 -59 230 132 c 2,19,-1
 281 369 l 1,20,-1
 196 369 l 1,21,-1
 205 415 l 1,22,-1
 292 415 l 1,23,-1
 301 454 l 2,24,25
 356 695 356 695 534 695 c 0,26,27
 591 695 591 695 615 671 c 1,0,-1
EndSplineSet
EndChar

StartChar: circumflex
Encoding: 710 710 205
Width: 318
VWidth: 1504
Flags: W
HStem: 590 117
VStem: 35 249
DStem2: 35 590 90 590 0.660773 0.750586<36.3425 140.482> 181 707 159 668 0.660773 -0.750586<14.7359 119.536>
LayerCount: 3
Fore
SplineSet
181 707 m 1
 284 590 l 1
 229 590 l 1
 159 668 l 1
 90 590 l 1
 35 590 l 1
 138 707 l 1
 181 707 l 1
EndSplineSet
Validated: 1
Layer: 2
SplineSet
181 707 m 1,0,-1
 284 590 l 1,1,-1
 229 590 l 1,2,-1
 159 668 l 1,3,-1
 90 590 l 1,4,-1
 35 590 l 1,5,-1
 138 707 l 1,6,-1
 181 707 l 1,0,-1
EndSplineSet
EndChar

StartChar: caron
Encoding: 711 711 206
Width: 318
VWidth: 1504
Flags: W
HStem: 578 117
VStem: 35 249
DStem2: 90 695 35 695 0.660773 -0.750586<0 104.139> 159 617 181 578 0.660773 0.750586<0 104.8>
LayerCount: 3
Fore
SplineSet
181 578 m 1
 138 578 l 1
 35 695 l 1
 90 695 l 1
 159 617 l 1
 229 695 l 1
 284 695 l 1
 181 578 l 1
EndSplineSet
Validated: 1
Layer: 2
SplineSet
181 578 m 1,0,-1
 138 578 l 1,1,-1
 35 695 l 1,2,-1
 90 695 l 1,3,-1
 159 617 l 1,4,-1
 229 695 l 1,5,-1
 284 695 l 1,6,-1
 181 578 l 1,0,-1
EndSplineSet
EndChar

